<?xml version="1.0" encoding="UTF-8"?>
<svg xmlns:inkscape="http://www.inkscape.org/namespaces/inkscape"
     xmlns:sodipodi="http://sodipodi.sourceforge.net/DTD/sodipodi-0.dtd" xmlns="http://www.w3.org/2000/svg"
     xmlns:xlink="http://www.w3.org/1999/xlink"
     version="1.1"
     width="1448"
     height="1086"
     viewBox="0 0 1448 1086"
     preserveAspectRatio="xMidYMid meet">
  <image id="raster-base"
         x="0"
         y="0"
         width="1448"
         height="1086"
         preserveAspectRatio="none"
         href="5.png"
         xlink:href="5.png" />
  <g id="text-bubble-layer" inkscape:groupmode="layer" inkscape:label="Text bubble">
    <path id="speech-bubble-outline"
          d="M 582,47 C 703.1666,40.6404 825.5757,32.1751 946,47 C 950.0922,47.5038 954.133,48.5695 958,50 C 961.4953,51.293 964.8953,52.9385 968,55 C 973.1204,58.3998 977.9918,62.3404 982,67 C 986.1014,71.768 989.4953,77.2309 992,83 C 994.0608,87.7467 995.1964,92.888 996,98 C 998.0214,110.8592 997.7698,123.985 998,137 C 998.3714,157.9994 998.4714,179.049 997,200 C 996.6235,205.3616 996.0748,210.7337 995,216 C 994.0295,220.7554 992.8573,225.516 991,230 C 988.3734,236.3413 985.234,242.5978 981,248 C 977.0716,253.0123 972.1861,257.3041 967,261 C 962.3853,264.2887 957.2884,266.9642 952,269 C 945.5869,271.4687 938.8022,273.0242 932,274 C 907.2335,277.5528 882.015,276.4999 857,277 C 780.0154,278.5391 702.9692,279.1766 626,277 C 608.3121,276.4998 590.4775,276.7655 573,274 C 566.5315,272.9765 560.128,271.31 554,269 C 550.5128,267.6855 547.0991,266.0699 544,264 C 538.4979,260.3251 533.333,256.0003 529,251 C 525.3669,246.8074 522.3958,242.0038 520,237 C 518.6344,234.1478 517.6614,231.0923 517,228 C 514.898,218.1724 514,198 514,198 C 514,198 509,197 509,197 C 509,197 491.0909,200.6338 482,201 C 476.993,201.2017 467,200 467,200 C 467,200 472.4333,198.9836 475,198 C 480.9873,195.7057 486.7,192.6085 492,189 C 499.6208,183.8113 513,171 513,171 C 513,171 512.2286,133.5854 514,115 C 514.7383,107.2534 515.4705,99.3591 518,92 C 519.842,86.6411 522.7798,81.6628 526,77 C 530.0271,71.1687 534.6721,65.6728 540,61 C 543.6143,57.8301 547.7104,55.1703 552,53 C 555.4814,51.2386 559.1984,49.8774 563,49 C 569.2052,47.5679 575.6404,47.3338 582,47 Z"
          sodipodi:nodetypes="aaaaaaaaaaaaaaaaaaaaaaaccacaacaaaaaa"
          fill="#ffffff"
          stroke="#000000"
          stroke-width="4.8"
          stroke-linejoin="miter"
          stroke-linecap="butt"
          stroke-miterlimit="10"
          />
  <text id="bubble-text"
        x="733.00" y="162.00"
        text-anchor="middle"
        dominant-baseline="middle"
        direction="rtl"
        unicode-bidi="plaintext"
        font-family="Noto Sans Hebrew, Arial, sans-serif"
        font-size="42"
        font-weight="400"
        fill="#000000"
        stroke="none"
        xml:space="preserve">
    <tspan x="733.00" y="106.00">ההפסקה שלי נגמרה, אני</tspan>
    <tspan x="733.00" y="162.00">צריך לחזור לפגישה עם אד.</tspan>
    <tspan x="733.00" y="218.00">תמשיך לעבוד.</tspan>
  </text>
  </g>
</svg>
