<?xml version="1.0" encoding="UTF-8"?>
<svg xmlns:inkscape="http://www.inkscape.org/namespaces/inkscape"
     xmlns:sodipodi="http://sodipodi.sourceforge.net/DTD/sodipodi-0.dtd" xmlns="http://www.w3.org/2000/svg"
     xmlns:xlink="http://www.w3.org/1999/xlink"
     version="1.1"
     width="1448"
     height="1086"
     viewBox="0 0 1448 1086"
     preserveAspectRatio="xMidYMid meet">
  <image id="raster-base"
         x="0"
         y="0"
         width="1448"
         height="1086"
         preserveAspectRatio="none"
         href="panel60.png"
         xlink:href="panel60.png" />
  <g id="text-bubble-layer" inkscape:groupmode="layer" inkscape:label="Text bubble">
    <path id="speech-bubble-outline"
          d="M 507,93 C 490.6145,93.268 474.2035,94.5501 458,97 C 445.8454,98.8377 433.8251,101.6418 422,105 C 414.1916,107.2175 406.479,109.8451 399,113 C 393.506,115.3176 388.1821,118.0502 383,121 C 378.1786,123.7445 373.4144,126.6398 369,130 C 362.2378,135.1473 355.7104,140.706 350,147 C 345.8337,151.592 341.9495,156.5461 339,162 C 334.9356,169.5154 331.5245,177.5931 330,186 C 328.4537,194.5276 328.7979,203.4171 330,212 C 330.6732,216.8065 332.1812,221.5003 334,226 C 336.1236,231.2537 338.6772,236.4097 342,241 C 348.2209,249.5939 355.6956,257.3976 364,264 C 373.7102,271.7201 396,283 396,283 C 396,283 396.4272,288.3678 396,291 C 395.3246,295.1619 393.6345,299.1133 392,303 C 386.6255,315.7803 376.2579,326.5238 373,340 C 372.6084,341.62 373,345 373,345 C 373,345 376.4189,345.527 378,345 C 389.068,341.3107 397.2562,331.7238 406,324 C 415.7174,315.4161 420.7183,300.1558 433,296 C 447.6916,291.0287 463.5343,301.83 479,303 C 498.943,304.5087 519.078,304.7648 539,303 C 557.888,301.3268 576.6547,297.7963 595,293 C 602.8532,290.9468 610.521,288.1549 618,285 C 624.8675,282.103 631.5963,278.8141 638,275 C 644.9915,270.8358 651.7658,266.2304 658,261 C 663.0559,256.7582 667.8792,252.1551 672,247 C 676.6772,241.1489 681.0119,234.869 684,228 C 686.6124,221.9946 688.1597,215.4948 689,209 C 689.8126,202.719 689.5688,196.3077 689,190 C 688.6653,186.2883 688.0486,182.5762 687,179 C 685.2756,173.1193 682.9277,167.3837 680,162 C 677.4821,157.3699 674.377,153.0464 671,149 C 666.7713,143.9331 662.0819,139.2106 657,135 C 650.1655,129.3372 642.8124,124.2124 635,120 C 624.2118,114.183 612.7177,109.5942 601,106 C 583.7501,100.7088 565.8985,97.2798 548,95 C 534.4267,93.2711 520.6811,92.7762 507,93 Z"
          fill="#ffffff"
          stroke="#000000"
          stroke-width="4.8"
          stroke-linejoin="miter"
          stroke-linecap="butt"
          stroke-miterlimit="10"
          sodipodi:nodetypes="aaaaaaaaaaaaacaaacaaaaaaaaaaaaaaaaaaaa"
          />
  <text id="bubble-text"
        x="509.50" y="162.50"
        text-anchor="middle"
        dominant-baseline="middle"
        direction="rtl"
        unicode-bidi="plaintext"
        font-family="Noto Sans Hebrew, Arial, sans-serif"
        font-size="38"
        font-weight="400"
        fill="#000000"
        stroke="none"
        xml:space="preserve">
    <tspan x="509.50" y="169.34">עד סוף המלחמה,</tspan>
    <tspan x="509.50" y="211.97">או עד סוף הפרויקט,</tspan>
    <tspan x="509.50" y="254.09">המוקדם מביניהם.</tspan>
  </text>
  </g>
</svg>
