<svg xmlns="http://www.w3.org/2000/svg" viewBox="-55 -100 110 140">
  <style>
    .body { fill: #e8dfc2; stroke: #111; stroke-width: 4; }
    .line { stroke: #111; stroke-width: 5; stroke-linecap: round; fill: none; }
    .thin { stroke-width: 4; }
    .slot { fill: #111; }
    .label { fill: #111; font-family: Arial, sans-serif; font-weight: 900; font-size: 15px; dominant-baseline: middle; text-anchor: middle; }
    .label-small { font-size: 13px; }
    .he { font-family: Arial, sans-serif; font-weight: 800; font-size: 16px; }
    .glow { fill: #ffe37a; stroke: #111; stroke-width: 4; }
    .glass { fill: #f6f0dc; stroke: #111; stroke-width: 4; }
    .glass-on { fill: #fff0a6; stroke: #111; stroke-width: 4; }
  </style>

  <circle cx="0" cy="-42" r="45" fill="#ffe37a" opacity="0.35"/>
  <path class="glass-on" d="M-30 -46 C-30 -82 30 -82 30 -46 C30 -24 18 -14 14 -4 L-14 -4 C-18 -14 -30 -24 -30 -46 Z"/>
  <path class="thin" d="M-13 -62 C-2 -72 19 -68 24 -51" fill="none"/>
  <path class="line" d="M-14 -15 C-7 -29 7 -29 14 -15"/>
  <line class="line thin" x1="-7" y1="-14" x2="-7" y2="-4"/>
  <line class="line thin" x1="7" y1="-14" x2="7" y2="-4"/>
  <rect class="body" x="-21" y="-4" width="42" height="20" rx="4"/>
  <line class="line" x1="0" y1="16" x2="0" y2="30"/>


  <g id="pin-tags" data-role="pin-tags" opacity="0" pointer-events="none">
    <circle data-pin="in" cx="0" cy="30" r="0" />
  </g>
</svg>
