<?xml version="1.0" encoding="UTF-8" standalone="no"?>
<svg
   version="1.1"
   width="1448"
   height="1086"
   viewBox="0 0 1448 1086"
   preserveAspectRatio="xMidYMid meet"
   id="svg6"
   sodipodi:docname="1.svg"
   inkscape:version="1.4 (86a8ad7, 2024-10-11)"
   xmlns:inkscape="http://www.inkscape.org/namespaces/inkscape"
   xmlns:sodipodi="http://sodipodi.sourceforge.net/DTD/sodipodi-0.dtd"
   xmlns:xlink="http://www.w3.org/1999/xlink"
   xmlns="http://www.w3.org/2000/svg"
   xmlns:svg="http://www.w3.org/2000/svg">
  <defs
     id="defs6" />
  <sodipodi:namedview
     id="namedview6"
     pagecolor="#ffffff"
     bordercolor="#000000"
     borderopacity="0.25"
     inkscape:showpageshadow="2"
     inkscape:pageopacity="0.0"
     inkscape:pagecheckerboard="0"
     inkscape:deskcolor="#d1d1d1"
     inkscape:zoom="0.89502762"
     inkscape:cx="724"
     inkscape:cy="186.02778"
     inkscape:window-width="1920"
     inkscape:window-height="1017"
     inkscape:window-x="1432"
     inkscape:window-y="879"
     inkscape:window-maximized="1"
     inkscape:current-layer="text-bubble-layer" />
  <image
     id="raster-base"
     x="0"
     y="0"
     width="1448"
     height="1086"
     preserveAspectRatio="none"
     href="1.webp"
     xlink:href="1.webp" />
  <g
     id="text-bubble-layer"
     inkscape:groupmode="layer"
     inkscape:label="Text bubble">
    <path
       id="speech-bubble-outline"
       d="M 574,29 C 694.0128,20.2162 815.5883,15.1318 935,30 C 940.4553,30.6793 945.921,31.8962 951,34 C 958.1828,36.9752 965.1312,40.9008 971,46 C 977.7984,51.907 983.6144,59.1338 988,67 C 991.4395,73.1692 993.358,80.1303 995,87 C 996.1726,91.9061 996.6659,96.9668 997,102 C 999.8698,145.2382 999.5359,188.7409 997,232 C 996.6661,237.696 996.1207,243.4054 995,249 C 994.0467,253.7589 992.8969,258.5326 991,263 C 988.1397,269.7361 984.6178,276.3227 980,282 C 974.6375,288.5929 968.1812,294.4555 961,299 C 955.1932,302.6747 948.6416,305.2362 942,307 C 931.2907,309.844 920.0591,310.3114 909,311 C 820.1714,316.5309 730.9933,313.1418 642,312 C 619.3254,311.7091 596.5933,311.9399 574,310 C 569.3032,309.5967 564.6002,309.0297 560,308 C 555.5756,307.0097 551.1194,305.8938 547,304 C 540.194,300.8712 533.8511,296.6772 528,292 C 524.3178,289.0566 520.9347,285.6891 518,282 C 514.0846,277.0781 510.5116,271.7661 508,266 C 504.4158,257.7714 502.2756,248.8842 501,240 C 498.8676,225.1486 500,195 500,195 C 500,195 480.7501,198.6021 471,199 C 464.9957,199.245 453,198 453,198 C 453,198 461.1509,195.721 465,194 C 469.9067,191.8062 474.6065,189.0962 479,186 C 486.5362,180.6891 500,168 500,168 C 500,168 498.7906,126.6312 500,106 C 500.3339,100.304 500.8793,94.5946 502,89 C 502.9533,84.2411 504.0876,79.4608 506,75 C 508.5905,68.9575 512.0905,63.2857 516,58 C 519.2268,53.6374 522.9197,49.5771 527,46 C 530.0596,43.3177 533.4305,40.9531 537,39 C 542.3761,36.0584 548.0934,33.6331 554,32 C 560.4975,30.2035 567.2767,29.4921 574,29 Z"
       sodipodi:nodetypes="aaaaaaaaaaaaaaaaaaaaaacacaacaaaaaaa"
       fill="#ffffff"
       stroke="#000000"
       stroke-width="4.8"
       stroke-linejoin="miter"
       stroke-linecap="butt"
       stroke-miterlimit="10" />
    <text
       id="bubble-text"
       x="752.90741"
       y="168.04922"
       text-anchor="middle"
       dominant-baseline="middle"
       direction="rtl"
       unicode-bidi="plaintext"
       font-family="'Noto Sans Hebrew', Arial, sans-serif"
       font-size="38px"
       font-weight="400"
       fill="#000000"
       stroke="none"
       xml:space="preserve">     <tspan
   x="752.90741"
   y="54.049232"
   id="tspan1">שכחתי לספר לך על שיטה</tspan> <tspan
   x="752.90741"
   y="99.649231"
   id="tspan2">שמאפשרת לבנות כרטיס</tspan> <tspan
   x="752.90741"
   y="145.24922"
   id="tspan3">לכל חישוב ספציפי.</tspan> <tspan
   x="752.90741"
   y="190.84923"
   id="tspan4">ניקח לדוגמה את XOR.</tspan> <tspan
   x="752.90741"
   y="236.44922"
   id="tspan5">מסתכלים על טבלת</tspan> <tspan
   x="752.90741"
   y="282.04922"
   id="tspan6">האמת של הכרטיס.</tspan></text>
  </g>
</svg>
