<?xml version="1.0" encoding="UTF-8"?>
<svg xmlns:inkscape="http://www.inkscape.org/namespaces/inkscape"
     xmlns:sodipodi="http://sodipodi.sourceforge.net/DTD/sodipodi-0.dtd" xmlns="http://www.w3.org/2000/svg"
     xmlns:xlink="http://www.w3.org/1999/xlink"
     version="1.1"
     width="1448"
     height="1086"
     viewBox="0 0 1448 1086"
     preserveAspectRatio="xMidYMid meet">
  <image id="raster-base"
         x="0"
         y="0"
         width="1448"
         height="1086"
         preserveAspectRatio="none"
         href="2.png"
         xlink:href="2.png" />
  <g id="text-bubble-layer" inkscape:groupmode="layer" inkscape:label="Text bubble">
    <path id="speech-bubble-outline"
          d="M 566,43 C 690.048,34.5811 815.2002,31.494 939,43 C 944.403,43.5022 949.834,44.3396 955,46 C 960.253,47.6884 965.4807,49.8345 970,53 C 975.7917,57.0567 980.9968,62.1712 985,68 C 988.7172,73.4124 991.163,79.6963 993,86 C 994.886,92.472 995.4986,99.2774 996,106 C 997.5867,127.2742 996.7343,148.6793 996,170 C 995.6665,179.6839 995.4272,189.4161 994,199 C 993.345,203.3987 992.4604,207.7994 991,212 C 988.6987,218.6193 985.9216,225.1921 982,231 C 978.6999,235.8875 974.5748,240.2786 970,244 C 965.4767,247.6796 960.2975,250.5635 955,253 C 951.1694,254.7618 947.1208,256.1074 943,257 C 930.552,259.6963 917.718,260.3107 905,261 C 807.4759,266.2856 709.6509,263.7855 612,262 C 595.3228,261.6951 578.6027,261.604 562,260 C 557.636,259.5784 553.2616,259.0302 549,258 C 543.8771,256.7615 538.7758,255.2292 534,253 C 529.3894,250.848 524.9928,248.1538 521,245 C 517.6706,242.3703 514.5964,239.3554 512,236 C 507.9766,230.8005 504.2447,225.1793 502,219 C 499.2309,211.377 498,195 498,195 C 498,195 478.7507,198.618 469,199 C 463.3279,199.2222 452,198 452,198 C 452,198 467.1485,192.9793 474,189 C 482.4185,184.1105 497,171 497,171 C 497,171 495.4182,127.5149 498,106 C 498.896,98.5332 500.197,90.9784 503,84 C 505.1734,78.5892 508.5336,73.6887 512,69 C 514.666,65.3939 517.6684,62.0019 521,59 C 524.3682,55.9651 528.0471,53.2204 532,51 C 535.7781,48.8778 539.8181,47.1356 544,46 C 551.1425,44.0604 558.6158,43.5012 566,43 Z"
          sodipodi:nodetypes="aaaaaaaaaaaaaaaaaaaaaacacacaaaaaa"
          fill="#ffffff"
          stroke="#000000"
          stroke-width="4.8"
          stroke-linejoin="miter"
          stroke-linecap="butt"
          stroke-miterlimit="10"
          />
  <text id="bubble-text"
        x="724.50" y="153.00"
        text-anchor="middle"
        dominant-baseline="middle"
        direction="rtl"
        unicode-bidi="plaintext"
        font-family="Noto Sans Hebrew, Arial, sans-serif"
        font-size="45"
        font-weight="400"
        fill="#000000"
        stroke="none"
        xml:space="preserve">
    <tspan x="724.50" y="99.00">מסתכלים על השורות</tspan>
    <tspan x="724.50" y="153.00">שבהן הכרטיס אמור</tspan>
    <tspan x="724.50" y="207.00">להוציא 1.</tspan>
  </text>
  </g>
</svg>
