<?xml version="1.0" encoding="UTF-8" standalone="no"?>
<svg
   version="1.1"
   width="1448"
   height="1086"
   viewBox="0 0 1448 1086"
   preserveAspectRatio="xMidYMid meet"
   id="svg3"
   sodipodi:docname="3.svg"
   inkscape:version="1.4 (86a8ad7, 2024-10-11)"
   xmlns:inkscape="http://www.inkscape.org/namespaces/inkscape"
   xmlns:sodipodi="http://sodipodi.sourceforge.net/DTD/sodipodi-0.dtd"
   xmlns:xlink="http://www.w3.org/1999/xlink"
   xmlns="http://www.w3.org/2000/svg"
   xmlns:svg="http://www.w3.org/2000/svg">
  <defs
     id="defs3" />
  <sodipodi:namedview
     id="namedview3"
     pagecolor="#ffffff"
     bordercolor="#000000"
     borderopacity="0.25"
     inkscape:showpageshadow="2"
     inkscape:pageopacity="0.0"
     inkscape:pagecheckerboard="0"
     inkscape:deskcolor="#d1d1d1"
     inkscape:zoom="0.89502762"
     inkscape:cx="724"
     inkscape:cy="365.35185"
     inkscape:window-width="1150"
     inkscape:window-height="1040"
     inkscape:window-x="1767"
     inkscape:window-y="1084"
     inkscape:window-maximized="0"
     inkscape:current-layer="text-bubble-layer" />
  <image
     id="raster-base"
     x="0"
     y="0"
     width="1448"
     height="1086"
     preserveAspectRatio="none"
     href="3.png"
     xlink:href="3.png" />
  <g
     id="text-bubble-layer"
     inkscape:groupmode="layer"
     inkscape:label="Text bubble">
    <path
       id="speech-bubble-outline"
       d="M 747,37 C 808.0009,36.9991 869.4349,30.7214 930,38 C 937.1443,38.8586 944.2823,40.4211 951,43 C 954.8992,44.4969 958.6966,46.4442 962,49 C 967.782,53.4735 973.0191,58.8684 977,65 C 980.742,70.7637 983.2238,77.3617 985,84 C 986.3892,89.1922 986.666,94.6355 987,100 C 988.6984,127.2805 988.9937,154.7395 987,182 C 986.1644,193.4247 985.6032,205.1262 982,216 C 980.4519,220.6718 977.8643,224.9977 975,229 C 971.2938,234.1787 967.0123,239.0716 962,243 C 956.5978,247.234 950.3239,250.3317 944,253 C 940.7936,254.3529 937.4138,255.3238 934,256 C 920.8556,258.6038 907.3832,259.3325 894,260 C 796.1217,264.8817 697.9709,262.3881 600,260 C 586.3211,259.6666 572.5564,259.8566 559,258 C 551.5492,256.9796 544.0417,255.6401 537,253 C 532.3916,251.2722 528.0065,248.8583 524,246 C 519.1992,242.575 514.592,238.6771 511,234 C 506.6407,228.3239 503.1635,221.8221 501,215 C 498.6628,207.6301 498,192 498,192 C 498,192 495,191 495,191 C 495,191 478.4288,194.5786 470,195 C 464.3306,195.2834 453,194 453,194 C 453,194 466.7533,188.7977 473,185 C 481.7187,179.6995 497,166 497,166 C 497,166 495.7978,122.557 498,101 C 498.7242,93.911 499.6164,86.7154 502,80 C 503.6463,75.3619 506.1306,70.9986 509,67 C 512.9875,61.4432 517.7863,56.4266 523,52 C 525.7485,49.6664 528.809,47.6786 532,46 C 536.766,43.4929 541.7764,41.3092 547,40 C 552.8558,38.5323 558.9733,38.3504 565,38 C 625.5653,34.4787 686.3324,37.0009 747,37 Z"
       sodipodi:nodetypes="aaaaaaaaaaaaaaaaaaaaccacacaaaaaaa"
       fill="#ffffff"
       stroke="#000000"
       stroke-width="4.8"
       stroke-linejoin="miter"
       stroke-linecap="butt"
       stroke-miterlimit="10" />
    <text
       id="bubble-text"
       x="734.5"
       y="149"
       text-anchor="middle"
       dominant-baseline="middle"
       direction="rtl"
       unicode-bidi="plaintext"
       font-family="'Noto Sans Hebrew', Arial, sans-serif"
       font-size="43px"
       font-weight="400"
       fill="#000000"
       stroke="none"
       xml:space="preserve">     <tspan
   x="734.5"
   y="97.400002"
   id="tspan1">ועבור כל אחת מהן</tspan> <tspan
   x="734.5"
   y="149"
   id="tspan2">בונים כרטיס שיוציא 1</tspan> <tspan
   x="734.5"
   y="200.60001"
   id="tspan3">רק במקרה שלה. </tspan></text>
  </g>
</svg>
