<?xml version="1.0" encoding="UTF-8" standalone="no"?>
<svg
   version="1.1"
   width="1448"
   height="1086"
   viewBox="0 0 1448 1086"
   preserveAspectRatio="xMidYMid meet"
   id="svg1"
   sodipodi:docname="panel82.svg"
   inkscape:version="1.4 (86a8ad7, 2024-10-11)"
   xmlns:inkscape="http://www.inkscape.org/namespaces/inkscape"
   xmlns:sodipodi="http://sodipodi.sourceforge.net/DTD/sodipodi-0.dtd"
   xmlns:xlink="http://www.w3.org/1999/xlink"
   xmlns="http://www.w3.org/2000/svg"
   xmlns:svg="http://www.w3.org/2000/svg">
  <defs
     id="defs1" />
  <sodipodi:namedview
     id="namedview1"
     pagecolor="#ffffff"
     bordercolor="#000000"
     borderopacity="0.25"
     inkscape:showpageshadow="2"
     inkscape:pageopacity="0.0"
     inkscape:pagecheckerboard="0"
     inkscape:deskcolor="#d1d1d1"
     inkscape:zoom="1"
     inkscape:cx="737"
     inkscape:cy="319.5"
     inkscape:window-width="1920"
     inkscape:window-height="1017"
     inkscape:window-x="1432"
     inkscape:window-y="879"
     inkscape:window-maximized="1"
     inkscape:current-layer="text-bubble-layer" />
  <image
     id="raster-base"
     x="0"
     y="0"
     width="1448"
     height="1086"
     preserveAspectRatio="none"
     href="panel82.png"
     xlink:href="panel82.png" />
  <g
     id="text-bubble-layer"
     inkscape:groupmode="layer"
     inkscape:label="Text bubble">
    <path
       id="speech-bubble-outline"
       d="m 633,258 c -17.2426,1.6745 -34.9132,3.5715 -51,10 -4.0358,1.6128 -7.7449,4.1202 -11,7 -5.4981,4.8642 -10.37,10.6194 -14,17 -4.3796,7.6983 -7.1234,16.3442 -9,25 -3.4723,16.0156 -3.3807,32.624 -4,49 -2.1542,56.9603 -1.6027,114.0585 1,171 0.5347,11.6972 0.9122,23.4782 3,35 1.543,8.5152 3.1717,17.239 7,25 4.4238,8.9683 10.179,17.7685 18,24 7.7028,6.1373 17.4861,9.4533 27,12 18.4552,4.9401 37.9279,4.8794 57,6 26.6228,1.5642 80,1 80,1 l -12.56983,79.49439 c 0,0 6.39828,-8.98328 9.56983,-13.49439 15.42302,-21.93722 46,-66 46,-66 0,0 116.0038,1.7464 174,1 42.3508,-0.5451 84.862,0.2752 127,-4 9.7592,-0.9901 19.6047,-2.1802 29,-5 5.5757,-1.6734 11.2642,-3.6146 16,-7 8.8287,-6.3113 16.5941,-14.5897 22,-24 5.0418,-8.7764 7.031,-19.0719 9,-29 2.1488,-10.8343 2.4995,-21.966 3,-33 2.9756,-65.5992 6.6133,-131.6672 0,-197 -1.5077,-14.8942 -3.493,-30.0794 -9,-44 -1.8717,-4.7313 -4.6953,-9.1311 -8,-13 -3.992,-4.6735 -8.6514,-8.9717 -14,-12 -10.09,-5.7129 -21.6205,-8.775 -33,-11 -20.3248,-3.974 -41.3011,-3.333 -62,-4 -133.5973,-4.3051 -267.9592,-12.9202 -401,0 z"
       fill="#ffffff"
       stroke="#000000"
       stroke-width="4.8"
       stroke-linejoin="miter"
       stroke-linecap="butt"
       stroke-miterlimit="10"
       sodipodi:nodetypes="aaaaaaaaaaaaccacaaaaaaaaaaaaaa" />
    <text
       id="bubble-text"
       x="829.57251"
       y="338.09192"
       text-anchor="middle"
       dominant-baseline="middle"
       direction="rtl"
       unicode-bidi="plaintext"
       font-family="'Noto Sans Hebrew', Arial, sans-serif"
       font-size="44.3269px"
       font-weight="400"
       fill="#000000"
       stroke="none"
       xml:space="preserve"
       style="font-weight:400;font-family:'Noto Sans Hebrew', Arial, sans-serif;direction:rtl;dominant-baseline:middle;text-anchor:middle;fill:#000000;stroke:none;stroke-width:1.34324"><tspan
   x="829.57251"
   y="338.09192"
   id="tspan1"
   style="stroke-width:1.34324">רוצה לדעת מה אני עושה?</tspan><tspan
   x="829.57251"
   y="391.82141"
   id="tspan2"
   style="stroke-width:1.34324">תנסה לחבר חלק מהכניסות שלי</tspan><tspan
   x="829.57251"
   y="445.5509"
   id="tspan3"
   style="stroke-width:1.34324">למקור מתח ואת היציאה למנורה.</tspan><tspan
   x="829.57251"
   y="499.2804"
   id="tspan4"
   style="stroke-width:1.34324">רק אל תתבלבל ביניהם.</tspan><tspan
   x="829.57251"
   y="553.00995"
   id="tspan5"
   style="stroke-width:1.34324">זה יכול לשרוף אותי.</tspan></text>
  </g>
</svg>
