<?xml version="1.0" encoding="UTF-8" standalone="no"?>
<svg
   version="1.1"
   width="1448"
   height="1086"
   viewBox="0 0 1448 1086"
   preserveAspectRatio="xMidYMid meet"
   id="svg1"
   sodipodi:docname="panel32.svg"
   inkscape:version="1.4 (86a8ad7, 2024-10-11)"
   xmlns:inkscape="http://www.inkscape.org/namespaces/inkscape"
   xmlns:sodipodi="http://sodipodi.sourceforge.net/DTD/sodipodi-0.dtd"
   xmlns:xlink="http://www.w3.org/1999/xlink"
   xmlns="http://www.w3.org/2000/svg"
   xmlns:svg="http://www.w3.org/2000/svg">
  <defs
     id="defs1" />
  <sodipodi:namedview
     id="namedview1"
     pagecolor="#ffffff"
     bordercolor="#000000"
     borderopacity="0.25"
     inkscape:showpageshadow="2"
     inkscape:pageopacity="0.0"
     inkscape:pagecheckerboard="0"
     inkscape:deskcolor="#d1d1d1"
     inkscape:zoom="3.5342116"
     inkscape:cx="587.25969"
     inkscape:cy="609.04672"
     inkscape:window-width="1920"
     inkscape:window-height="1017"
     inkscape:window-x="1432"
     inkscape:window-y="879"
     inkscape:window-maximized="1"
     inkscape:current-layer="text-bubble-layer" />
  <image
     id="raster-base"
     x="0"
     y="0"
     width="1448"
     height="1086"
     preserveAspectRatio="none"
     href="panel32.webp"
     xlink:href="panel32.webp" />
  <g
     id="text-bubble-layer"
     inkscape:groupmode="layer"
     inkscape:label="Text bubble">
    <path
       id="speech-bubble-outline"
       d="m 531,540 c -11.9826,-0.7266 -24.0769,-0.3964 -36,1 -8.1163,0.9505 -16.1104,2.871 -24,5 -5.0884,1.3731 -10.1039,3.049 -15,5 -5.1257,2.0425 -10.1908,4.2953 -15,7 -5.2377,2.9457 -10.3528,6.1902 -15,10 -4.3747,3.5864 -8.53812,7.52614 -12,12 -4.02337,5.19949 -7.51053,10.9152 -10,17 -2.08169,5.0881 -3.3283,10.54372 -4,16 -0.44801,3.63919 -0.49522,7.36693 0,11 0.84104,6.17012 2.45431,12.31693 5,18 2.26795,5.06302 5.51864,9.68052 9,14 3.54981,4.40442 7.6253,8.4136 12,12 5.5766,4.5718 11.6287,8.6226 18,12 8.5864,4.5517 17.7171,8.1237 27,11 7.4942,2.3221 15.1992,4.1619 23,5 15.577,1.6736 31.475,2.10212 47,0 9.93706,-1.3455 19.68941,-4.27596 29,-8 9.83102,-3.9322 19.39088,-8.83606 28,-15 5.56102,-3.98157 10.51442,-8.83692 15,-14 2.66852,-3.07157 5.00811,-6.45205 7,-10 2.84985,-5.07615 5.61912,-10.34473 7,-16 1.18867,-4.86808 1,-15 1,-15 0,0 14.91796,-6.16156 22,-10 3.82099,-2.07097 7.55615,-4.34881 11,-7 4.67295,-3.5974 8.37376,-8.34272 13,-12 6.69157,-5.29002 21.2284,-14.29012 21.2284,-14.29012 0,0 -29.14299,16.50957 -45.2284,20.29012 -8.11878,1.90815 -25,1 -25,1 0,0 -4.81713,-9.66893 -8,-14 -3.7712,-5.13163 -8.2359,-9.774 -13,-14 -3.3917,-3.0086 -7.1535,-5.6 -11,-8 -5.4397,-3.3942 -11.0901,-6.5132 -17,-9 -8.0647,-3.3936 -16.4794,-6.0113 -25,-8 -6.5648,-1.5322 -13.2711,-2.592 -20,-3 z"
       fill="#ffffff"
       stroke="#000000"
       stroke-width="4.8"
       stroke-linejoin="miter"
       stroke-linecap="butt"
       stroke-miterlimit="10"
       sodipodi:nodetypes="aaaaaaaaaaaaaaaaaaaaaacaaacacaaaaaa" />
    <text
       id="bubble-text"
       x="515.46582"
       y="622.13446"
       text-anchor="middle"
       dominant-baseline="middle"
       direction="rtl"
       unicode-bidi="plaintext"
       font-family="'Noto Sans Hebrew', Arial, sans-serif"
       font-size="64.9971px"
       font-weight="400"
       fill="#000000"
       stroke="none"
       xml:space="preserve"
       style="stroke-width:1.41298"><tspan
         x="515.46582"
         y="622.13446"
         id="tspan1"
         style="stroke-width:1.41298">הלו?</tspan></text>
  </g>
</svg>
