<?xml version="1.0" encoding="UTF-8" standalone="no"?>
<svg
   version="1.1"
   width="1448"
   height="1086"
   viewBox="0 0 1448 1086"
   preserveAspectRatio="xMidYMid meet"
   id="svg1"
   sodipodi:docname="panel77.svg"
   inkscape:version="1.4 (86a8ad7, 2024-10-11)"
   xmlns:inkscape="http://www.inkscape.org/namespaces/inkscape"
   xmlns:sodipodi="http://sodipodi.sourceforge.net/DTD/sodipodi-0.dtd"
   xmlns:xlink="http://www.w3.org/1999/xlink"
   xmlns="http://www.w3.org/2000/svg"
   xmlns:svg="http://www.w3.org/2000/svg">
  <defs
     id="defs1" />
  <sodipodi:namedview
     id="namedview1"
     pagecolor="#ffffff"
     bordercolor="#000000"
     borderopacity="0.25"
     inkscape:showpageshadow="2"
     inkscape:pageopacity="0.0"
     inkscape:pagecheckerboard="0"
     inkscape:deskcolor="#d1d1d1"
     inkscape:zoom="1"
     inkscape:cx="828.5"
     inkscape:cy="548.5"
     inkscape:window-width="1920"
     inkscape:window-height="1017"
     inkscape:window-x="1432"
     inkscape:window-y="879"
     inkscape:window-maximized="1"
     inkscape:current-layer="text-bubble-layer" />
  <image
     id="raster-base"
     x="0"
     y="0"
     width="1448"
     height="1086"
     preserveAspectRatio="none"
     href="panel77.webp"
     xlink:href="panel77.jpg" />
  <g
     id="text-bubble-layer"
     inkscape:groupmode="layer"
     inkscape:label="Text bubble">
    <path
       id="speech-bubble-outline"
       d="m 832,497 c -6.3596,0.3338 -12.8294,0.4255 -19,2 -4.1988,1.0714 -8.7878,2.0915 -12,5 -3.6483,3.3034 -5.5026,8.3117 -7,13 -1.6353,5.12 -1.7157,10.6327 -2,16 -0.9523,17.9779 -0.4424,36.0548 1,54 0.3777,4.6989 0.7826,9.4459 2,14 0.9271,3.4683 2.0237,7.0028 4,10 1.2975,1.9677 2.98991,3.76912 5,5 2.76349,1.69223 9.24752,2.99802 9.24752,2.99802 0,0 -28.22444,36.62249 -42.24752,55.00198 -5.76374,7.5543 -17.21775,22.71875 -17.21775,22.71875 0,0 14.19284,-10.41541 21.21775,-15.71875 26.17983,-19.76402 78,-60 78,-60 -0.10641,-0.4776 82.0261,1.4615 123,0 4.6756,-0.1668 9.4334,0.0175 14,-1 4.5317,-1.0098 9.1071,-2.4701 13,-5 1.1858,-0.7706 2.1911,-1.84 3,-3 2.7298,-3.9149 4.729,-8.3998 6,-13 2.4999,-9.0477 2.6109,-18.6213 3,-28 0.5805,-13.9919 0.4236,-28.0686 -1,-42 -0.3788,-3.7075 -0.8769,-7.4465 -2,-11 -1.4383,-4.5507 -2.8977,-9.3732 -6,-13 -2.3437,-2.7399 -5.6162,-4.755 -9,-6 -5.3548,-1.9702 -11.304,-1.6661 -17,-2 -49.2488,-2.887 -98.7345,-2.5858 -148,0 z"
       fill="#ffffff"
       stroke="#000000"
       stroke-width="4.8"
       stroke-linejoin="miter"
       stroke-linecap="butt"
       stroke-miterlimit="10"
       sodipodi:nodetypes="aaaaaaaaacacacaaaaaaaaaaaa" />
    <text
       id="bubble-text"
       x="898.5"
       y="559"
       text-anchor="middle"
       dominant-baseline="middle"
       direction="rtl"
       unicode-bidi="plaintext"
       font-family="'Noto Sans Hebrew', Arial, sans-serif"
       font-size="36px"
       font-weight="400"
       fill="#000000"
       stroke="none"
       xml:space="preserve"
       style="font-weight:400;font-family:'Noto Sans Hebrew', Arial, sans-serif;direction:rtl;dominant-baseline:middle;text-anchor:middle;fill:#000000;stroke:none"><tspan
   x="898.5"
   y="559"
   id="tspan1">ויציאה אחת.</tspan></text>
  </g>
</svg>
