<?xml version='1.0' encoding='UTF-8'?>
<svg xmlns:inkscape="http://www.inkscape.org/namespaces/inkscape" xmlns:sodipodi="http://sodipodi.sourceforge.net/DTD/sodipodi-0.dtd" xmlns:xlink="http://www.w3.org/1999/xlink" xmlns="http://www.w3.org/2000/svg" xmlns:svg="http://www.w3.org/2000/svg" version="1.1" width="1448" height="1086" viewBox="0 0 1448 1086" preserveAspectRatio="xMidYMid meet" id="svg3" sodipodi:docname="panel52.svg" inkscape:version="1.4 (86a8ad7, 2024-10-11)">
  <defs id="defs3"/>
  <sodipodi:namedview id="namedview3" pagecolor="#ffffff" bordercolor="#000000" borderopacity="0.25" inkscape:showpageshadow="2" inkscape:pageopacity="0.0" inkscape:pagecheckerboard="0" inkscape:deskcolor="#d1d1d1" inkscape:zoom="2.1971311" inkscape:cx="465.37961" inkscape:cy="221.42512" inkscape:window-width="1920" inkscape:window-height="1017" inkscape:window-x="1432" inkscape:window-y="879" inkscape:window-maximized="1" inkscape:current-layer="text-bubble-layer"/>
  <image id="raster-base" x="0" y="0" width="1448" height="1086" preserveAspectRatio="none" href="panel52.webp" xlink:href="panel52.jpg"/>
  <g id="text-bubble-layer" inkscape:groupmode="layer" inkscape:label="Text bubble">
    <path id="speech-bubble-outline" d="m 512,97 c -12.3637,0.5004 -24.7197,1.4815 -37,3 -10.0613,1.2441 -20.1102,2.7705 -30,5 -9.4692,2.1346 -18.831,4.8137 -28,8 -5.7887,2.0116 -11.5326,4.2317 -17,7 -8.0074,4.0544 -15.869,8.5498 -23,14 -6.9315,5.2977 -13.3029,11.3929 -19,18 -2.6571,3.0815 -5.0822,6.4115 -7,10 -3.0344,5.6778 -5.6471,11.706 -7,18 -1.3328,6.2005 -1.6585,12.6922 -1,19 0.5373,5.1468 2.1668,10.1609 4,15 1.3203,3.4851 2.945,6.891 5,10 4.8247,7.2991 10.5736,14.0623 17,20 5.436,5.0227 11.6267,9.2372 18,13 11.4276,6.7469 36,17 36,17 0,0 -1.33517,11.49187 -3,17 -5.58247,18.46974 -23.19903,53.03264 -23.19903,53.03264 0,0 21.40626,-15.98384 31.19903,-25.03264 5.71534,-5.28114 11.0449,-10.9998 16,-17 4.7128,-5.7068 13,-18 13,-18 0,0 30.6233,3.3327 46,4 11.6557,0.5058 23.3478,0.5812 35,0 13.3832,-0.6675 26.8238,-1.562 40,-4 14.9486,-2.7659 29.7989,-6.5742 44,-12 12.5328,-4.7883 24.5358,-11.0307 36,-18 3.8741,-2.3552 7.6011,-4.9995 11,-8 5.4806,-4.8382 10.8744,-9.9648 15,-16 4.7959,-7.0158 8.9405,-14.755 11,-23 1.8597,-7.4452 2.1137,-15.4073 1,-23 -1.178,-8.0313 -4.1527,-15.8525 -8,-23 -3.3811,-6.2815 -8.0113,-11.9008 -13,-17 -5.9705,-6.1026 -12.8523,-11.3311 -20,-16 -6.6158,-4.3215 -13.7706,-7.8093 -21,-11 -7.1388,-3.1507 -14.5006,-5.8441 -22,-8 -13.7605,-3.9559 -27.8511,-6.8068 -42,-9 -10.2591,-1.5902 -20.6305,-2.4994 -31,-3 -8.9895,-0.434 -18.0074,-0.364 -27,0 z" fill="#ffffff" stroke="#000000" stroke-width="4.8" stroke-linejoin="miter" stroke-linecap="butt" stroke-miterlimit="10" sodipodi:nodetypes="aaaaaaaaaaaaaacacaacaaaaaaaaaaaaaaaaa"/>
    <text id="bubble-text" x="510" y="169.08" text-anchor="middle" dominant-baseline="middle" direction="rtl" unicode-bidi="plaintext" font-family="'Noto Sans Hebrew', Arial, sans-serif" font-size="31" font-weight="400" fill="#000000" stroke="none" xml:space="preserve" style="font-family:'Noto Sans Hebrew', Arial, sans-serif;font-weight:400;fill:#000000;stroke:none;text-anchor:middle;direction:rtl;unicode-bidi:plaintext;dominant-baseline:middle">
<tspan x="510" y="169.08" id="tspan1">שלום ג'ון, מדבר רוברט,</tspan>
<tspan x="510" y="211.08" id="tspan2">רוברט אופנהיימר.</tspan>
</text>
  </g>
</svg>
