<?xml version="1.0" encoding="UTF-8" standalone="no"?>
<svg
   version="1.1"
   width="1448"
   height="1086"
   viewBox="0 0 1448 1086"
   preserveAspectRatio="xMidYMid meet"
   id="svg3"
   sodipodi:docname="panel58.svg"
   inkscape:version="1.4 (86a8ad7, 2024-10-11)"
   xmlns:inkscape="http://www.inkscape.org/namespaces/inkscape"
   xmlns:sodipodi="http://sodipodi.sourceforge.net/DTD/sodipodi-0.dtd"
   xmlns:xlink="http://www.w3.org/1999/xlink"
   xmlns="http://www.w3.org/2000/svg"
   xmlns:svg="http://www.w3.org/2000/svg">
  <defs
     id="defs3" />
  <sodipodi:namedview
     id="namedview3"
     pagecolor="#ffffff"
     bordercolor="#000000"
     borderopacity="0.25"
     inkscape:showpageshadow="2"
     inkscape:pageopacity="0.0"
     inkscape:pagecheckerboard="0"
     inkscape:deskcolor="#d1d1d1"
     inkscape:zoom="1"
     inkscape:cx="360"
     inkscape:cy="162.5"
     inkscape:window-width="1920"
     inkscape:window-height="1017"
     inkscape:window-x="1432"
     inkscape:window-y="879"
     inkscape:window-maximized="1"
     inkscape:current-layer="text-bubble-layer" />
  <image
     id="raster-base"
     x="0"
     y="0"
     width="1448"
     height="1086"
     preserveAspectRatio="none"
     href="panel58.jpg"
     xlink:href="panel58.jpg" />
  <g
     id="text-bubble-layer"
     inkscape:groupmode="layer"
     inkscape:label="Text bubble">
    <path
       id="speech-bubble-outline"
       d="m 474,96 c -17.6325,-1.1479 -35.4237,-0.8154 -53,1 -12.4857,1.2896 -24.9266,3.5664 -37,7 -13.3971,3.81 -26.6301,8.598 -39,15 -9.6063,4.9718 -18.7399,11.0164 -27,18 -5.9425,5.0241 -11.4219,10.7074 -16,17 -4.4762,6.1525 -8.3308,12.8751 -11,20 -2.7525,7.3471 -4.3315,15.1828 -5,23 -0.6538,7.646 -0.6145,15.4979 1,23 1.8883,8.7744 5.7316,17.1047 10,25 1.935,3.5793 4.3848,6.8829 7,10 4.5448,5.4171 9.5919,10.4445 15,15 5.305,4.4686 11.0031,8.5145 17,12 10.185,5.9198 32,15 32,15 0,0 -1.37322,12.13881 -3,18 -3.59268,12.94425 -8.18084,27.23943 -14.81063,37.48057 0,0 18.80594,-11.14976 26.81063,-18.48057 9.25351,-8.4745 24,-29 24,-29 0,0 21.2711,3.332 32,4 14.3056,0.8906 28.6962,0.919 43,0 10.3976,-0.668 20.7513,-2.1241 31,-4 7.0781,-1.2956 14.1074,-2.9337 21,-5 7.4745,-2.2407 14.8318,-4.9167 22,-8 6.1623,-2.6506 12.2222,-5.5916 18,-9 5.5745,-3.2885 10.9355,-6.9701 16,-11 4.2461,-3.3786 8.3115,-7.0201 12,-11 4.0341,-4.3529 7.7478,-9.0356 11,-14 2.697,-4.1169 5.1289,-8.448 7,-13 2.2456,-5.4632 4.0123,-11.1765 5,-17 1.1162,-6.581 1.416,-13.338 1,-20 -0.3586,-5.743 -1.319,-11.4968 -3,-17 -1.9181,-6.2795 -4.7063,-12.32 -8,-18 -3.1103,-5.3638 -6.7936,-10.4447 -11,-15 -6.5735,-7.1188 -14.0142,-13.5122 -22,-19 -8.7264,-5.9968 -18.2573,-10.8538 -28,-15 -10.9605,-4.6645 -22.4044,-8.274 -34,-11 -13.1247,-3.0855 -26.546,-5.1241 -40,-6 z"
       fill="#ffffff"
       stroke="#000000"
       stroke-width="4.8"
       stroke-linejoin="miter"
       stroke-linecap="butt"
       stroke-miterlimit="10"
       sodipodi:nodetypes="aaaaaaaaaaaaacacacaaaaaaaaaaaaaaaaaaa" />
    <text
       id="bubble-text"
       x="446.5"
       y="143"
       text-anchor="middle"
       dominant-baseline="middle"
       direction="rtl"
       unicode-bidi="plaintext"
       font-family="'Noto Sans Hebrew', Arial, sans-serif"
       font-size="37px"
       font-weight="400"
       fill="#000000"
       stroke="none"
       xml:space="preserve"
       style="font-weight:400;font-family:'Noto Sans Hebrew', Arial, sans-serif;direction:rtl;dominant-baseline:middle;text-anchor:middle;fill:#000000;stroke:none"> <tspan
   x="446.5"
   y="143"
   id="tspan1">מתי אתה יכול</tspan> <tspan
   x="446.5"
   y="183"
   id="tspan2">להגיע</tspan> <tspan
   x="446.5"
   y="223"
   id="tspan3">ללוס אלמוס,</tspan> <tspan
   x="446.5"
   y="263"
   id="tspan4">ניו מקסיקו?</tspan></text>
  </g>
</svg>
