<?xml version="1.0" encoding="UTF-8" standalone="no"?>
<svg
   version="1.1"
   width="1448"
   height="1086"
   viewBox="0 0 1448 1086"
   preserveAspectRatio="xMidYMid meet"
   id="svg2"
   sodipodi:docname="panel54.svg"
   inkscape:version="1.4 (86a8ad7, 2024-10-11)"
   xmlns:inkscape="http://www.inkscape.org/namespaces/inkscape"
   xmlns:sodipodi="http://sodipodi.sourceforge.net/DTD/sodipodi-0.dtd"
   xmlns:xlink="http://www.w3.org/1999/xlink"
   xmlns="http://www.w3.org/2000/svg"
   xmlns:svg="http://www.w3.org/2000/svg">
  <defs
     id="defs2" />
  <sodipodi:namedview
     id="namedview2"
     pagecolor="#ffffff"
     bordercolor="#000000"
     borderopacity="0.25"
     inkscape:showpageshadow="2"
     inkscape:pageopacity="0.0"
     inkscape:pagecheckerboard="0"
     inkscape:deskcolor="#d1d1d1"
     inkscape:zoom="4.6167564"
     inkscape:cx="566.95649"
     inkscape:cy="188.76889"
     inkscape:window-width="1920"
     inkscape:window-height="1017"
     inkscape:window-x="1432"
     inkscape:window-y="879"
     inkscape:window-maximized="1"
     inkscape:current-layer="text-bubble-layer" />
  <image
     id="raster-base"
     x="0"
     y="0"
     width="1448"
     height="1086"
     preserveAspectRatio="none"
     href="panel54.jpg"
     xlink:href="panel54.jpg" />
  <g
     id="text-bubble-layer"
     inkscape:groupmode="layer"
     inkscape:label="Text bubble">
    <path
       id="speech-bubble-outline"
       d="m 529,117 c -27.9279,-2.0355 -56.1006,-1.3948 -84,1 -18.8369,1.6169 -37.7888,3.9211 -56,9 -14.5482,4.0573 -28.7632,9.7269 -42,17 -5.0261,2.7617 -9.7559,6.143 -14,10 -7.5188,6.833 -14.6621,14.3554 -20,23 -3.2197,5.2143 -5.6237,11.0283 -7,17 -1.2001,5.2072 -1.2744,10.6633 -1,16 0.2082,4.0498 0.8063,8.1245 2,12 1.4048,4.5612 3.3641,9.0213 6,13 5.4736,8.2621 12.5263,15.491 20,22 5.7869,5.0399 12.3106,9.2396 19,13 9.8836,5.5561 31,14 31,14 0,0 -2.4465,14.2727 -5,21 -3.7575,9.8991 -9.42902,18.99582 -15,28 -3.74602,6.05456 -12.34633,17.42934 -12.34633,17.42934 0,0 18.0134,-8.16376 26.34633,-13.42934 4.62168,-2.92044 8.9788,-6.2961 13,-10 10.9345,-10.0715 30,-33 30,-33 -0.2566,-0.0669 39.2663,4.6279 59,5 21.353,0.4026 42.8023,-0.3984 64,-3 15.1831,-1.8634 30.4054,-4.4176 45,-9 13.5301,-4.2482 26.8907,-9.6192 39,-17 9.9131,-6.0422 19.3717,-13.2486 27,-22 5.8975,-6.7658 10.5389,-14.7189 14,-23 1.59,-3.8042 2.4962,-7.9078 3,-12 0.6516,-5.2934 0.8543,-10.7355 0,-16 -1.1819,-7.2834 -3.6517,-14.4248 -7,-21 -2.6024,-5.1104 -6.1192,-9.7777 -10,-14 -5.9209,-6.4419 -12.5623,-12.3917 -20,-17 -12.9478,-8.0222 -27.3665,-13.7738 -42,-18 -20.428,-5.8997 -41.7933,-8.4544 -63,-10 z"
       fill="#ffffff"
       stroke="#000000"
       stroke-width="4.8"
       stroke-linejoin="miter"
       stroke-linecap="butt"
       stroke-miterlimit="10"
       sodipodi:nodetypes="aaaaaaaaaaaacaacaacaaaaaaaaaaaaa" />
    <text
       id="bubble-text"
       x="480.5"
       y="190"
       text-anchor="middle"
       dominant-baseline="middle"
       direction="rtl"
       unicode-bidi="plaintext"
       font-family="'Noto Sans Hebrew', Arial, sans-serif"
       font-size="32px"
       font-weight="400"
       fill="#000000"
       stroke="none"
       xml:space="preserve"
       style="font-weight:400;font-family:'Noto Sans Hebrew', Arial, sans-serif;direction:rtl;dominant-baseline:middle;text-anchor:middle;fill:#000000;stroke:none"><tspan
   x="480.5"
   y="190"
   id="tspan1">יכול היה להיות יותר טוב.</tspan><tspan
   x="480.5"
   y="232"
   id="tspan2">אני קורס בעבודה.</tspan></text>
  </g>
</svg>
