<?xml version="1.0" encoding="UTF-8" standalone="no"?>
<svg
   version="1.1"
   width="1448"
   height="1086"
   viewBox="0 0 1448 1086"
   preserveAspectRatio="xMidYMid meet"
   id="svg3"
   sodipodi:docname="panel38.svg"
   inkscape:version="1.4 (86a8ad7, 2024-10-11)"
   xmlns:inkscape="http://www.inkscape.org/namespaces/inkscape"
   xmlns:sodipodi="http://sodipodi.sourceforge.net/DTD/sodipodi-0.dtd"
   xmlns:xlink="http://www.w3.org/1999/xlink"
   xmlns="http://www.w3.org/2000/svg"
   xmlns:svg="http://www.w3.org/2000/svg">
  <defs
     id="defs3" />
  <sodipodi:namedview
     id="namedview3"
     pagecolor="#ffffff"
     bordercolor="#000000"
     borderopacity="0.25"
     inkscape:showpageshadow="2"
     inkscape:pageopacity="0.0"
     inkscape:pagecheckerboard="0"
     inkscape:deskcolor="#d1d1d1"
     inkscape:zoom="3.6181345"
     inkscape:cx="1194.4"
     inkscape:cy="349.76588"
     inkscape:window-width="1440"
     inkscape:window-height="2497"
     inkscape:window-x="-8"
     inkscape:window-y="-8"
     inkscape:window-maximized="1"
     inkscape:current-layer="text-bubble-layer" />
  <image
     id="raster-base"
     x="0"
     y="0"
     width="1448"
     height="1086"
     preserveAspectRatio="none"
     href="panel38.webp"
     xlink:href="panel38.jpg" />
  <g
     id="text-bubble-layer"
     inkscape:groupmode="layer"
     inkscape:label="Text bubble">
    <path
       id="speech-bubble-outline"
       d="m 1214,125 c -10.806,1.0043 -21.6044,2.8841 -32,6 -10.7334,3.2172 -21.1588,7.6421 -31,13 -6.7398,3.6694 -13.1616,8.0198 -19,13 -6.6374,5.6618 -12.7986,11.9959 -18,19 -4.8067,6.4727 -8.9941,13.519 -12,21 -3.0745,7.6516 -4.9925,15.8156 -6,24 -0.6924,5.6242 -0.7211,11.3794 0,17 1.0082,7.8588 2.8756,15.7188 6,23 4.4864,10.4554 10.6989,20.2742 18,29 5.7556,6.8787 12.456,13.14889 20,18 14.0632,9.0433 41.4582,18.9278 46,20 2.1763,0.5137 6,3 6,3 0,0 2.5385,8.73116 1.9347,13.10554 C 1192.4918,354.55892 1181,373 1181,373 c 0,0 7.5774,-5.02654 11,-8 10.8553,-9.43081 30,-31 30,-31 0,0 53.08,-5.9616 64,-10 10.2076,-3.7749 20.083,-8.7604 29,-15 9.2777,-6.492 17.9408,-14.1462 25,-23 6.7014,-8.4051 12.3026,-17.9062 16,-28 3.1483,-8.5946 4.4886,-17.8613 5,-27 0.2614,-4.6712 -0.2347,-9.3845 -1,-14 -1.0713,-6.4607 -2.69,-12.872 -5,-19 -1.8404,-4.8821 -4.2363,-9.5746 -7,-14 -3.7787,-6.0506 -8.1854,-11.7361 -13,-17 -3.6623,-4.004 -7.6374,-7.7732 -12,-11 -10.5713,-7.8189 -21.968,-14.6972 -34,-20 -8.2975,-3.6569 -17.1583,-5.9885 -26,-8 -6.5733,-1.4954 -13.2774,-2.4986 -20,-3 -9.6399,-0.719 -19.3748,-0.8946 -29,0 z"
       fill="#ffffff"
       stroke="#000000"
       stroke-width="4.8"
       stroke-linejoin="miter"
       stroke-linecap="butt"
       stroke-miterlimit="10"
       sodipodi:nodetypes="aaaaaaaaaaaacacacaaaaaaaaaaaaaa" />
    <text
       id="bubble-text"
       x="1228.50"
       y="182.00"
       text-anchor="middle"
       dominant-baseline="middle"
       direction="rtl"
       unicode-bidi="plaintext"
       font-family="Noto Sans Hebrew, Arial, sans-serif"
       font-size="36"
       font-weight="400"
       fill="#000000"
       stroke="none"
       xml:space="preserve">
<tspan
   x="1228.50"
   y="182.00"
   id="tspan1">במה</tspan>
<tspan
   x="1228.50"
   y="230.00"
   id="tspan2">מדובר,</tspan>
<tspan
   x="1228.50"
   y="276.00"
   id="tspan3">אדוני הנשיא?</tspan>
</text>
  </g>
</svg>
