<?xml version="1.0" encoding="UTF-8" standalone="no"?>
<svg
   version="1.1"
   width="1448"
   height="1086"
   viewBox="0 0 1448 1086"
   preserveAspectRatio="xMidYMid meet"
   id="svg7"
   sodipodi:docname="panel07.svg"
   inkscape:version="1.4 (86a8ad7, 2024-10-11)"
   xmlns:inkscape="http://www.inkscape.org/namespaces/inkscape"
   xmlns:sodipodi="http://sodipodi.sourceforge.net/DTD/sodipodi-0.dtd"
   xmlns:xlink="http://www.w3.org/1999/xlink"
   xmlns="http://www.w3.org/2000/svg"
   xmlns:svg="http://www.w3.org/2000/svg">
  <defs
     id="defs7" />
  <sodipodi:namedview
     id="namedview7"
     pagecolor="#ffffff"
     bordercolor="#000000"
     borderopacity="0.25"
     inkscape:showpageshadow="2"
     inkscape:pageopacity="0.0"
     inkscape:pagecheckerboard="0"
     inkscape:deskcolor="#d1d1d1"
     inkscape:zoom="1"
     inkscape:cx="951.5"
     inkscape:cy="462.5"
     inkscape:window-width="1920"
     inkscape:window-height="1017"
     inkscape:window-x="1432"
     inkscape:window-y="879"
     inkscape:window-maximized="1"
     inkscape:current-layer="text-bubble-layer" />
  <image
     id="raster-base"
     x="0"
     y="0"
     width="1448"
     height="1086"
     preserveAspectRatio="none"
     href="panel07.jpg"
     xlink:href="panel07.jpg" />
  <g
     id="text-bubble-layer"
     inkscape:groupmode="layer"
     inkscape:label="Text bubble">
    <path
       id="speech-bubble-outline"
       d="m 525,216 c -6.2886,11.101 -10.4093,23.5074 -13,36 -3.2552,15.6972 -3.8231,31.9899 -3,48 0.6246,12.1495 2.6905,24.2933 6,36 3.1321,11.0791 7.5122,21.8788 13,32 4.4516,8.2101 9.8,16.0156 16,23 7.994,9.0053 17.1035,17.14 27,24 11.1516,7.73 23.4689,13.7959 36,19 14.5078,6.025 29.6358,10.7262 45,14 33.1591,7.0655 67.1455,10.1785 101,12 30.957,1.6656 62.0723,1.1415 93,-1 26.1502,-1.8107 78,-10 78,-10 0,0 14.79826,9.79267 23,13 10.84322,4.24029 34,8 34,8 0,0 -14.8153,-11.40563 -20,-19 -2.81525,-4.12368 -5.65345,-13.87126 -5.65345,-13.87126 0,0 24.6888,-10.54361 35.65345,-18.12874 8.53778,-5.90627 16.0968,-13.2461 23,-21 6.8281,-7.6695 13.1437,-15.9523 18,-25 7.5833,-14.1282 13.2275,-29.4154 17,-45 2.7627,-11.413 3.82,-23.2588 4,-35 0.1845,-12.0402 -0.7578,-24.169 -3,-36 -1.944,-10.2577 -4.9413,-20.3809 -9,-30 -4.0025,-9.4858 -8.5434,-18.9805 -15,-27 -11.7007,-14.5329 -25.8966,-27.577 -42,-37 -18.2886,-10.7017 -39.336,-16.3096 -60,-21 -38.5897,-8.7592 -78.4882,-10.8301 -118,-13 -26.6265,-1.4623 -53.3705,-1.4082 -80,0 -22.0925,1.1683 -44.1922,3.2765 -66,7 -12.8314,2.1909 -25.6051,5.0236 -38,9 -15.089,4.8407 -30.0433,10.4952 -44,18 -7.8172,4.2035 -15.4603,8.9991 -22,15 -12.0445,11.0522 -22.9426,23.7767 -31,38 z"
       sodipodi:nodetypes="aaaaaaaaaaacacacaaaaaaaaaaaaaaaaa"
       fill="#ffffff"
       stroke="#000000"
       stroke-width="4.8"
       stroke-linejoin="miter"
       stroke-linecap="butt"
       stroke-miterlimit="10" />
    <text
       id="bubble-text"
       x="779.68005"
       y="299.0322"
       text-anchor="middle"
       dominant-baseline="middle"
       direction="rtl"
       unicode-bidi="plaintext"
       font-family="'Noto Sans Hebrew', Arial, sans-serif"
       font-size="27.4309px"
       font-weight="400"
       fill="#000000"
       stroke="none"
       xml:space="preserve"
       style="stroke-width:1.01596"><tspan
         x="779.68005"
         y="182.1767"
         id="tspan1"
         style="stroke-width:1.01596">השתגעת, עכשיו, עם כל המתיחות</tspan><tspan
         x="779.68005"
         y="221.12854"
         id="tspan2"
         style="stroke-width:1.01596">באירופה, להעלות את הנושא של</tspan><tspan
         x="779.68005"
         y="260.08035"
         id="tspan3"
         style="stroke-width:1.01596">חשמל מביקוע גרעיני, זה סכנת נפשות,</tspan><tspan
         x="779.68005"
         y="299.0322"
         id="tspan4"
         style="stroke-width:1.01596">הרי דיברנו על זה, אפשר לעשות עם זה</tspan><tspan
         x="779.68005"
         y="337.98401"
         id="tspan5"
         style="stroke-width:1.01596">ממש לא רק חשמל. רק כשתהיה ממשלה</tspan><tspan
         x="779.68005"
         y="376.93582"
         id="tspan6"
         style="stroke-width:1.01596">עולמית חזקה, מונהגת על ידי מדענים</tspan><tspan
         x="779.68005"
         y="415.88766"
         id="tspan7"
         style="stroke-width:1.01596">יהיה אפשר לדבר על זה.</tspan></text>
  </g>
</svg>
