<?xml version="1.0" encoding="UTF-8" standalone="no"?>
<svg
   version="1.1"
   width="1448"
   height="1086"
   viewBox="0 0 1448 1086"
   preserveAspectRatio="xMidYMid meet"
   id="svg2"
   sodipodi:docname="panel03.svg"
   inkscape:version="1.4 (86a8ad7, 2024-10-11)"
   xmlns:inkscape="http://www.inkscape.org/namespaces/inkscape"
   xmlns:sodipodi="http://sodipodi.sourceforge.net/DTD/sodipodi-0.dtd"
   xmlns:xlink="http://www.w3.org/1999/xlink"
   xmlns="http://www.w3.org/2000/svg"
   xmlns:svg="http://www.w3.org/2000/svg">
  <defs
     id="defs2" />
  <sodipodi:namedview
     id="namedview2"
     pagecolor="#ffffff"
     bordercolor="#000000"
     borderopacity="0.25"
     inkscape:showpageshadow="2"
     inkscape:pageopacity="0.0"
     inkscape:pagecheckerboard="0"
     inkscape:deskcolor="#d1d1d1"
     inkscape:zoom="6.3986624"
     inkscape:cx="1083.7421"
     inkscape:cy="345.30654"
     inkscape:window-width="1920"
     inkscape:window-height="1017"
     inkscape:window-x="1432"
     inkscape:window-y="879"
     inkscape:window-maximized="1"
     inkscape:current-layer="text-bubble-layer" />
  <image
     id="raster-base"
     x="0"
     y="0"
     width="1448"
     height="1086"
     preserveAspectRatio="none"
     href="panel03.webp"
     xlink:href="panel03.jpg" />
  <g
     id="text-bubble-layer"
     inkscape:groupmode="layer"
     inkscape:label="Text bubble">
    <path
       id="speech-bubble-outline"
       d="m 947,218 c -3.804,4.0383 -6.9565,8.8423 -9,14 -3.3714,8.5095 -5.0654,17.8472 -5,27 0.0486,6.7985 1.3362,13.7449 4,20 3.6592,8.5926 8.8007,17.0508 16,23 12.6535,10.4563 28.99926,16.33658 45,20 21.6287,4.95196 66.5312,2.12461 66.5312,2.12461 10.5734,6.62478 19.063,14.91658 25.4688,24.87539 l -1,-25 c 0,0 23.6142,-1.1273 35,-4 10.4431,-2.6349 21.0085,-6.071 30,-12 6.2968,-4.1521 11.7156,-9.7926 16,-16 4.1527,-6.0166 7.4658,-12.8522 9,-20 2.0286,-9.4514 2.0286,-19.5486 0,-29 -1.5342,-7.1478 -4.5789,-14.1778 -9,-20 -6.2977,-8.2936 -14.9719,-14.8098 -24,-20 -10.1473,-5.8336 -21.6256,-9.2389 -33,-12 -12.7365,-3.0917 -25.9081,-4.383 -39,-5 -19.9889,-0.9421 -40.2068,-0.9453 -60,2 -13.9959,2.0826 -28.2378,4.8886 -41,11 -9.6814,4.6361 -18.6399,11.1865 -26,19 z"
       sodipodi:nodetypes="aaaaaacccaaaaaaaaaaaa"
       fill="#ffffff"
       stroke="#000000"
       stroke-width="4.8"
       stroke-linejoin="miter"
       stroke-linecap="butt"
       stroke-miterlimit="10" />
    <text
       id="bubble-text"
       x="1048"
       y="258"
       text-anchor="middle"
       dominant-baseline="middle"
       direction="rtl"
       unicode-bidi="plaintext"
       font-family="'Noto Sans Hebrew', Arial, sans-serif"
       font-size="41px"
       font-weight="400"
       fill="#000000"
       stroke="none"
       xml:space="preserve"><tspan
   x="1048"
   y="232.99001"
   id="tspan1">אנחנו</tspan><tspan
   x="1048"
   y="283.01001"
   id="tspan2">מדברים...</tspan></text>
  </g>
</svg>
