<?xml version="1.0" encoding="UTF-8" standalone="no"?>
<svg
   version="1.1"
   width="1448"
   height="1086"
   viewBox="0 0 1448 1086"
   preserveAspectRatio="xMidYMid meet"
   id="svg3"
   sodipodi:docname="panel35.svg"
   inkscape:version="1.4 (86a8ad7, 2024-10-11)"
   xmlns:inkscape="http://www.inkscape.org/namespaces/inkscape"
   xmlns:sodipodi="http://sodipodi.sourceforge.net/DTD/sodipodi-0.dtd"
   xmlns:xlink="http://www.w3.org/1999/xlink"
   xmlns="http://www.w3.org/2000/svg"
   xmlns:svg="http://www.w3.org/2000/svg">
  <defs
     id="defs3" />
  <sodipodi:namedview
     id="namedview3"
     pagecolor="#ffffff"
     bordercolor="#000000"
     borderopacity="0.25"
     inkscape:showpageshadow="2"
     inkscape:pageopacity="0.0"
     inkscape:pagecheckerboard="0"
     inkscape:deskcolor="#d1d1d1"
     inkscape:zoom="10.866667"
     inkscape:cx="470.01534"
     inkscape:cy="288.54294"
     inkscape:window-width="1920"
     inkscape:window-height="1017"
     inkscape:window-x="1432"
     inkscape:window-y="879"
     inkscape:window-maximized="1"
     inkscape:current-layer="text-bubble-layer" />
  <image
     id="raster-base"
     x="0"
     y="0"
     width="1448"
     height="1086"
     preserveAspectRatio="none"
     href="panel35.webp"
     xlink:href="panel35.webp" />
  <g
     id="text-bubble-layer"
     inkscape:groupmode="layer"
     inkscape:label="Text bubble">
    <path
       id="speech-bubble-outline"
       d="m 554,80 -1,11 c 0,0 -21.5789,2.9703 -32,6 -13.7895,4.009 -27.3257,9.2484 -40,16 -7.8336,4.1729 -15.1655,9.3372 -22,15 -4.7189,3.9099 -9.0519,8.313 -13,13 -4.4686,5.305 -8.6586,10.9217 -12,17 -2.9522,5.3703 -5.6293,11.027 -7,17 -2.4648,10.741 -3.5652,22.0915 -2,33 4.18496,15.66899 10.83098,30.36137 21,43 l 14,14 c 0,0 0.15743,12.36174 -2,18 -6.14847,16.06849 -30,42 -30,42 0,0 20.4405,-9.202 30,-15 10.2047,-6.1893 29,-21 29,-21 0,0 9.421,-0.9004 14,0 7.7744,1.5287 14.4461,6.6093 22,9 11.4098,3.6111 23.1497,6.3288 35,8 17.8511,2.5175 35.9829,3.6205 54,3 16.115,-0.555 32.2634,-2.4845 48,-6 15.74,-3.5162 31.3405,-8.2761 46,-15 11.6914,-5.3625 22.8793,-12.0617 33,-20 5.1929,-4.0731 9.9219,-8.8111 14,-14 5.546,-7.0567 10.4232,-14.7682 14,-23 3.4487,-7.937 5.8224,-16.4267 7,-25 0.9072,-6.6047 0.9812,-13.4059 0,-20 -1.1795,-7.9266 -3.4577,-15.8115 -7,-23 -5.0698,-10.2885 -12.1377,-19.649 -20,-28 -6.1735,-6.5573 -13.3526,-12.2431 -21,-17 -12.1577,-7.5625 -25.4956,-13.2428 -39,-18 -11.6666,-4.1098 -23.8089,-6.9078 -36,-9 -13.8607,-2.3788 -27.9423,-3.6027 -42,-4 -17.3392,-0.49 -52,2 -52,2 l -1,-9 z"
       fill="#ffffff"
       stroke="#000000"
       stroke-width="4.8"
       stroke-linejoin="miter"
       stroke-linecap="butt"
       stroke-miterlimit="10"
       sodipodi:nodetypes="ccaaaaaaaccacacaaaaaaaaaaaaaaaaaccc" />
    <text
       id="bubble-text"
       x="584"
       y="154"
       text-anchor="middle"
       dominant-baseline="middle"
       direction="rtl"
       unicode-bidi="plaintext"
       font-family="'Noto Sans Hebrew', Arial, sans-serif"
       font-size="38px"
       font-weight="400"
       fill="#000000"
       stroke="none"
       xml:space="preserve"><tspan
   x="584"
   y="154"
   id="tspan1">שלום, פרופסור</tspan><tspan
   x="584"
   y="200"
   id="tspan2">אופנהיימר, מדבר</tspan><tspan
   x="584"
   y="246"
   id="tspan3">הנשיא רוזוולט.</tspan></text>
  </g>
</svg>
