<?xml version="1.0" encoding="UTF-8" standalone="no"?>
<svg
   version="1.1"
   width="1448"
   height="1086"
   viewBox="0 0 1448 1086"
   preserveAspectRatio="xMidYMid meet"
   id="svg3"
   sodipodi:docname="panel11.svg"
   inkscape:version="1.4 (86a8ad7, 2024-10-11)"
   xmlns:inkscape="http://www.inkscape.org/namespaces/inkscape"
   xmlns:sodipodi="http://sodipodi.sourceforge.net/DTD/sodipodi-0.dtd"
   xmlns:xlink="http://www.w3.org/1999/xlink"
   xmlns="http://www.w3.org/2000/svg"
   xmlns:svg="http://www.w3.org/2000/svg">
  <defs
     id="defs3" />
  <sodipodi:namedview
     id="namedview3"
     pagecolor="#ffffff"
     bordercolor="#000000"
     borderopacity="0.25"
     inkscape:showpageshadow="2"
     inkscape:pageopacity="0.0"
     inkscape:pagecheckerboard="0"
     inkscape:deskcolor="#d1d1d1"
     inkscape:zoom="0.89502762"
     inkscape:cx="724.55864"
     inkscape:cy="543.55864"
     inkscape:window-width="1920"
     inkscape:window-height="1017"
     inkscape:window-x="1432"
     inkscape:window-y="879"
     inkscape:window-maximized="1"
     inkscape:current-layer="text-bubble-layer" />
  <image
     id="raster-base"
     x="0"
     y="0"
     width="1448"
     height="1086"
     preserveAspectRatio="none"
     href="panel11.png"
     xlink:href="panel11.png" />
  <g
     id="text-bubble-layer"
     inkscape:groupmode="layer"
     inkscape:label="Text bubble">
    <path
       id="speech-bubble-outline"
       d="M 1014,176 C 1021.6338,175.2905 1029.3546,175.4298 1037,176 C 1043.7226,176.5014 1050.4215,177.5277 1057,179 C 1063.7922,180.5201 1070.5031,182.5031 1077,185 C 1083.5415,187.514 1089.9483,190.4662 1096,194 C 1101.9898,197.4976 1107.695,201.5314 1113,206 C 1117.3265,209.6444 1121.3641,213.6663 1125,218 C 1127.6152,221.1171 1130.0081,224.4521 1132,228 C 1134.8498,233.0761 1137.6897,238.328 1139,244 C 1140.8022,251.8015 1141.0255,260.059 1140,268 C 1139.4193,272.4965 1137.8141,276.8449 1136,281 C 1133.0719,287.7068 1129.5325,294.2544 1125,300 C 1119.3048,307.2195 1112.4917,313.668 1105,319 C 1096.1332,325.3107 1076,334 1076,334 C 1076,334 1076.2212,339.4279 1077,342 C 1078.296,346.2802 1083,354 1083,354 L 1082,356 C 1082,356 1071.596,350.5884 1067,347 C 1064.3991,344.9692 1060,340 1060,340 C 1060,340 1042.7098,342.4992 1034,343 C 1027.3443,343.3827 1020.6482,343.4958 1014,343 C 1007.2774,342.4986 1000.5841,341.4471 994,340 C 985.8609,338.2112 977.7291,336.1154 970,333 C 962.6708,330.0458 955.6825,326.2176 949,322 C 944.7717,319.3313 940.6488,316.4186 937,313 C 930.272,306.6965 923.924,299.7945 919,292 C 915.4932,286.449 912.7161,280.3377 911,274 C 909.4221,268.1729 908.4946,262.0157 909,256 C 909.6095,248.7455 912.0418,241.652 915,235 C 917.5556,229.2533 921.0846,223.9219 925,219 C 929.4021,213.4663 934.6242,208.5936 940,204 C 943.4468,201.0547 947.0802,198.2783 951,196 C 960.8027,190.3025 971.1843,185.4023 982,182 C 992.3524,178.7434 1003.194,177.0043 1014,176 Z"
       fill="#ffffff"
       stroke="#000000"
       stroke-width="4.8"
       stroke-linejoin="miter"
       stroke-linecap="butt"
       stroke-miterlimit="10"
       sodipodi:nodetypes="aaaaaaaaaaaaacaccacaaaaaaaaaaaaaa" />
    <text
       id="bubble-text"
       x="1021.63"
       y="254.32816"
       text-anchor="middle"
       dominant-baseline="middle"
       direction="rtl"
       unicode-bidi="plaintext"
       font-family="'Noto Sans Hebrew', Arial, sans-serif"
       font-size="28.87px"
       font-weight="400"
       fill="#000000"
       stroke="none"
       xml:space="preserve"><tspan
   x="1021.63"
   y="220.36815"
   id="tspan1">כן.</tspan><tspan
   x="1021.63"
   y="254.32816"
   id="tspan2">נאצי כן,</tspan><tspan
   x="1021.63"
   y="288.28818"
   id="tspan3">טיפש ממש לא.</tspan></text>
  </g>
</svg>
