<?xml version="1.0" encoding="UTF-8" standalone="no"?>
<svg
   version="1.1"
   width="1448"
   height="1086"
   viewBox="0 0 1448 1086"
   preserveAspectRatio="xMidYMid meet"
   id="svg5"
   sodipodi:docname="panel56.svg"
   inkscape:version="1.4 (86a8ad7, 2024-10-11)"
   xmlns:inkscape="http://www.inkscape.org/namespaces/inkscape"
   xmlns:sodipodi="http://sodipodi.sourceforge.net/DTD/sodipodi-0.dtd"
   xmlns:xlink="http://www.w3.org/1999/xlink"
   xmlns="http://www.w3.org/2000/svg"
   xmlns:svg="http://www.w3.org/2000/svg">
  <defs
     id="defs5" />
  <sodipodi:namedview
     id="namedview5"
     pagecolor="#ffffff"
     bordercolor="#000000"
     borderopacity="0.25"
     inkscape:showpageshadow="2"
     inkscape:pageopacity="0.0"
     inkscape:pagecheckerboard="0"
     inkscape:deskcolor="#d1d1d1"
     inkscape:zoom="1"
     inkscape:cx="333"
     inkscape:cy="309.5"
     inkscape:window-width="1920"
     inkscape:window-height="1017"
     inkscape:window-x="1432"
     inkscape:window-y="879"
     inkscape:window-maximized="1"
     inkscape:current-layer="text-bubble-layer" />
  <image
     id="raster-base"
     x="0"
     y="0"
     width="1448"
     height="1086"
     preserveAspectRatio="none"
     href="panel56.jpg"
     xlink:href="panel56.jpg" />
  <g
     id="text-bubble-layer"
     inkscape:groupmode="layer"
     inkscape:label="Text bubble">
    <path
       id="speech-bubble-outline"
       d="m 474,51 c -20.7651,1.1685 -41.5332,3.3031 -62,7 -12.1723,2.1987 -24.2056,5.2729 -36,9 -8.854,2.7979 -17.6542,5.9294 -26,10 -8.7347,4.2603 -17.264,9.1179 -25,15 -7.3198,5.5656 -14.0181,12.0163 -20,19 -3.4286,4.0028 -6.437,8.3947 -9,13 -4.0653,7.3049 -7.4994,15.0228 -10,23 -2.0336,6.4874 -3.4429,13.2242 -4,20 -0.8199,9.9719 -0.767,20.1517 1,30 1.6754,9.3377 4.8319,18.4778 9,27 3.1682,6.4778 7.4282,12.4234 12,18 4.1841,5.1038 8.9181,9.7894 14,14 6.8345,5.6628 14.1664,10.8271 22,15 12.6743,6.7516 40,16 40,16 0,0 -2.97561,16.98143 -6,25 -6.10275,16.18024 -9.44873,28.66399 -24.22313,45.87629 0,0 17.49969,-8.88284 25.48598,-14.52469 C 384.15932,337.06676 392.33574,329.73986 400,322 c 7.98823,-8.06703 21.58576,-27.19652 22,-26 0,0 44.6056,4.7805 67,5 30.3776,0.2977 60.8623,-1.1781 91,-5 18.5479,-2.3522 36.9662,-6.0665 55,-11 6.8129,-1.8638 13.5168,-4.1969 20,-7 8.6213,-3.7276 17.073,-7.9616 25,-13 6.0205,-3.8266 11.8656,-8.0476 17,-13 5.2836,-5.0963 10.1307,-10.7616 14,-17 5.5837,-9.0025 9.8892,-18.8735 13,-29 1.6897,-5.5005 2.5937,-11.2601 3,-17 0.7066,-9.9806 0.5527,-20.1157 -1,-30 -1.1297,-7.1919 -3.2821,-14.2463 -6,-21 -2.3937,-5.9482 -5.3502,-11.7284 -9,-17 -6.5866,-9.5134 -14.2801,-18.394 -23,-26 -4.5286,-3.9501 -9.7763,-7.0295 -15,-10 -7.3875,-4.2009 -15.0627,-7.9632 -23,-11 -13.2998,-5.0885 -27.0992,-8.9106 -41,-12 -17.1196,-3.8047 -34.5761,-6.0094 -52,-8 -13.2844,-1.5177 -26.6386,-2.4996 -40,-3 -14.3233,-0.5364 -28.6893,-0.8053 -43,0 z"
       fill="#ffffff"
       stroke="#000000"
       stroke-width="4.8"
       stroke-linejoin="miter"
       stroke-linecap="butt"
       stroke-miterlimit="10"
       sodipodi:nodetypes="aaaaaaaaaaaaaacacaacaaaaaaaaaaaaaaaaaaa" />
    <text
       id="bubble-text"
       x="496.70001"
       y="117"
       text-anchor="middle"
       dominant-baseline="middle"
       direction="rtl"
       unicode-bidi="plaintext"
       font-family="'Noto Sans Hebrew', Arial, sans-serif"
       font-size="28.5px"
       font-weight="400"
       fill="#000000"
       stroke="none"
       xml:space="preserve"
       style="font-weight:400;font-family:'Noto Sans Hebrew', Arial, sans-serif;direction:rtl;dominant-baseline:middle;text-anchor:middle;fill:#000000;stroke:none"> <tspan
   x="496.70001"
   y="117"
   id="tspan1">אז זהו, על זה רציתי לדבר איתך.</tspan> <tspan
   x="496.70001"
   y="151.5"
   id="tspan2">אני צריך את עזרתך בפרויקט לאומי</tspan> <tspan
   x="496.70001"
   y="186"
   id="tspan3">בעל חשיבות עליונה. אני לא יכול</tspan> <tspan
   x="496.70001"
   y="220.5"
   id="tspan4">להגיד לך בשלב זה במה מדובר,</tspan> <tspan
   x="496.70001"
   y="255"
   id="tspan5">אבל...</tspan></text>
  </g>
</svg>
