<?xml version="1.0" encoding="UTF-8" standalone="no"?>
<svg
   version="1.1"
   width="1448"
   height="1086"
   viewBox="0 0 1448 1086"
   preserveAspectRatio="xMidYMid meet"
   id="svg1"
   sodipodi:docname="panel85_simple_gates_03.svg"
   inkscape:version="1.4 (86a8ad7, 2024-10-11)"
   xmlns:inkscape="http://www.inkscape.org/namespaces/inkscape"
   xmlns:sodipodi="http://sodipodi.sourceforge.net/DTD/sodipodi-0.dtd"
   xmlns:xlink="http://www.w3.org/1999/xlink"
   xmlns="http://www.w3.org/2000/svg"
   xmlns:svg="http://www.w3.org/2000/svg">
  <defs
     id="defs1" />
  <sodipodi:namedview
     id="namedview1"
     pagecolor="#ffffff"
     bordercolor="#000000"
     borderopacity="0.25"
     inkscape:showpageshadow="2"
     inkscape:pageopacity="0.0"
     inkscape:pagecheckerboard="0"
     inkscape:deskcolor="#d1d1d1"
     inkscape:zoom="9.3037745"
     inkscape:cx="560.36397"
     inkscape:cy="233.82983"
     inkscape:window-width="1920"
     inkscape:window-height="1017"
     inkscape:window-x="1432"
     inkscape:window-y="879"
     inkscape:window-maximized="1"
     inkscape:current-layer="text-bubble-layer" />
  <image
     id="raster-base"
     x="0"
     y="0"
     width="1448"
     height="1086"
     preserveAspectRatio="none"
     href="panel85_simple_gates_03.webp"
     xlink:href="panel85_simple_gates_03.jpg" />
  <g
     id="text-bubble-layer"
     inkscape:groupmode="layer"
     inkscape:label="Text bubble">
    <path
       id="speech-bubble-outline"
       d="m 723,132 c -22.3501,0.5001 -44.7376,0.9601 -67,3 -12.0646,1.1055 -24.2566,2.0216 -36,5 -8.2818,2.1005 -16.3956,5.1048 -24,9 -2.1394,1.0959 -4.1719,2.4392 -6,4 -4.485,3.8292 -8.7243,8.0962 -12,13 -2.651,3.9686 -4.4736,8.4781 -6,13 -0.9829,2.9118 -1.6647,5.9452 -2,9 -0.9821,8.9463 -1.3383,18.1001 0,27 0.6742,4.4834 1.92655,8.96808 4,13 1.55427,3.02234 6.18232,8.10748 6.18232,8.10748 0,0 -0.54377,2.69624 -1.18232,3.89252 -2.2309,4.17942 -5.23677,8.12206 -9,11 -5.52912,4.22841 -19.06124,8.52788 -19.06124,8.52788 0,0 18.70022,3.20898 28.06124,2.47212 2.74026,-0.2157 5.51679,-0.82135 8,-2 3.38229,-1.6054 9,-6.71973 9,-6.71973 0,0 12.46619,5.70925 19,7.71973 4.56154,1.40361 9.2746,2.3307 14,3 23.4908,3.3271 47.2894,4.1662 71,5 42.3072,1.4878 84.6799,1.0573 127,0 13.3458,-0.3334 26.6985,-0.8627 40,-2 11.0402,-0.9439 22.1478,-1.7624 33,-4 5.785,-1.1928 11.5035,-2.8374 17,-5 4.1616,-1.6374 8.3205,-3.4581 12,-6 4.8521,-3.3519 9.1708,-7.515 13,-12 1.5608,-1.8281 2.9439,-3.8407 4,-6 3.2418,-6.6284 5.9396,-13.6979 7,-21 1.438,-9.9017 1.2398,-20.2484 -1,-30 -1.4698,-6.3993 -4.2828,-12.5876 -8,-18 -3.7363,-5.4402 -8.6053,-10.1983 -14,-14 -5.7284,-4.0369 -12.3476,-6.7963 -19,-9 -8.0673,-2.6724 -16.5728,-3.9023 -25,-5 -26.8248,-3.494 -53.9615,-4.1663 -81,-5 -27.3203,-0.8424 -54.6735,-0.6115 -82,0 z"
       fill="#ffffff"
       stroke="#000000"
       stroke-width="4.8"
       stroke-linejoin="miter"
       stroke-linecap="butt"
       stroke-miterlimit="10"
       sodipodi:nodetypes="aaaaaaaaaacaacaacaaaaaaaaaaaaaaaaaa" />
    <text
       id="bubble-text"
       x="758"
       y="203"
       text-anchor="middle"
       dominant-baseline="middle"
       direction="rtl"
       unicode-bidi="plaintext"
       font-family="'Noto Sans Hebrew', Arial, sans-serif"
       font-size="34"
       font-weight="400"
       fill="#000000"
       stroke="none"
       xml:space="preserve"
       style="font-family:'Noto Sans Hebrew', Arial, sans-serif;font-weight:400;fill:#000000;stroke:none;text-anchor:middle;direction:rtl;unicode-bidi:plaintext;dominant-baseline:middle">
<tspan
   x="758"
   y="203"
   id="tspan1">תתחיל מהרשימה הזאת.</tspan>
</text>
  </g>
</svg>
