<?xml version="1.0" encoding="UTF-8"?>
<svg xmlns:inkscape="http://www.inkscape.org/namespaces/inkscape"
     xmlns:sodipodi="http://sodipodi.sourceforge.net/DTD/sodipodi-0.dtd" xmlns="http://www.w3.org/2000/svg"
     xmlns:xlink="http://www.w3.org/1999/xlink"
     version="1.1"
     width="1448"
     height="1086"
     viewBox="0 0 1448 1086"
     preserveAspectRatio="xMidYMid meet">
  <image id="raster-base"
         x="0"
         y="0"
         width="1448"
         height="1086"
         preserveAspectRatio="none"
         href="panel20.webp"
         xlink:href="panel20.webp" />
  <g id="text-bubble-layer" inkscape:groupmode="layer" inkscape:label="Text bubble">
    <path id="speech-bubble-outline"
          d="M 225,113 C 263.5721,110.297 302.4081,110.5974 341,113 C 357.0934,114.0019 373.2059,115.7524 389,119 C 404.2934,122.1446 419.5548,126.0743 434,132 C 446.2816,137.0382 458.2508,143.2104 469,151 C 475.6827,155.8427 481.9865,161.4444 487,168 C 493.4322,176.4106 498.7893,185.9103 502,196 C 503.6298,201.1218 504.1352,206.6269 504,212 C 503.8552,217.7524 502.933,223.5801 501,229 C 497.7916,237.996 492.8792,246.4729 487,254 C 482.2099,260.1327 476.1513,265.2337 470,270 C 464.0788,274.588 457.672,278.5948 451,282 C 438.2091,288.5281 424.8377,294.1608 411,298 C 386.9207,304.6806 361.9082,307.9935 337,310 C 309.7549,312.1947 282.3072,311.1954 255,310 C 235.9453,309.1659 216.8456,307.9364 198,305 C 174.0291,301.265 127,289 127,289 C 127,289 91.4616,305.5234 73,312 C 58.958,316.9261 30,324 30,324 C 30,324 54.4062,310.6539 66,303 C 78.1288,294.9929 101,277 101,277 L 101,273 C 101,273 91.3195,267.4814 87,264 C 81.4945,259.5627 76.1838,254.7005 72,249 C 66.8835,242.0287 62.2088,234.3606 60,226 C 57.6145,216.9705 57.1861,207.1614 59,198 C 60.5645,190.098 64.5705,182.7282 69,176 C 74.4497,167.7221 81.5925,160.5841 89,154 C 93.2864,150.1901 97.9822,146.7767 103,144 C 119.0861,135.0984 136.2583,127.8199 154,123 C 177.0643,116.7342 201.1582,114.6708 225,113 Z"
          fill="#ffffff"
          stroke="#000000"
          stroke-width="4.8"
          stroke-linejoin="miter"
          stroke-linecap="butt"
          stroke-miterlimit="10"
          sodipodi:nodetypes="aaaaaaaaaaaaaaaacacaccaaaaaaaa"
          />
  <text id="bubble-text"
        x="276.56" y="225.30"
        text-anchor="middle"
        dominant-baseline="middle"
        direction="rtl"
        unicode-bidi="plaintext"
        font-family="Noto Sans Hebrew, Arial, sans-serif"
        font-size="48.00"
        font-weight="400"
        fill="#000000"
        stroke="none"
        xml:space="preserve">
<tspan x="276.56" y="195.80">שלום, מדברים</tspan>
<tspan x="276.56" y="254.80">מלשכת הנשיא.</tspan>
</text>
  </g>
</svg>
