<?xml version="1.0" encoding="UTF-8" standalone="no"?>
<svg
   version="1.1"
   width="1448"
   height="1086"
   viewBox="0 0 1448 1086"
   preserveAspectRatio="xMidYMid meet"
   id="svg2"
   sodipodi:docname="panel25.svg"
   inkscape:version="1.4 (86a8ad7, 2024-10-11)"
   xmlns:inkscape="http://www.inkscape.org/namespaces/inkscape"
   xmlns:sodipodi="http://sodipodi.sourceforge.net/DTD/sodipodi-0.dtd"
   xmlns:xlink="http://www.w3.org/1999/xlink"
   xmlns="http://www.w3.org/2000/svg"
   xmlns:svg="http://www.w3.org/2000/svg">
  <defs
     id="defs2" />
  <sodipodi:namedview
     id="namedview2"
     pagecolor="#ffffff"
     bordercolor="#000000"
     borderopacity="0.25"
     inkscape:showpageshadow="2"
     inkscape:pageopacity="0.0"
     inkscape:pagecheckerboard="0"
     inkscape:deskcolor="#d1d1d1"
     inkscape:zoom="0.75046041"
     inkscape:cx="724.22209"
     inkscape:cy="543"
     inkscape:window-width="1920"
     inkscape:window-height="1017"
     inkscape:window-x="1432"
     inkscape:window-y="879"
     inkscape:window-maximized="1"
     inkscape:current-layer="text-bubble-layer" />
  <image
     id="raster-base"
     x="0"
     y="0"
     width="1448"
     height="1086"
     preserveAspectRatio="none"
     href="panel25.webp"
     xlink:href="panel25.jpg" />
  <g
     id="text-bubble-layer"
     inkscape:groupmode="layer"
     inkscape:label="Text bubble">
    <path
       id="speech-bubble-outline"
       d="M 617,246 C 644.8992,243.626 673.0926,243.7243 701,246 C 723.5575,247.8394 746.0541,251.4684 768,257 C 778.9372,259.7568 789.6412,263.537 800,268 C 807.2573,271.1267 814.3547,274.7239 821,279 C 827.3921,283.1132 833.5683,287.6826 839,293 C 843.9105,297.8072 848.4236,303.1321 852,309 C 855.0297,313.9709 857.6504,319.3372 859,325 C 860.3931,330.8455 860.6152,337.0223 860,343 C 859.4703,348.1475 858.0176,353.2348 856,358 C 853.7266,363.3695 850.5087,368.3429 847,373 C 842.8845,378.4626 838.1696,383.522 833,388 C 825.9408,394.1148 810,404 810,404 C 810,404 811.0697,414.2805 813,419 C 816.9199,428.5842 830,445 830,445 L 827,446 C 827,446 806.2509,439.5154 797,434 C 790.2916,430.0004 779,419 779,419 C 779,419 733.9409,429.4958 711,432 C 687.795,434.5331 664.3296,434.7853 641,434 C 623.5966,433.4142 606.1286,432.1356 589,429 C 570.3077,425.5782 551.8309,420.5704 534,414 C 522.247,409.6692 510.5382,404.7702 500,398 C 490.4484,391.8636 481.0152,384.9261 474,376 C 467.552,367.7956 462.8552,358.0368 460,348 C 458.9926,344.4587 458.7417,340.6727 459,337 C 459.4084,331.1929 460.7877,325.3847 463,320 C 465.6722,313.4959 469.5199,307.4197 474,302 C 480.3144,294.3612 487.9396,287.7665 496,282 C 504.9791,275.5763 514.9485,270.5669 525,266 C 532.1042,262.7722 539.4577,260.0006 547,258 C 569.8824,251.9305 593.4115,248.0072 617,246 Z"
       fill="#ffffff"
       stroke="#000000"
       stroke-width="4.8"
       stroke-linejoin="miter"
       stroke-linecap="butt"
       stroke-miterlimit="10"
       sodipodi:nodetypes="aaaaaaaaaaaacaccacaaaaaaaaaaaaa" />
    <text
       id="bubble-text"
       x="649.58002"
       y="340.10999"
       text-anchor="middle"
       dominant-baseline="middle"
       direction="rtl"
       unicode-bidi="plaintext"
       font-family="'Noto Sans Hebrew', Arial, sans-serif"
       font-size="33.08px"
       font-weight="400"
       fill="#000000"
       stroke="none"
       xml:space="preserve"> <tspan
   x="649.58002"
   y="318.35001"
   id="tspan1">אהה... אה, סליחה.</tspan> <tspan
   x="649.58002"
   y="361.87"
   id="tspan2">במה אני יכולה לעזור?</tspan></text>
  </g>
</svg>
