<?xml version="1.0" encoding="UTF-8" standalone="no"?>
<svg
   version="1.1"
   width="1448"
   height="1086"
   viewBox="0 0 1448 1086"
   preserveAspectRatio="xMidYMid meet"
   id="svg1"
   sodipodi:docname="panel29.svg"
   inkscape:version="1.4 (86a8ad7, 2024-10-11)"
   xmlns:inkscape="http://www.inkscape.org/namespaces/inkscape"
   xmlns:sodipodi="http://sodipodi.sourceforge.net/DTD/sodipodi-0.dtd"
   xmlns:xlink="http://www.w3.org/1999/xlink"
   xmlns="http://www.w3.org/2000/svg"
   xmlns:svg="http://www.w3.org/2000/svg">
  <defs
     id="defs1" />
  <sodipodi:namedview
     id="namedview1"
     pagecolor="#ffffff"
     bordercolor="#000000"
     borderopacity="0.25"
     inkscape:showpageshadow="2"
     inkscape:pageopacity="0.0"
     inkscape:pagecheckerboard="0"
     inkscape:deskcolor="#d1d1d1"
     inkscape:zoom="3.2438379"
     inkscape:cx="479.83285"
     inkscape:cy="254.48251"
     inkscape:window-width="1920"
     inkscape:window-height="1017"
     inkscape:window-x="1432"
     inkscape:window-y="879"
     inkscape:window-maximized="1"
     inkscape:current-layer="text-bubble-layer" />
  <image
     id="raster-base"
     x="0"
     y="0"
     width="1448"
     height="1086"
     preserveAspectRatio="none"
     href="panel29.png"
     xlink:href="panel29.png" />
  <g
     id="text-bubble-layer"
     inkscape:groupmode="layer"
     inkscape:label="Text bubble">
    <path
       id="speech-bubble-outline"
       d="m 508,160 c -10.0454,0.2999 -20.1149,1.1876 -30,3 -8.8281,1.6186 -17.6106,3.8104 -26,7 -6.2703,2.384 -12.4452,5.2392 -18,9 -6.6475,4.5006 -12.9141,9.7888 -18,16 -2.9338,3.5829 -5.1551,7.7526 -7,12 -1.3865,3.192 -2.4946,6.5568 -3,10 -0.9197,6.2662 -1.13,12.7683 0,19 1.0163,5.6046 3.0672,11.1171 6,16 3.8911,6.4785 9.20336,12.15128 15,17 4.74,3.96487 15.84966,9.61655 15.84966,9.61655 0,0 -0.64487,7.73287 -1.84966,11.38345 -3.6444,11.04267 -11.715,20.1898 -16,31 -0.8942,2.2559 -2,7 -2,7 h 2 l 42.54138,-39.77449 c 0,0 10.95612,1.95214 16.45862,2.77449 7.64668,1.14281 15.2737,2.7132 23,3 12.0102,0.4458 24.1248,-0.1495 36,-2 9.1867,-1.4316 18.2941,-3.7364 27,-7 6.9793,-2.6164 13.8203,-5.8326 20,-10 6.2656,-4.2253 12.1656,-9.1914 17,-15 2.4867,-2.9879 6,-10 6,-10 6.96519,-17.27197 6.20283,-33.19573 0,-48 0,0 -3.7141,-6.2117 -6,-9 -2.3909,-2.9165 -5.0437,-5.6586 -8,-8 -6.4537,-5.1115 -13.5754,-9.4428 -21,-13 -5.4194,-2.5965 -11.1896,-4.4668 -17,-6 -9.1672,-2.4191 -18.5746,-3.9748 -28,-5 -8.2911,-0.9018 -16.6637,-1.2489 -25,-1 z"
       fill="#ffffff"
       stroke="#000000"
       stroke-width="4.8"
       stroke-linejoin="miter"
       stroke-linecap="butt"
       stroke-miterlimit="10"
       sodipodi:nodetypes="aaaaaaaaaacaacccaaaaaaccaaaaaa" />
    <text
       id="bubble-text"
       x="507.08347"
       y="231.77455"
       text-anchor="middle"
       dominant-baseline="middle"
       direction="rtl"
       unicode-bidi="plaintext"
       font-family="'Noto Sans Hebrew', Arial, sans-serif"
       font-size="63.3029px"
       font-weight="400"
       fill="#000000"
       stroke="none"
       xml:space="preserve"
       style="stroke-width:1.66587"><tspan
   x="507.08347"
   y="231.77455"
   id="tspan1"
   style="stroke-width:1.66587">מה?!</tspan></text>
  </g>
</svg>
