<?xml version="1.0" encoding="UTF-8" standalone="no"?>
<svg
   version="1.1"
   width="1448"
   height="1086"
   viewBox="0 0 1448 1086"
   preserveAspectRatio="xMidYMid meet"
   id="svg1"
   sodipodi:docname="panel31.svg"
   inkscape:version="1.4 (86a8ad7, 2024-10-11)"
   xmlns:inkscape="http://www.inkscape.org/namespaces/inkscape"
   xmlns:sodipodi="http://sodipodi.sourceforge.net/DTD/sodipodi-0.dtd"
   xmlns:xlink="http://www.w3.org/1999/xlink"
   xmlns="http://www.w3.org/2000/svg"
   xmlns:svg="http://www.w3.org/2000/svg">
  <defs
     id="defs1" />
  <sodipodi:namedview
     id="namedview1"
     pagecolor="#ffffff"
     bordercolor="#000000"
     borderopacity="0.25"
     inkscape:showpageshadow="2"
     inkscape:pageopacity="0.0"
     inkscape:pagecheckerboard="0"
     inkscape:deskcolor="#d1d1d1"
     inkscape:zoom="7.5984116"
     inkscape:cx="500.23613"
     inkscape:cy="253.80304"
     inkscape:window-width="1920"
     inkscape:window-height="1017"
     inkscape:window-x="1432"
     inkscape:window-y="879"
     inkscape:window-maximized="1"
     inkscape:current-layer="text-bubble-layer" />
  <image
     id="raster-base"
     x="0"
     y="0"
     width="1448"
     height="1086"
     preserveAspectRatio="none"
     href="panel31.jpg"
     xlink:href="panel31.jpg" />
  <g
     id="text-bubble-layer"
     inkscape:groupmode="layer"
     inkscape:label="Text bubble">
    <path
       id="speech-bubble-outline"
       d="m 484,200 c -3.34832,0.10492 -7.0102,0.7526 -10,1 -4.0414,0.3345 -8.05,1.0822 -12,2 -6.7796,1.5753 -13.5873,3.2942 -20,6 -6.3239,2.6683 -12.5203,5.8667 -18,10 -3.7635,2.8388 -7.1612,6.2365 -10,10 -2.0667,2.7398 -3.7397,5.8079 -5,9 -1.0094,2.5567 -1.7881,5.2594 -2,8 -0.2838,3.6708 0.0583,7.4407 1,11 1.0302,3.8937 2.8173,7.615 5,11 1.9203,2.9779 4.3627,5.6335 7,8 3.0283,2.7175 6.4764,4.9653 10,7 4.7782,2.7592 9.8387,5.0494 15,7 5.5253,2.0882 17,5 17,5 0,0 0.4365,8.0239 0,12 -0.3353,3.0548 -1.1335,6.0515 -2,9 -1.903,6.4756 -4.1698,12.8725 -7,19 -2.5659,5.5552 -5.60887,10.9064 -9,16 -2.63274,3.95447 -8.76478,11.23835 -8.76478,11.23835 L 445,355 c 0,0 16.053,-13.9816 23,-22 5.6329,-6.5016 10.6628,-13.5711 15,-21 2.7819,-4.765 7,-15 7,-15 0,0 8.67504,0.26926 13,0 5.36445,-0.33398 10.72274,-0.98048 16,-2 6.43007,-1.24223 12.84491,-2.76309 19,-5 5.88611,-2.13915 11.75104,-4.58376 17,-8 5.54541,-3.60918 11.02453,-7.71101 15,-13 2.86759,-3.81506 4.97616,-8.3385 6,-13 1.07262,-4.88359 1.03796,-10.10892 0,-15 -0.68151,-3.21144 -2.2063,-6.25038 -4,-9 -2.70744,-4.15034 -6.29623,-7.70794 -10,-11 -2.1432,-1.90497 -4.54345,-3.52096 -7,-5 -4.46985,-2.69122 -9.1797,-5.0034 -14,-7 -4.8693,-2.0169 -9.9061,-3.6472 -15,-5 -4.9282,-1.3088 -9.936,-2.4037 -15,-3 -8.9444,-1.0532 -17.99825,-1.28207 -27,-1 z"
       fill="#ffffff"
       stroke="#000000"
       stroke-width="4.8"
       stroke-linejoin="miter"
       stroke-linecap="butt"
       stroke-miterlimit="10"
       sodipodi:nodetypes="aaaaaaaaaaaaacaaaaccaacaaaaaaaaaaaaaa" />
    <text
       id="bubble-text"
       x="494.1355"
       y="242.9635"
       text-anchor="middle"
       dominant-baseline="middle"
       direction="rtl"
       unicode-bidi="plaintext"
       font-family="'Noto Sans Hebrew', Arial, sans-serif"
       font-size="60.5764px"
       font-weight="400"
       fill="#000000"
       stroke="none"
       xml:space="preserve"
       style="stroke-width:1.4423"><tspan
   x="494.1355"
   y="242.9635"
   id="tspan1"
   style="stroke-width:1.4423">כן...</tspan></text>
  </g>
</svg>
