<?xml version="1.0" encoding="UTF-8" standalone="no"?>
<svg
   version="1.1"
   width="1448"
   height="1086"
   viewBox="0 0 1448 1086"
   preserveAspectRatio="xMidYMid meet"
   id="svg3"
   sodipodi:docname="panel53.svg"
   inkscape:version="1.4 (86a8ad7, 2024-10-11)"
   xmlns:inkscape="http://www.inkscape.org/namespaces/inkscape"
   xmlns:sodipodi="http://sodipodi.sourceforge.net/DTD/sodipodi-0.dtd"
   xmlns:xlink="http://www.w3.org/1999/xlink"
   xmlns="http://www.w3.org/2000/svg"
   xmlns:svg="http://www.w3.org/2000/svg">
  <defs
     id="defs3" />
  <sodipodi:namedview
     id="namedview3"
     pagecolor="#ffffff"
     bordercolor="#000000"
     borderopacity="0.25"
     inkscape:showpageshadow="2"
     inkscape:pageopacity="0.0"
     inkscape:pagecheckerboard="0"
     inkscape:deskcolor="#d1d1d1"
     inkscape:zoom="4.420894"
     inkscape:cx="1039.2694"
     inkscape:cy="191.70331"
     inkscape:window-width="1920"
     inkscape:window-height="1017"
     inkscape:window-x="1432"
     inkscape:window-y="879"
     inkscape:window-maximized="1"
     inkscape:current-layer="text-bubble-layer" />
  <image
     id="raster-base"
     x="0"
     y="0"
     width="1448"
     height="1086"
     preserveAspectRatio="none"
     href="panel53.png"
     xlink:href="panel53.png" />
  <g
     id="text-bubble-layer"
     inkscape:groupmode="layer"
     inkscape:label="Text bubble">
    <path
       id="speech-bubble-outline"
       d="m 991,92 c -20.3184,-0.8465 -40.78,-1.1697 -61,1 -13.5198,1.4507 -26.9861,4.0597 -40,8 -11.7306,3.5517 -23.22309,8.16216 -34,14 -5.69085,3.08272 -11.16473,6.69779 -16,11 -7.94165,7.06613 -15.2134,15.0828 -21,24 -2.598,4.0035 -4.4908,8.4723 -6,13 -1.5092,4.5277 -2.6503,9.2402 -3,14 -0.7587,10.327 -0.9787,21.0829 2,31 3.0923,10.2953 9.0317,19.8148 16,28 7.2217,8.4828 16.457,15.2517 26,21 10.8728,6.5493 22.8558,11.3082 35,15 15.575,4.7348 31.791,7.4935 48,9 20.2461,1.8817 40.7526,1.8675 61,0 14.5177,-1.339 42.8008,-8.23262 43,-8 0,0 19.044,19.80988 30,28 7.755,5.79728 16.4161,10.47532 25.019,14.75779 C 1089.0868,303.66958 1079.5982,292.82963 1074,280 c -2.4905,-5.70749 -5,-18 -5,-18 0,0 16.8483,-9.5736 24,-16 7.7459,-6.9603 14.7103,-15.0299 20,-24 3.2701,-5.5453 5.7077,-11.6933 7,-18 2.0084,-9.8019 2.2878,-20.0777 1,-30 -0.8958,-6.9023 -3.0897,-13.6775 -6,-20 -2.3197,-5.0395 -5.5186,-9.6805 -9,-14 -4.1414,-5.1385 -8.8962,-9.8159 -14,-14 -5.5766,-4.5718 -11.638,-8.6052 -18,-12 -9.2297,-4.9251 -19.0426,-8.7915 -29,-12 -11.0818,-3.5708 -22.516,-6.0833 -34,-8 -6.6085,-1.103 -13.3059,-1.7211 -20,-2 z"
       fill="#ffffff"
       stroke="#000000"
       stroke-width="4.8"
       stroke-linejoin="miter"
       stroke-linecap="butt"
       stroke-miterlimit="10"
       sodipodi:nodetypes="aaaaaaaaaaaaaacacacaaaaaaaaaaa" />
    <text
       id="bubble-text"
       x="957.5"
       y="146"
       text-anchor="middle"
       dominant-baseline="middle"
       direction="rtl"
       unicode-bidi="plaintext"
       font-family="'Noto Sans Hebrew', Arial, sans-serif"
       font-size="38px"
       font-weight="400"
       fill="#000000"
       stroke="none"
       xml:space="preserve"
       style="font-weight:400;font-family:'Noto Sans Hebrew', Arial, sans-serif;direction:rtl;dominant-baseline:middle;text-anchor:middle;fill:#000000;stroke:none"><tspan
         x="957.5"
         y="146"
         id="tspan1">שלום רוברט,</tspan><tspan
         x="957.5"
         y="188"
         id="tspan2">שנים שלא דיברנו.</tspan><tspan
         x="957.5"
         y="230"
         id="tspan3">מה שלומך?</tspan></text>
  </g>
</svg>
