<?xml version="1.0" encoding="UTF-8" standalone="no"?>
<svg
   version="1.1"
   width="1448"
   height="1086"
   viewBox="0 0 1448 1086"
   preserveAspectRatio="xMidYMid meet"
   id="svg12"
   sodipodi:docname="panel10.svg"
   inkscape:version="1.4 (86a8ad7, 2024-10-11)"
   xmlns:inkscape="http://www.inkscape.org/namespaces/inkscape"
   xmlns:sodipodi="http://sodipodi.sourceforge.net/DTD/sodipodi-0.dtd"
   xmlns:xlink="http://www.w3.org/1999/xlink"
   xmlns="http://www.w3.org/2000/svg"
   xmlns:svg="http://www.w3.org/2000/svg">
  <defs
     id="defs12" />
  <sodipodi:namedview
     id="namedview12"
     pagecolor="#ffffff"
     bordercolor="#000000"
     borderopacity="0.25"
     inkscape:showpageshadow="2"
     inkscape:pageopacity="0.0"
     inkscape:pagecheckerboard="0"
     inkscape:deskcolor="#d1d1d1"
     inkscape:zoom="1"
     inkscape:cx="150.5"
     inkscape:cy="453.5"
     inkscape:window-width="1920"
     inkscape:window-height="1017"
     inkscape:window-x="1432"
     inkscape:window-y="879"
     inkscape:window-maximized="1"
     inkscape:current-layer="text-bubble-layer" />
  <image
     id="raster-base"
     x="0"
     y="0"
     width="1448"
     height="1086"
     preserveAspectRatio="none"
     href="panel10.png"
     xlink:href="panel10.png" />
  <g
     id="text-bubble-layer"
     inkscape:groupmode="layer"
     inkscape:label="Text bubble">
    <path
       id="speech-bubble-outline"
       d="m 186,68 c -8.7602,0.3836 -17.5365,1.7071 -26,4 -14.8765,4.0304 -29.5485,9.4759 -43,17 -10.182,5.6954 -19.5781,12.9264 -28,21 -10.2598,9.8355 -19.2744,21.0704 -27,33 -6.4825,10.01 -11.9978,20.7659 -16,32 -5.6178,15.769 -9.1554,32.3621 -11,49 -6.4645,58.3094 -3.8853,117.4621 0,176 0.6681,10.0663 1.7758,20.1597 4,30 2.3938,10.5905 4.85764,21.43731 10,31 6.06524,11.27887 14.216146,21.73706 24,30 19.041801,16.08173 41.51097,29.10886 65.38142,36.27919 35.52843,10.67221 74.4983,15.39881 110.96005,8.56461 C 276.47467,530.75809 304.25383,519.29155 324,500 c 14.71527,-14.37648 21.2531,-35.5655 28,-55 4.4594,-12.8453 6.6601,-26.4688 8,-40 3.6459,-36.8199 0,-111 0,-111 0,0 22.4051,0.1223 33,-3 7.5799,-2.2338 21,-11 21,-11 0,0 -16.9687,-3.0096 -25,-6 -10.1991,-3.7976 -29,-15 -29,-15 0,0 1.7324,-26.7797 0,-40 -2.0171,-15.3926 -6.2169,-30.5932 -12,-45 -5.6686,-14.1217 -13.0535,-27.6909 -22,-40 -8.8733,-12.2083 -19.2507,-23.5273 -31,-33 -10.5919,-8.5395 -22.6088,-15.3814 -35,-21 -8.9286,-4.0486 -18.3692,-7.1672 -28,-9 -15.095,-2.8727 -30.6488,-3.6722 -46,-3 z"
       fill="#ffffff"
       stroke="#000000"
       stroke-width="4.8"
       stroke-linejoin="miter"
       stroke-linecap="butt"
       stroke-miterlimit="10"
       sodipodi:nodetypes="aaaaaaaaaaaaaaaacacacaaaaaaa" />
    <text
       id="bubble-text"
       x="196.7048"
       y="309.46204"
       text-anchor="middle"
       dominant-baseline="middle"
       direction="rtl"
       unicode-bidi="plaintext"
       font-family="'Noto Sans Hebrew', Arial, sans-serif"
       font-size="25.6967px"
       font-weight="400"
       fill="#000000"
       stroke="none"
       xml:space="preserve"
       style="stroke-width:1.1005"><tspan
         x="196.7048"
         y="140.93137"
         id="tspan1"
         style="stroke-width:1.1005">אתה יודע על מה!</tspan><tspan
         x="196.7048"
         y="171.56931"
         id="tspan2"
         style="stroke-width:1.1005">אנשים קוראים את המאמר</tspan><tspan
         x="196.7048"
         y="202.20723"
         id="tspan3"
         style="stroke-width:1.1005">שכתבתי לפני 5 שנים.</tspan><tspan
         x="196.7048"
         y="232.85619"
         id="tspan4"
         style="stroke-width:1.1005">האן ושטרסמן עשו ניסויים</tspan><tspan
         x="196.7048"
         y="263.49414"
         id="tspan5"
         style="stroke-width:1.1005">עם אורניום, שהוכיחו שהוא</tspan><tspan
         x="196.7048"
         y="294.1431"
         id="tspan6"
         style="stroke-width:1.1005">מתבקע.</tspan><tspan
         x="196.7048"
         y="324.78101"
         id="tspan7"
         style="stroke-width:1.1005">הייזנברג חושב על זה.</tspan><tspan
         x="196.7048"
         y="355.41898"
         id="tspan8"
         style="stroke-width:1.1005">נילס בור כתב לי שהייזנברג</tspan><tspan
         x="196.7048"
         y="386.06787"
         id="tspan9"
         style="stroke-width:1.1005">נפגש איתו ושאל שאלות.</tspan><tspan
         x="196.7048"
         y="416.70584"
         id="tspan10"
         style="stroke-width:1.1005">נילס כמובן נפנף אותו,</tspan><tspan
         x="196.7048"
         y="447.35474"
         id="tspan11"
         style="stroke-width:1.1005">אבל אתה יודע שהייזנברג</tspan><tspan
         x="196.7048"
         y="477.99274"
         id="tspan12"
         style="stroke-width:1.1005">לא טיפש.</tspan></text>
  </g>
</svg>
