<?xml version="1.0" encoding="UTF-8" standalone="no"?>
<svg
   version="1.1"
   width="1448"
   height="1086"
   viewBox="0 0 1448 1086"
   preserveAspectRatio="xMidYMid meet"
   id="svg2"
   sodipodi:docname="panel24.svg"
   inkscape:version="1.4 (86a8ad7, 2024-10-11)"
   xmlns:inkscape="http://www.inkscape.org/namespaces/inkscape"
   xmlns:sodipodi="http://sodipodi.sourceforge.net/DTD/sodipodi-0.dtd"
   xmlns:xlink="http://www.w3.org/1999/xlink"
   xmlns="http://www.w3.org/2000/svg"
   xmlns:svg="http://www.w3.org/2000/svg">
  <defs
     id="defs2" />
  <sodipodi:namedview
     id="namedview2"
     pagecolor="#ffffff"
     bordercolor="#000000"
     borderopacity="0.25"
     inkscape:showpageshadow="2"
     inkscape:pageopacity="0.0"
     inkscape:pagecheckerboard="0"
     inkscape:deskcolor="#d1d1d1"
     inkscape:zoom="1"
     inkscape:cx="554.5"
     inkscape:cy="566.5"
     inkscape:window-width="1920"
     inkscape:window-height="1017"
     inkscape:window-x="1432"
     inkscape:window-y="879"
     inkscape:window-maximized="1"
     inkscape:current-layer="text-bubble-layer" />
  <image
     id="raster-base"
     x="0"
     y="0"
     width="1448"
     height="1086"
     preserveAspectRatio="none"
     href="panel24.webp"
     xlink:href="panel24.jpg" />
  <g
     id="text-bubble-layer"
     inkscape:groupmode="layer"
     inkscape:label="Text bubble">
    <path
       id="speech-bubble-outline"
       d="m 503,508 c 19.6207,-1.5 39.5432,-0.942 59,2 18.7893,2.8411 37.6837,7.1734 55,15 16.0067,7.2347 31.6019,16.5564 44,29 7.3085,7.3354 13.1893,16.3719 17,26 2.1176,5.3504 3.2718,11.2522 3,17 -0.4736,10.0165 -3.1096,20.2456 -8,29 -6.4412,11.5306 -16.46,21.0406 -27,29 -13.4432,10.1518 -29.1003,17.4342 -45,23 -17.338,6.0693 -35.6948,9.4621 -54,11 -19.9409,1.6753 -40.1956,0.8686 -60,-2 -17.0429,-2.4686 -33.9378,-6.7902 -50,-13 -14.046,-5.4303 -27.8712,-12.0743 -40,-21 -8.7325,-6.4264 -23,-23 -23,-23 0,0 -125.94791,7.86807 -189,10 -53.1647,1.79761 -159.567901,2.35185 -159.567901,2.35185 L 350,614 l -6,-12 20,-3 c 0,0 2.9542,-20.3343 8,-29 7.3533,-12.6287 18.9621,-22.7149 31,-31 14.1351,-9.7285 30.6241,-15.8743 47,-21 17.1576,-5.3703 35.0739,-8.6296 53,-10 z"
       fill="#ffffff"
       stroke="#000000"
       stroke-width="4.8"
       stroke-linejoin="miter"
       stroke-linecap="butt"
       stroke-miterlimit="10"
       sodipodi:nodetypes="aaaaaaaaaaaaacaccccaaaa" />
    <text
       id="bubble-text"
       x="518"
       y="602"
       text-anchor="middle"
       dominant-baseline="middle"
       direction="rtl"
       unicode-bidi="plaintext"
       font-family="'Noto Sans Hebrew', Arial, sans-serif"
       font-size="42px"
       font-weight="400"
       fill="#000000"
       stroke="none"
       xml:space="preserve"><tspan
         x="518"
         y="576.5"
         id="tspan1">מדברים מלשכת</tspan><tspan
         x="518"
         y="627.5"
         id="tspan2">נשיא ארה״ב.</tspan></text>
  </g>
</svg>
