<?xml version="1.0" encoding="UTF-8" standalone="no"?>
<svg
   version="1.1"
   width="1448"
   height="1086"
   viewBox="0 0 1448 1086"
   preserveAspectRatio="xMidYMid meet"
   id="svg2"
   sodipodi:docname="panel36.svg"
   inkscape:version="1.4 (86a8ad7, 2024-10-11)"
   xmlns:inkscape="http://www.inkscape.org/namespaces/inkscape"
   xmlns:sodipodi="http://sodipodi.sourceforge.net/DTD/sodipodi-0.dtd"
   xmlns:xlink="http://www.w3.org/1999/xlink"
   xmlns="http://www.w3.org/2000/svg"
   xmlns:svg="http://www.w3.org/2000/svg">
  <defs
     id="defs2" />
  <sodipodi:namedview
     id="namedview2"
     pagecolor="#ffffff"
     bordercolor="#000000"
     borderopacity="0.25"
     inkscape:showpageshadow="2"
     inkscape:pageopacity="0.0"
     inkscape:pagecheckerboard="0"
     inkscape:deskcolor="#d1d1d1"
     inkscape:zoom="6.6256145"
     inkscape:cx="1285.2393"
     inkscape:cy="208.05617"
     inkscape:window-width="1920"
     inkscape:window-height="1017"
     inkscape:window-x="1432"
     inkscape:window-y="879"
     inkscape:window-maximized="1"
     inkscape:current-layer="text-bubble-layer" />
  <image
     id="raster-base"
     x="0"
     y="0"
     width="1448"
     height="1086"
     preserveAspectRatio="none"
     href="panel36.webp"
     xlink:href="panel36.jpg" />
  <g
     id="text-bubble-layer"
     inkscape:groupmode="layer"
     inkscape:label="Text bubble">
    <path
       id="speech-bubble-outline"
       d="m 1244,179 c -33.1833,2.23192 -111.8573,23.89273 -127,66 -1.505,4.1848 -2.4968,8.5813 -3,13 -0.3395,2.9807 -0.3665,6.0225 0,9 0.6717,5.4563 1.8382,10.9454 4,16 2.9456,6.8873 7.1706,13.2739 12,19 2.8912,3.4281 6.4716,6.23212 10,9 8.4874,6.65794 26.7539,18.20744 26.7539,18.20744 0,0 -0.9008,13.14479 -3.0695,19.28063 C 1159.519,360.27309 1145,381 1145,381 h 3 c 0,0 13.7386,-9.50094 20,-15 9.4002,-8.25578 26.2074,-26.86766 26.2074,-26.86766 0,0 17.0491,4.73007 25.7926,5.86766 18.8528,2.45288 49.0168,2.5184 57,2 7.7154,-0.5011 15.4194,-1.4793 23,-3 11.179,-2.2426 22.2817,-5.1117 33,-9 8.2727,-3.0011 16.4643,-6.4549 24,-11 9.3629,-5.6472 18.6527,-11.9023 26,-20 6.3392,-6.9867 11.3107,-15.3173 15,-24 1.0749,-2.5298 1.6642,-5.2719 2,-8 0.7331,-5.955 1.1346,-12.1083 0,-18 -1.3578,-7.0507 -4.4822,-13.7405 -8,-20 -2.4496,-4.3588 -5.6351,-8.3017 -9,-12 -3.3349,-3.6652 -7.0433,-7.0166 -11,-10 -6.5735,-4.9565 -13.6389,-9.3133 -21,-13 -8.9661,-4.4906 -18.4218,-8.0312 -28,-11 -8.4957,-2.6333 -17.2263,-4.5396 -26,-6 -9.5864,-1.5957 -19.2947,-2.4993 -29,-3 -7.9894,-0.4121 -16.018,-0.5369 -24,0 z"
       fill="#ffffff"
       stroke="#000000"
       stroke-width="4.8"
       stroke-linejoin="miter"
       stroke-linecap="butt"
       stroke-miterlimit="10"
       sodipodi:nodetypes="aaaaaaacaccacaaaaaaaaaaaaaaaaa" />
    <text
       id="bubble-text"
       x="1258.00"
       y="244.06"
       text-anchor="middle"
       dominant-baseline="middle"
       direction="rtl"
       unicode-bidi="plaintext"
       font-family="Noto Sans Hebrew, Arial, sans-serif"
       font-size="42"
       font-weight="400"
       fill="#000000"
       stroke="none"
       xml:space="preserve">
<tspan
   x="1258.00"
   y="244.06"
   id="tspan1">כן,</tspan>
<tspan
   x="1258.00"
   y="293.56"
   id="tspan2">אדוני הנשיא.</tspan>
</text>
  </g>
</svg>
