<?xml version="1.0" encoding="UTF-8" standalone="no"?>
<svg
   version="1.1"
   width="1448"
   height="1086"
   viewBox="0 0 1448 1086"
   preserveAspectRatio="xMidYMid meet"
   id="svg4"
   sodipodi:docname="panel50.svg"
   inkscape:version="1.4 (86a8ad7, 2024-10-11)"
   xmlns:inkscape="http://www.inkscape.org/namespaces/inkscape"
   xmlns:sodipodi="http://sodipodi.sourceforge.net/DTD/sodipodi-0.dtd"
   xmlns:xlink="http://www.w3.org/1999/xlink"
   xmlns="http://www.w3.org/2000/svg"
   xmlns:svg="http://www.w3.org/2000/svg">
  <defs
     id="defs4" />
  <sodipodi:namedview
     id="namedview4"
     pagecolor="#ffffff"
     bordercolor="#000000"
     borderopacity="0.25"
     inkscape:showpageshadow="2"
     inkscape:pageopacity="0.0"
     inkscape:pagecheckerboard="0"
     inkscape:deskcolor="#d1d1d1"
     inkscape:zoom="1"
     inkscape:cx="1067.5"
     inkscape:cy="376.5"
     inkscape:window-width="1920"
     inkscape:window-height="1017"
     inkscape:window-x="1432"
     inkscape:window-y="879"
     inkscape:window-maximized="1"
     inkscape:current-layer="text-bubble-layer" />
  <image
     id="raster-base"
     x="0"
     y="0"
     width="1448"
     height="1086"
     preserveAspectRatio="none"
     href="panel50.webp"
     xlink:href="panel50.webp" />
  <g
     id="text-bubble-layer"
     inkscape:groupmode="layer"
     inkscape:label="Text bubble">
    <path
       id="speech-bubble-outline"
       d="m 1060,65 c -56.3247,-1.0397 -112.6995,-0.9523 -169,1 -42.0593,1.4584 -84.308,2.2653 -126,8 -20.596,2.8329 -41.5917,5.5475 -61,13 -9.3406,3.5867 -18.2887,8.6245 -26,15 -7.4678,6.1742 -13.9904,13.7058 -19,22 -5.1844,8.5836 -8.4771,18.2948 -11,28 -3.1312,12.0451 -4.2865,24.575 -5,37 -0.9747,16.9753 -0.5313,34.0658 1,51 1.1253,12.4437 2.2449,25.0832 6,37 3.2261,10.2379 7.63212,20.35869 14,29 6.15535,8.3529 22.76703,21.22725 22.76703,21.22725 0,0 -27.11309,38.98777 -42.76703,56.77275 -21.22505,24.11451 -36.86997,38.04771 -68.99383,67.29012 97.73908,-35.9859 158.1038,-91.41997 158.1038,-91.41997 0,0 39.93121,3.36786 59.89003,5.12985 22.00514,1.94264 43.9389,4.8557 66,6 76.9031,3.9889 154.0199,5.0151 231,3 35.7307,-0.9353 71.6657,-1.6109 107,-7 21.0198,-3.2059 42.1768,-7.3089 62,-15 7.0933,-2.7521 13.798,-6.5927 20,-11 7.311,-5.1955 14.5299,-10.8921 20,-18 8.9103,-11.5781 15.3791,-25.1403 20,-39 3.7439,-11.2292 4.8094,-23.2232 6,-35 2.1134,-20.904 2.3899,-41.993 2,-63 -0.1798,-9.688 -0.4442,-19.4361 -2,-29 -1.4929,-9.1769 -3.2812,-18.4786 -7,-27 -3.9573,-9.068 -9.2429,-17.7729 -16,-25 -6.511,-6.9639 -14.5627,-12.5614 -23,-17 -9.0494,-4.7606 -19.0572,-7.6134 -29,-10 -16.3644,-3.928 -33.2404,-5.4713 -50,-7 -46.5164,-4.243 -93.2985,-5.1379 -140,-6 z"
       fill="#ffffff"
       stroke="#000000"
       stroke-width="4.8"
       stroke-linejoin="miter"
       stroke-linecap="butt"
       stroke-miterlimit="10"
       sodipodi:nodetypes="aaaaaaaaaaacaccaaaaaaaaaaaaaaaaa" />
    <text
       id="bubble-text"
       x="980"
       y="122.39999"
       text-anchor="middle"
       dominant-baseline="middle"
       direction="rtl"
       unicode-bidi="plaintext"
       font-family="'Noto Sans Hebrew', Arial, sans-serif"
       font-size="40px"
       font-weight="400"
       fill="#000000"
       stroke="none"
       xml:space="preserve"> <tspan
   x="980"
   y="129.60001"
   id="tspan1">לעזאזל עם רוזבלט, לעזאזל עם</tspan> <tspan
   x="980"
   y="199.45"
   id="tspan2">איינשטיין, לעזאזל עם סילארד,</tspan> <tspan
   x="980"
   y="266.20001"
   id="tspan3">ולעזאזל איתי.</tspan></text>
  </g>
</svg>
