<?xml version="1.0" encoding="UTF-8" standalone="no"?>
<svg
   version="1.1"
   width="1448"
   height="1086"
   viewBox="0 0 1448 1086"
   preserveAspectRatio="xMidYMid meet"
   id="svg4"
   sodipodi:docname="panel59.svg"
   inkscape:version="1.4 (86a8ad7, 2024-10-11)"
   xmlns:inkscape="http://www.inkscape.org/namespaces/inkscape"
   xmlns:sodipodi="http://sodipodi.sourceforge.net/DTD/sodipodi-0.dtd"
   xmlns:xlink="http://www.w3.org/1999/xlink"
   xmlns="http://www.w3.org/2000/svg"
   xmlns:svg="http://www.w3.org/2000/svg">
  <defs
     id="defs4" />
  <sodipodi:namedview
     id="namedview4"
     pagecolor="#ffffff"
     bordercolor="#000000"
     borderopacity="0.25"
     inkscape:showpageshadow="2"
     inkscape:pageopacity="0.0"
     inkscape:pagecheckerboard="0"
     inkscape:deskcolor="#d1d1d1"
     inkscape:zoom="1"
     inkscape:cx="1044"
     inkscape:cy="323.5"
     inkscape:window-width="1920"
     inkscape:window-height="1017"
     inkscape:window-x="1432"
     inkscape:window-y="879"
     inkscape:window-maximized="1"
     inkscape:current-layer="text-bubble-layer" />
  <image
     id="raster-base"
     x="0"
     y="0"
     width="1448"
     height="1086"
     preserveAspectRatio="none"
     href="panel59.jpg"
     xlink:href="panel59.jpg" />
  <g
     id="text-bubble-layer"
     inkscape:groupmode="layer"
     inkscape:label="Text bubble">
    <path
       id="speech-bubble-outline"
       d="m 973,67 c -15.9637,-1.1274 -32.0609,-0.4343 -48,1 -8.4054,0.7564 -16.753,2.2085 -25,4 -9.7992,2.1287 -19.5587,4.621 -29,8 -9.2729,3.3188 -18.3716,7.2513 -27,12 -7.3705,4.0564 -14.4224,8.7547 -21,14 -6.8209,5.4394 -13.3029,11.3929 -19,18 -5.3141,6.163 -10.2648,12.7702 -14,20 -4.5491,8.805 -8.1562,18.2623 -10,28 -1.9854,10.4856 -2.2511,21.4017 -1,32 0.8911,7.5488 3.0767,14.9835 6,22 3.8481,9.236 8.9103,18.0611 15,26 6.599,8.6028 14.6645,16.0664 23,23 4.9758,4.1389 10.4255,7.7115 16,11 5.7778,3.4084 11.8157,6.401 18,9 9.4266,3.9617 19.081,7.5163 29,10 16.3731,4.0999 33.1744,6.6625 50,8 12.9591,1.0302 26.0393,1.0103 39,0 17.1558,-1.3374 51,-8 51,-8 0,0 8.2034,13.08299 14,18 7.9535,6.7466 27.5001,14.92381 27.5001,14.92381 0,0 -9.8194,-16.71258 -12.5001,-25.92381 -1.5944,-5.47846 -2,-17 -2,-17 0,0 21.3996,-11.6026 31,-19 8.4038,-6.4755 16.1831,-13.8707 23,-22 4.6334,-5.5255 8.6429,-11.618 12,-18 3.3427,-6.3547 5.954,-13.1174 8,-20 1.4529,-4.8876 2.4976,-9.9258 3,-15 0.7555,-7.6294 1.0433,-15.4047 0,-23 -1.1776,-8.5733 -3.6613,-17.0161 -7,-25 -3.1104,-7.4381 -7.2678,-14.4726 -12,-21 -5.5408,-7.6427 -12.0253,-14.6388 -19,-21 -6.1571,-5.6156 -12.9112,-10.6189 -20,-15 -8.2425,-5.0941 -17.048,-9.2919 -26,-13 -7.7908,-3.2271 -15.8126,-5.9808 -24,-8 -16.0682,-3.9627 -32.4915,-6.8342 -49,-8 z"
       fill="#ffffff"
       stroke="#000000"
       stroke-width="4.8"
       stroke-linejoin="miter"
       stroke-linecap="butt"
       stroke-miterlimit="10"
       sodipodi:nodetypes="aaaaaaaaaaaaaaaaaacacacaaaaaaaaaaaaa" />
    <text
       id="bubble-text"
       x="949"
       y="114"
       text-anchor="middle"
       dominant-baseline="middle"
       direction="rtl"
       unicode-bidi="plaintext"
       font-family="'Noto Sans Hebrew', Arial, sans-serif"
       font-size="29px"
       font-weight="400"
       fill="#000000"
       stroke="none"
       xml:space="preserve"
       style="font-weight:400;font-family:'Noto Sans Hebrew', Arial, sans-serif;direction:rtl;dominant-baseline:middle;text-anchor:middle;fill:#000000;stroke:none"><tspan
         x="949"
         y="114"
         id="tspan1">ניו מקסיקו?!</tspan><tspan
         x="949"
         y="147"
         id="tspan2">מכל המקומות בעולם</tspan><tspan
         x="949"
         y="180"
         id="tspan3">בחרת דווקא את</tspan><tspan
         x="949"
         y="213"
         id="tspan4">ניו מקסיקו?</tspan><tspan
         x="949"
         y="246"
         id="tspan5">טוב, שיהיה.</tspan><tspan
         x="949"
         y="279"
         id="tspan6">לכמה זמן?</tspan></text>
  </g>
</svg>
