<?xml version="1.0" encoding="UTF-8" standalone="no"?>
<svg
   version="1.1"
   width="1448"
   height="1086"
   viewBox="0 0 1448 1086"
   preserveAspectRatio="xMidYMid meet"
   id="svg1"
   sodipodi:docname="panel75.svg"
   inkscape:version="1.4 (86a8ad7, 2024-10-11)"
   xmlns:inkscape="http://www.inkscape.org/namespaces/inkscape"
   xmlns:sodipodi="http://sodipodi.sourceforge.net/DTD/sodipodi-0.dtd"
   xmlns:xlink="http://www.w3.org/1999/xlink"
   xmlns="http://www.w3.org/2000/svg"
   xmlns:svg="http://www.w3.org/2000/svg">
  <defs
     id="defs1" />
  <sodipodi:namedview
     id="namedview1"
     pagecolor="#ffffff"
     bordercolor="#000000"
     borderopacity="0.25"
     inkscape:showpageshadow="2"
     inkscape:pageopacity="0.0"
     inkscape:pagecheckerboard="0"
     inkscape:deskcolor="#d1d1d1"
     inkscape:zoom="3.0133775"
     inkscape:cx="928.52621"
     inkscape:cy="516.19819"
     inkscape:window-width="1920"
     inkscape:window-height="1017"
     inkscape:window-x="1432"
     inkscape:window-y="879"
     inkscape:window-maximized="1"
     inkscape:current-layer="text-bubble-layer" />
  <image
     id="raster-base"
     x="0"
     y="0"
     width="1448"
     height="1086"
     preserveAspectRatio="none"
     href="panel75.webp"
     xlink:href="panel75.webp" />
  <g
     id="text-bubble-layer"
     inkscape:groupmode="layer"
     inkscape:label="Text bubble">
    <path
       id="speech-bubble-outline"
       d="m 1021,436 c -90.7222,1.8337 -183.7222,-9.998 -272,11 -3.9184,0.932 -7.9947,2.3186 -11,5 -4.3509,3.882 -7.1905,9.4569 -9,15 -3.4277,10.5 -2.5608,21.9634 -3,33 -1.193,29.9781 -1.2108,60.0797 1,90 1.2645,17.1127 1.2956,34.81655 7,51 2.14871,6.09592 4.58361,13.07876 9.99215,16.6178 14.84342,9.71268 52.77123,6.86786 52.77123,6.86786 0,0 -15.87925,33.33979 -24.76338,49.51434 -4.10706,7.47737 -13.17618,21.94081 -13.17618,21.94081 0,0 14.87048,-13.19907 22.17618,-19.94081 18.71452,-17.26984 55.47058,-52.52942 55.47058,-52.52942 0,0 99.67956,2.32647 149.52942,2.52942 38.0011,0.15471 76.5163,5.2516 114,-1 7.2781,-1.2139 14.84,-2.9381 21,-7 3.3509,-2.2096 5.8898,-5.5856 8,-9 2.8311,-4.5809 4.7387,-9.7646 6,-15 4.234,-17.5742 4.3539,-35.9346 5,-54 1.144,-31.9865 1.3395,-64.1677 -2,-96 -0.7435,-7.087 -1.7183,-14.2493 -4,-21 -1.9093,-5.6489 -4.3304,-11.3001 -8,-16 -1.8913,-2.4223 -4.342,-4.4575 -7,-6 -4.2859,-2.4872 -9.1173,-4.1543 -14,-5 -27.5892,-4.7788 -56.0057,-0.5658 -84,0 z"
       fill="#ffffff"
       stroke="#000000"
       stroke-width="4.8"
       stroke-linejoin="miter"
       stroke-linecap="butt"
       stroke-miterlimit="10"
       sodipodi:nodetypes="aaaaaaaacacacaaaaaaaaaaaa" />
    <text
       id="bubble-text"
       x="927"
       y="466"
       text-anchor="middle"
       dominant-baseline="middle"
       direction="rtl"
       unicode-bidi="plaintext"
       font-family="'Noto Sans Hebrew', Arial, sans-serif"
       font-size="26px"
       font-weight="400"
       fill="#000000"
       stroke="none"
       xml:space="preserve"
       style="font-weight:400;font-family:'Noto Sans Hebrew', Arial, sans-serif;direction:rtl;dominant-baseline:middle;text-anchor:middle;fill:#000000;stroke:none"><tspan
   x="927"
   y="466"
   id="tspan1">שלום, אני NAND. אני אחד</tspan><tspan
   x="927"
   y="498"
   id="tspan2">המעגלים הכי פשוטים שיש.</tspan><tspan
   x="927"
   y="530"
   id="tspan3">אני בנוי רק משתי טריודות ונגד.</tspan><tspan
   x="927"
   y="562"
   id="tspan4">אבל אפשר לבנות ממני כל מכונת</tspan><tspan
   x="927"
   y="594"
   id="tspan5">חישוב, אפילו את המחשב שאת</tspan><tspan
   x="927"
   y="626"
   id="tspan6">וג'ון מנסים לבנות.</tspan></text>
  </g>
</svg>
