<?xml version="1.0" encoding="UTF-8" standalone="no"?>
<svg
   version="1.1"
   width="1448"
   height="1086"
   viewBox="0 0 1448 1086"
   preserveAspectRatio="xMidYMid meet"
   id="svg2"
   sodipodi:docname="panel30.svg"
   inkscape:version="1.4 (86a8ad7, 2024-10-11)"
   xmlns:inkscape="http://www.inkscape.org/namespaces/inkscape"
   xmlns:sodipodi="http://sodipodi.sourceforge.net/DTD/sodipodi-0.dtd"
   xmlns:xlink="http://www.w3.org/1999/xlink"
   xmlns="http://www.w3.org/2000/svg"
   xmlns:svg="http://www.w3.org/2000/svg">
  <defs
     id="defs2" />
  <sodipodi:namedview
     id="namedview2"
     pagecolor="#ffffff"
     bordercolor="#000000"
     borderopacity="0.25"
     inkscape:showpageshadow="2"
     inkscape:pageopacity="0.0"
     inkscape:pagecheckerboard="0"
     inkscape:deskcolor="#d1d1d1"
     inkscape:zoom="5.5956204"
     inkscape:cx="1016.7773"
     inkscape:cy="261.90125"
     inkscape:window-width="1920"
     inkscape:window-height="1017"
     inkscape:window-x="1432"
     inkscape:window-y="879"
     inkscape:window-maximized="1"
     inkscape:current-layer="text-bubble-layer" />
  <image
     id="raster-base"
     x="0"
     y="0"
     width="1448"
     height="1086"
     preserveAspectRatio="none"
     href="panel30.webp"
     xlink:href="panel30.jpg" />
  <g
     id="text-bubble-layer"
     inkscape:groupmode="layer"
     inkscape:label="Text bubble">
    <path
       id="speech-bubble-outline"
       d="m 903,86 c -16.6568,-0.6639 -33.3734,-0.2021 -50,1 -10.7217,0.7752 -21.4331,2.0262 -32,4 -10.808,2.0189 -21.6598,4.2624 -32,8 -9.394,3.3956 -18.6262,7.5542 -27,13 -7.3349,4.7701 -14.3409,10.3269 -20,17 -3.7714,4.4471 -6.8699,9.572 -9,15 -2.3643,6.0249 -3.5309,12.5449 -4,19 -0.3873,5.3297 -0.1941,10.7914 1,16 1.7706,7.7229 9,22 9,22 0,0 13.0451,14.5078 21,20 7.6067,5.2518 16.3145,8.8368 25,12 12.6103,4.5926 25.7954,7.6021 39,10 15.1755,2.7558 30.5887,4.3824 46,5 23.6571,0.9481 47.4426,0.3678 71,-2 7.7427,-0.7782 15.4395,-2.1576 23,-4 6.4528,-1.5725 12.4359,-4.9882 19,-6 3.9533,-0.6094 12,0 12,0 0,0 15.662,8.18544 24,11 9.2501,3.12243 28.5742,6.42969 28.5742,6.42969 0,0 -12.85,-9.07225 -18.5742,-14.42969 -2.9306,-2.7428 -6.5736,-5.24815 -8,-9 -1.4215,-3.73889 0,-12 0,-12 0,0 10.1285,-7.9436 14,-13 4.3509,-5.6826 7.8548,-12.1721 10,-19 2.4166,-7.6916 3.486,-15.9524 3,-24 -0.3314,-5.4875 -1.9503,-10.8989 -4,-16 -2.0039,-4.9873 -4.7375,-9.7286 -8,-14 -3.7198,-4.8702 -8.3052,-9.0612 -13,-13 -3.1171,-2.6152 -6.4486,-5.0143 -10,-7 -9.5126,-5.3187 -19.6381,-9.6223 -30,-13 -12.9937,-4.2356 -26.509,-6.816 -40,-9 -13.2276,-2.1413 -26.6108,-3.4663 -40,-4 z"
       fill="#ffffff"
       stroke="#000000"
       stroke-width="4.8"
       stroke-linejoin="miter"
       stroke-linecap="butt"
       stroke-miterlimit="10"
       sodipodi:nodetypes="aaaaaaaaacaaaaaaacacaacaaaaaaaaaa" />
    <text
       id="bubble-text"
       x="889.50"
       y="172.00"
       text-anchor="middle"
       dominant-baseline="middle"
       direction="rtl"
       unicode-bidi="plaintext"
       font-family="Noto Sans Hebrew, Arial, sans-serif"
       font-size="39"
       font-weight="400"
       fill="#000000"
       stroke="none"
       xml:space="preserve">
<tspan
   x="889.50"
   y="151.00"
   id="tspan1">אתה יכול</tspan>
<tspan
   x="889.50"
   y="194.00"
   id="tspan2">לדבר איתו?</tspan>
</text>
  </g>
</svg>
