<?xml version="1.0" encoding="UTF-8" standalone="no"?>
<svg
   version="1.1"
   width="1448"
   height="1086"
   viewBox="0 0 1448 1086"
   preserveAspectRatio="xMidYMid meet"
   id="svg1"
   sodipodi:docname="panel05.svg"
   inkscape:version="1.4 (86a8ad7, 2024-10-11)"
   xmlns:inkscape="http://www.inkscape.org/namespaces/inkscape"
   xmlns:sodipodi="http://sodipodi.sourceforge.net/DTD/sodipodi-0.dtd"
   xmlns:xlink="http://www.w3.org/1999/xlink"
   xmlns="http://www.w3.org/2000/svg"
   xmlns:svg="http://www.w3.org/2000/svg">
  <defs
     id="defs1" />
  <sodipodi:namedview
     id="namedview1"
     pagecolor="#ffffff"
     bordercolor="#000000"
     borderopacity="0.25"
     inkscape:showpageshadow="2"
     inkscape:pageopacity="0.0"
     inkscape:pagecheckerboard="0"
     inkscape:deskcolor="#d1d1d1"
     inkscape:zoom="0.89502762"
     inkscape:cx="724.55865"
     inkscape:cy="543.55864"
     inkscape:window-width="1920"
     inkscape:window-height="1017"
     inkscape:window-x="1432"
     inkscape:window-y="879"
     inkscape:window-maximized="1"
     inkscape:current-layer="text-bubble-layer" />
  <image
     id="raster-base"
     x="0"
     y="0"
     width="1448"
     height="1086"
     preserveAspectRatio="none"
     href="panel05.webp"
     xlink:href="panel05.webp" />
  <g
     id="text-bubble-layer"
     inkscape:groupmode="layer"
     inkscape:label="Text bubble">
    <path
       id="speech-bubble-outline"
       d="M 1014,200 C 1007.5018,202.6867 1001.1597,206.2228 996,211 C 990.5692,216.0283 985.7287,222.1202 983,229 C 980.1495,236.187 979.4943,244.2849 980,252 C 980.3384,257.1636 981.4702,262.4858 984,267 C 988.7259,275.4327 996.0445,282.5087 1004,288 C 1009.6554,291.9037 1016.3573,294.2402 1023,296 C 1031.1132,298.1494 1048,299 1048,299 L 1057,317 L 1071,330 L 1064,300 C 1064,300 1086.2628,295.4841 1096,290 C 1102.5846,286.2914 1108.7921,281.2773 1113,275 C 1118.1065,267.382 1121.2623,258.1415 1122,249 C 1122.626,241.2435 1121.2479,233.0715 1118,226 C 1114.9361,219.3291 1109.7414,213.5745 1104,209 C 1097.0046,203.4264 1088.6242,199.3714 1080,197 C 1066.7872,193.3668 1052.658,192.8878 1039,194 C 1030.4583,194.6956 1021.9198,196.7256 1014,200 Z"
       sodipodi:nodetypes="aaaaaaaccccaaaaaaaa"
       fill="#ffffff"
       stroke="#000000"
       stroke-width="4.8"
       stroke-linejoin="miter"
       stroke-linecap="butt"
       stroke-miterlimit="10" />
    <text
       id="bubble-text"
       x="1046"
       y="249"
       text-anchor="middle"
       dominant-baseline="middle"
       direction="rtl"
       unicode-bidi="plaintext"
       font-family="'Noto Sans Hebrew', Arial, sans-serif"
       font-size="39px"
       font-weight="400"
       fill="#000000"
       stroke="none"
       xml:space="preserve"><tspan
   x="1046"
   y="249"
   id="tspan1">זוכר...</tspan></text>
  </g>
</svg>
