<?xml version="1.0" encoding="UTF-8" standalone="no"?>
<svg
   version="1.1"
   width="1448"
   height="1086"
   viewBox="0 0 1448 1086"
   preserveAspectRatio="xMidYMid meet"
   id="svg1"
   sodipodi:docname="panel34.svg"
   inkscape:version="1.4 (86a8ad7, 2024-10-11)"
   xmlns:inkscape="http://www.inkscape.org/namespaces/inkscape"
   xmlns:sodipodi="http://sodipodi.sourceforge.net/DTD/sodipodi-0.dtd"
   xmlns:xlink="http://www.w3.org/1999/xlink"
   xmlns="http://www.w3.org/2000/svg"
   xmlns:svg="http://www.w3.org/2000/svg">
  <defs
     id="defs1" />
  <sodipodi:namedview
     id="namedview1"
     pagecolor="#ffffff"
     bordercolor="#000000"
     borderopacity="0.25"
     inkscape:showpageshadow="2"
     inkscape:pageopacity="0.0"
     inkscape:pagecheckerboard="0"
     inkscape:deskcolor="#d1d1d1"
     inkscape:zoom="7.9287773"
     inkscape:cx="679.29767"
     inkscape:cy="574.3004"
     inkscape:window-width="1920"
     inkscape:window-height="1017"
     inkscape:window-x="1432"
     inkscape:window-y="879"
     inkscape:window-maximized="1"
     inkscape:current-layer="text-bubble-layer" />
  <image
     id="raster-base"
     x="0"
     y="0"
     width="1448"
     height="1086"
     preserveAspectRatio="none"
     href="panel34.webp"
     xlink:href="panel34.webp" />
  <g
     id="text-bubble-layer"
     inkscape:groupmode="layer"
     inkscape:label="Text bubble">
    <path
       id="speech-bubble-outline"
       d="m 510,539 c -6.3647,0.216 -12.7043,1.0412 -19,2 -5.0409,0.7677 -10.0718,1.6912 -15,3 -8.1502,2.1644 -16.2092,4.7729 -24,8 -4.8203,1.9966 -9.5105,4.3417 -14,7 -4.5351,2.6853 -9.0124,5.5537 -13,9 -5.1747,4.4722 -10.0236,9.4353 -14,15 -3.2946,4.6105 -5.9642,9.7116 -8,15 -1.4812,3.8478 -2.4962,7.9078 -3,12 -0.7331,5.955 -1.1346,12.1083 0,18 1.3578,7.0507 4.4441,13.7621 8,20 2.7075,4.7496 6.1586,9.1099 10,13 5.6697,5.7416 12.1891,10.6731 19,15 5.6622,3.5972 11.8252,6.3786 18,9 5.5314,2.3482 11.2058,4.4067 17,6 8.1942,2.2532 16.543,4.1626 25,5 14.2636,1.4124 28.7523,1.564 43,0 6.1097,-0.6707 12.108,-2.25 18,-4 5.4602,-1.6218 10.8336,-3.6016 16,-6 8.663,-4.0217 17.2497,-8.4183 25,-14 4.0211,-2.896 7.6849,-6.3169 11,-10 4.1481,-4.6085 7.9914,-9.5785 11,-15 2.6131,-4.7087 4.8062,-9.7488 6,-15 1.1109,-4.8864 1,-15 1,-15 0,0 17.7239,-7.2442 26,-12 3.5279,-2.0273 6.8829,-4.3848 10,-7 3.2502,-2.7269 9,-9 9,-9 l 6.68451,-7.31513 c 0,0 -20.50604,10.80787 -31.68451,13.31513 -7.48787,1.67948 -23,1 -23,1 0,0 -5.9766,-11.8005 -10,-17 -3.4619,-4.4739 -7.6569,-8.3754 -12,-12 -4.0464,-3.377 -8.4649,-6.3147 -13,-9 -6.4136,-3.7975 -13.0002,-7.439 -20,-10 -10.6295,-3.889 -21.7881,-6.4494 -33,-8 -8.9213,-1.2338 -17.999,-1.3055 -27,-1 z"
       fill="#ffffff"
       stroke="#000000"
       stroke-width="4.8"
       stroke-linejoin="miter"
       stroke-linecap="butt"
       stroke-miterlimit="10"
       sodipodi:nodetypes="aaaaaaaaaaaaaaaaaaaaaaacaaccacaaaaaa" />
    <text
       id="bubble-text"
       x="510.80246"
       y="618.65259"
       text-anchor="middle"
       dominant-baseline="middle"
       direction="rtl"
       unicode-bidi="plaintext"
       font-family="'Noto Sans Hebrew', Arial, sans-serif"
       font-size="46px"
       font-weight="400"
       fill="#000000"
       stroke="none"
       xml:space="preserve"><tspan
   x="510.80246"
   y="618.65259"
   id="tspan1">כן</tspan></text>
  </g>
</svg>
