<?xml version="1.0" encoding="UTF-8" standalone="no"?>
<svg
   version="1.1"
   width="1448"
   height="1086"
   viewBox="0 0 1448 1086"
   preserveAspectRatio="xMidYMid meet"
   id="svg1"
   sodipodi:docname="panel09.svg"
   inkscape:version="1.4 (86a8ad7, 2024-10-11)"
   xmlns:inkscape="http://www.inkscape.org/namespaces/inkscape"
   xmlns:sodipodi="http://sodipodi.sourceforge.net/DTD/sodipodi-0.dtd"
   xmlns:xlink="http://www.w3.org/1999/xlink"
   xmlns="http://www.w3.org/2000/svg"
   xmlns:svg="http://www.w3.org/2000/svg">
  <defs
     id="defs1" />
  <sodipodi:namedview
     id="namedview1"
     pagecolor="#ffffff"
     bordercolor="#000000"
     borderopacity="0.25"
     inkscape:showpageshadow="2"
     inkscape:pageopacity="0.0"
     inkscape:pagecheckerboard="0"
     inkscape:deskcolor="#d1d1d1"
     inkscape:zoom="0.89502762"
     inkscape:cx="724.55864"
     inkscape:cy="542.44136"
     inkscape:window-width="1440"
     inkscape:window-height="2497"
     inkscape:window-x="-8"
     inkscape:window-y="-8"
     inkscape:window-maximized="1"
     inkscape:current-layer="text-bubble-layer" />
  <image
     id="raster-base"
     x="0"
     y="0"
     width="1448"
     height="1086"
     preserveAspectRatio="none"
     href="panel09.webp"
     xlink:href="panel09.jpg" />
  <g
     id="text-bubble-layer"
     inkscape:groupmode="layer"
     inkscape:label="Text bubble">
    <path
       id="speech-bubble-outline"
       d="M 901,197 C 895.9664,203.4718 892.1774,211.0955 890,219 C 887.6033,227.7006 887.2916,237.0032 888,246 C 888.457,251.8035 889.6292,257.6832 892,263 C 895.8035,271.5297 901.2357,279.5606 908,286 C 914.8329,292.5047 923.3699,297.1894 932,301 C 939.9165,304.4955 948.4349,306.7637 957,308 C 981.086,311.4767 1030,309 1030,309 L 1058,338 L 1047,305 C 1047,305 1060.6236,302.5621 1067,300 C 1074.481,296.9941 1081.5929,292.8937 1088,288 C 1093.2448,283.994 1098.1928,279.3908 1102,274 C 1106.4727,267.667 1110.177,260.5358 1112,253 C 1114.5877,242.3035 1115.1835,230.7863 1113,220 C 1111.254,211.3747 1107.2975,203.0272 1102,196 C 1096.4501,188.638 1088.8271,182.872 1081,178 C 1072.3792,172.6341 1062.7509,168.8338 1053,166 C 1041.002,162.5132 1028.4782,160.637 1016,160 C 998.9928,159.1318 981.6869,159.6019 965,163 C 950.4329,165.9664 935.8439,170.5143 923,178 C 914.6284,182.8791 906.9489,189.3515 901,197 Z"
       sodipodi:nodetypes="aaaaaaacccaaaaaaaaaaaa"
       fill="#ffffff"
       stroke="#000000"
       stroke-width="4.8"
       stroke-linejoin="miter"
       stroke-linecap="butt"
       stroke-miterlimit="10" />
    <text
       id="bubble-text"
       x="994"
       y="234"
       text-anchor="middle"
       dominant-baseline="middle"
       direction="rtl"
       unicode-bidi="plaintext"
       font-family="'Noto Sans Hebrew', Arial, sans-serif"
       font-size="38px"
       font-weight="700"
       fill="#000000"
       stroke="none"
       xml:space="preserve"><tspan
   x="994"
   y="234"
   id="tspan1">אז על מה?!</tspan></text>
  </g>
</svg>
