<?xml version="1.0" encoding="UTF-8" standalone="no"?>
<svg
   version="1.1"
   width="1448"
   height="1086"
   viewBox="0 0 1448 1086"
   preserveAspectRatio="xMidYMid meet"
   id="svg4"
   sodipodi:docname="panel41.svg"
   inkscape:version="1.4 (86a8ad7, 2024-10-11)"
   xmlns:inkscape="http://www.inkscape.org/namespaces/inkscape"
   xmlns:sodipodi="http://sodipodi.sourceforge.net/DTD/sodipodi-0.dtd"
   xmlns:xlink="http://www.w3.org/1999/xlink"
   xmlns="http://www.w3.org/2000/svg"
   xmlns:svg="http://www.w3.org/2000/svg">
  <defs
     id="defs4" />
  <sodipodi:namedview
     id="namedview4"
     pagecolor="#ffffff"
     bordercolor="#000000"
     borderopacity="0.25"
     inkscape:showpageshadow="2"
     inkscape:pageopacity="0.0"
     inkscape:pagecheckerboard="0"
     inkscape:deskcolor="#d1d1d1"
     inkscape:zoom="1"
     inkscape:cx="428.5"
     inkscape:cy="218.5"
     inkscape:window-width="1920"
     inkscape:window-height="1017"
     inkscape:window-x="1432"
     inkscape:window-y="879"
     inkscape:window-maximized="1"
     inkscape:current-layer="text-bubble-layer" />
  <image
     id="raster-base"
     x="0"
     y="0"
     width="1448"
     height="1086"
     preserveAspectRatio="none"
     href="panel41.png"
     xlink:href="panel41.png" />
  <g
     id="text-bubble-layer"
     inkscape:groupmode="layer"
     inkscape:label="Text bubble">
    <path
       id="speech-bubble-outline"
       d="m 577,86 c -17.4862,1.3372 -34.9716,3.8063 -52,8 -11.9755,2.9493 -23.6258,7.2316 -35,12 -6.8739,2.8818 -13.6145,6.1554 -20,10 -7.3697,4.4371 -14.5268,9.3346 -21,15 -5.5012,4.8147 -10.7806,10.03 -15,16 -6.2814,8.8876 -12.0983,18.5107 -15,29 -2.8495,10.3006 -3.1123,21.3706 -2,32 0.6481,6.1934 2.5778,12.2632 5,18 1.8012,4.2661 4.40608,8.16385 7,12 4.25774,6.29678 8.55871,12.69244 14,18 4.29912,4.19345 14.49244,10.70403 14.49244,10.70403 0,0 -3.87926,7.90432 -5.49244,12.29597 -6.41369,17.46037 -33,45 -33,45 0,0 20.63565,-8.16162 30,-14 12.50027,-7.79353 34.40806,-27.73174 34.40806,-27.73174 0,0 6.20664,4.17841 9.59194,5.73174 14.37078,6.59398 29.5917,11.4525 45,15 12.4501,2.8664 25.2515,4.1649 38,5 13.3048,0.8716 26.7086,1.0566 40,0 16.8256,-1.3375 33.6617,-3.7635 50,-8 11.33,-2.9379 22.5089,-6.81 33,-12 13.8406,-6.8471 26.9709,-15.3178 39,-25 4.4067,-3.5469 8.3825,-7.651 12,-12 4.1389,-4.9758 7.7872,-10.3816 11,-16 2.739,-4.7898 5.2243,-9.7759 7,-15 1.978,-5.8194 3.4821,-11.8755 4,-18 0.5624,-6.6513 0.1162,-13.419 -1,-20 -0.9877,-5.8235 -2.579,-11.6123 -5,-17 -3.8668,-8.6051 -8.8844,-16.8167 -15,-24 -6.891,-8.0941 -15.2102,-15.0218 -24,-21 -10.2316,-6.9588 -21.5558,-12.2944 -33,-17 -11.3105,-4.6506 -23.0741,-8.293 -35,-11 -13.7913,-3.1304 -27.8934,-4.9975 -42,-6 -13.2998,-0.9452 -26.7055,-1.0167 -40,0 z"
       fill="#ffffff"
       stroke="#000000"
       stroke-width="4.8"
       stroke-linejoin="miter"
       stroke-linecap="butt"
       stroke-miterlimit="10"
       sodipodi:nodetypes="aaaaaaaaaaacscacaaaaaaaaaaaaaaaaaaa" />
    <text
       id="bubble-text"
       x="593"
       y="137"
       text-anchor="middle"
       dominant-baseline="middle"
       direction="rtl"
       unicode-bidi="plaintext"
       font-family="'Noto Sans Hebrew', Arial, sans-serif"
       font-size="34px"
       font-weight="400"
       fill="#000000"
       stroke="none"
       xml:space="preserve"><tspan
         x="593"
         y="137"
         id="tspan1">אתה תוכל כמובן</tspan><tspan
         x="593"
         y="178"
         id="tspan2">לסרב, אבל לא תוכל</tspan><tspan
         x="593"
         y="219"
         id="tspan3">לדבר על זה</tspan><tspan
         x="593"
         y="260"
         id="tspan4">עם איש.</tspan></text>
  </g>
</svg>
