<?xml version="1.0" encoding="UTF-8" standalone="no"?>
<svg
   version="1.1"
   width="1448"
   height="1086"
   viewBox="0 0 1448 1086"
   preserveAspectRatio="xMidYMid meet"
   id="svg2"
   sodipodi:docname="panel21.svg"
   inkscape:version="1.4 (86a8ad7, 2024-10-11)"
   xmlns:inkscape="http://www.inkscape.org/namespaces/inkscape"
   xmlns:sodipodi="http://sodipodi.sourceforge.net/DTD/sodipodi-0.dtd"
   xmlns:xlink="http://www.w3.org/1999/xlink"
   xmlns="http://www.w3.org/2000/svg"
   xmlns:svg="http://www.w3.org/2000/svg">
  <defs
     id="defs2" />
  <sodipodi:namedview
     id="namedview2"
     pagecolor="#ffffff"
     bordercolor="#000000"
     borderopacity="0.25"
     inkscape:showpageshadow="2"
     inkscape:pageopacity="0.0"
     inkscape:pagecheckerboard="0"
     inkscape:deskcolor="#d1d1d1"
     inkscape:zoom="6.5766154"
     inkscape:cx="887.46257"
     inkscape:cy="452.43637"
     inkscape:window-width="1920"
     inkscape:window-height="1017"
     inkscape:window-x="1432"
     inkscape:window-y="879"
     inkscape:window-maximized="1"
     inkscape:current-layer="text-bubble-layer" />
  <image
     id="raster-base"
     x="0"
     y="0"
     width="1448"
     height="1086"
     preserveAspectRatio="none"
     href="panel21.webp"
     xlink:href="panel21.jpg" />
  <g
     id="text-bubble-layer"
     inkscape:groupmode="layer"
     inkscape:label="Text bubble">
    <path
       id="speech-bubble-outline"
       d="m 680,301 c 17.6562,-0.6924 35.3961,-0.5249 53,1 19.4917,1.6884 38.9245,4.6524 58,9 11.2066,2.5542 22.261,5.9031 33,10 9.6144,3.6678 19.1305,7.7826 28,13 7.8157,4.5976 15.2089,9.9915 22,16 5.1223,4.532 9.8538,9.5606 14,15 3.0845,4.0466 6.1984,8.2415 8,13 2.7553,7.2776 4.1514,15.2197 4,23 -0.0928,4.7717 -1.05277,9.6427 -3,14 -4.67046,10.45104 -20.21643,27.76027 -20.21643,27.76027 0,0 10.54919,15.02628 17.21643,21.23973 5.95325,5.54806 20,14 20,14 0,0 -18.212,-0.81571 -27,-3 -12.77335,-3.17486 -36.71919,-14.52054 -36.71919,-14.52054 0,0 -33.58644,14.89026 -51.28081,19.52054 -21.84516,5.71646 -44.4812,8.3287 -67,10 -18.2831,1.3569 -36.7143,1.3203 -55,0 -20.8291,-1.5039 -41.6333,-4.3838 -62,-9 -15.3206,-3.4724 -30.6857,-7.5286 -45,-14 -14.5856,-6.594 -29.1837,-14.2019 -41,-25 -8.2679,-7.5555 -15.2166,-16.8726 -20,-27 -1.7609,-3.7282 -2.6166,-7.8948 -3,-12 -0.5278,-5.6519 -0.3042,-11.4754 1,-17 1.7497,-7.412 4.8976,-14.5836 9,-21 4.8313,-7.5566 11.2945,-14.0434 18,-20 5.1857,-4.6065 10.9457,-8.6152 17,-12 13.2949,-7.4327 27.4921,-13.3611 42,-18 14.946,-4.779 30.4982,-7.5674 46,-10 13.5655,-2.1288 27.279,-3.4619 41,-4 z"
       fill="#ffffff"
       stroke="#000000"
       stroke-width="4.8"
       stroke-linejoin="miter"
       stroke-linecap="butt"
       stroke-miterlimit="10"
       sodipodi:nodetypes="aaaaaaaaaacacacaaaaaaaaaaaaaaa" />
    <text
       id="bubble-text"
       x="706.69"
       y="398.20001"
       text-anchor="middle"
       dominant-baseline="middle"
       direction="rtl"
       unicode-bidi="plaintext"
       font-family="'Noto Sans Hebrew', Arial, sans-serif"
       font-size="34.05px"
       font-weight="400"
       fill="#000000"
       stroke="none"
       xml:space="preserve"> <tspan
   x="706.69"
   y="374.91"
   id="tspan1">במה אני יכולה</tspan> <tspan
   x="706.69"
   y="421.5"
   id="tspan2">לעזור לפרופסור ספרול?</tspan></text>
  </g>
</svg>
