<?xml version="1.0" encoding="UTF-8" standalone="no"?>
<svg
   version="1.1"
   width="1448"
   height="1086"
   viewBox="0 0 1448 1086"
   preserveAspectRatio="xMidYMid meet"
   id="svg1"
   sodipodi:docname="panel47.svg"
   inkscape:version="1.4 (86a8ad7, 2024-10-11)"
   xmlns:inkscape="http://www.inkscape.org/namespaces/inkscape"
   xmlns:sodipodi="http://sodipodi.sourceforge.net/DTD/sodipodi-0.dtd"
   xmlns:xlink="http://www.w3.org/1999/xlink"
   xmlns="http://www.w3.org/2000/svg"
   xmlns:svg="http://www.w3.org/2000/svg">
  <defs
     id="defs1" />
  <sodipodi:namedview
     id="namedview1"
     pagecolor="#ffffff"
     bordercolor="#000000"
     borderopacity="0.25"
     inkscape:showpageshadow="2"
     inkscape:pageopacity="0.0"
     inkscape:pagecheckerboard="0"
     inkscape:deskcolor="#d1d1d1"
     inkscape:zoom="0.89502762"
     inkscape:cx="724.55865"
     inkscape:cy="542.44136"
     inkscape:window-width="1920"
     inkscape:window-height="1017"
     inkscape:window-x="1432"
     inkscape:window-y="879"
     inkscape:window-maximized="1"
     inkscape:current-layer="text-bubble-layer" />
  <image
     id="raster-base"
     x="0"
     y="0"
     width="1448"
     height="1086"
     preserveAspectRatio="none"
     href="panel47.png"
     xlink:href="panel47.png" />
  <g
     id="text-bubble-layer"
     inkscape:groupmode="layer"
     inkscape:label="Text bubble">
    <path
       id="speech-bubble-outline"
       d="m 336,255 c -24.00694,0.33337 -48.27134,-1.65994 -72,2 -4.79668,0.73985 -9.56534,2.02785 -14,4 -2.87334,1.27781 -5.58632,2.9843 -8,5 -3.80347,3.17634 -7.19901,6.91222 -10,11 -1.68524,2.45944 -3.03242,5.17995 -4,8 -1.10321,3.21535 -1.80591,6.6062 -2,10 -0.22918,4.00732 0.19295,8.06811 1,12 0.63583,3.0977 1.43444,6.25245 3,9 3.27565,5.74873 7.67153,11.07761 13,15 4.68818,3.45106 10.32409,5.70657 16,7 9.10584,2.07505 28,1 28,1 l 12,27 h 2 v -26 c 0,0 115.34485,1.15264 173,0 8.33833,-0.1667 16.80951,0.5721 25,-1 5.90152,-1.13275 11.74673,-3.08208 17,-6 3.73173,-2.07278 7.1729,-4.8016 10,-8 3.36975,-3.81231 6.08835,-8.28465 8,-13 1.15462,-2.84803 1.66466,-5.94517 2,-9 0.36372,-3.31343 0.44244,-6.69616 0,-10 -0.50446,-3.76696 -1.46246,-7.52431 -3,-11 -1.75824,-3.9746 -4.09719,-7.76541 -7,-11 -2.85113,-3.177 -6.26827,-5.92722 -10,-8 -5.25327,-2.91792 -11.0972,-4.87392 -17,-6 -17.36606,-3.31293 -35.3239,-1.66661 -53,-2 -36.66015,-0.69145 -73.33687,-0.50911 -110,0 z"
       fill="#ffffff"
       stroke="#000000"
       stroke-width="4.8"
       stroke-linejoin="miter"
       stroke-linecap="butt"
       stroke-miterlimit="10"
       sodipodi:nodetypes="aaaaaaaaaaaccccaaaaaaaaaaaaa" />
    <text
       id="bubble-text"
       x="381.5"
       y="302.12"
       text-anchor="middle"
       dominant-baseline="middle"
       direction="rtl"
       unicode-bidi="plaintext"
       font-family="'Noto Sans Hebrew', Arial, sans-serif"
       font-size="34px"
       font-weight="400"
       fill="#000000"
       stroke="none"
       xml:space="preserve"><tspan
   x="381.5"
   y="302.12"
   id="tspan1">מה לעזאזל?!</tspan></text>
  </g>
</svg>
