<?xml version="1.0" encoding="UTF-8" standalone="no"?>
<svg
   version="1.1"
   width="1448"
   height="1086"
   viewBox="0 0 1448 1086"
   preserveAspectRatio="xMidYMid meet"
   id="svg1"
   sodipodi:docname="panel55.svg"
   inkscape:version="1.4 (86a8ad7, 2024-10-11)"
   xmlns:inkscape="http://www.inkscape.org/namespaces/inkscape"
   xmlns:sodipodi="http://sodipodi.sourceforge.net/DTD/sodipodi-0.dtd"
   xmlns:xlink="http://www.w3.org/1999/xlink"
   xmlns="http://www.w3.org/2000/svg"
   xmlns:svg="http://www.w3.org/2000/svg">
  <defs
     id="defs1" />
  <sodipodi:namedview
     id="namedview1"
     pagecolor="#ffffff"
     bordercolor="#000000"
     borderopacity="0.25"
     inkscape:showpageshadow="2"
     inkscape:pageopacity="0.0"
     inkscape:pagecheckerboard="0"
     inkscape:deskcolor="#d1d1d1"
     inkscape:zoom="34.806776"
     inkscape:cx="1052.841"
     inkscape:cy="336.50058"
     inkscape:window-width="1920"
     inkscape:window-height="1017"
     inkscape:window-x="1432"
     inkscape:window-y="879"
     inkscape:window-maximized="1"
     inkscape:current-layer="text-bubble-layer" />
  <image
     id="raster-base"
     x="0"
     y="0"
     width="1448"
     height="1086"
     preserveAspectRatio="none"
     href="panel55.png"
     xlink:href="panel55.png" />
  <g
     id="text-bubble-layer"
     inkscape:groupmode="layer"
     inkscape:label="Text bubble">
    <path
       id="speech-bubble-outline"
       d="m 919,130 c -9.0736,0.6685 -18.0838,2.1891 -27,4 -9.1115,1.8506 -18.1269,4.2228 -27,7 -6.4413,2.0161 -12.8542,4.2099 -19,7 -7.6062,3.4531 -15.0452,7.3731 -22,12 -5.3311,3.5467 -10.4723,7.4723 -15,12 -4.5277,4.5277 -8.549,9.6064 -12,15 -2.0086,3.1392 -3.707,6.5047 -5,10 -1.4305,3.867 -2.4962,7.9078 -3,12 -0.6924,5.6242 -0.6924,11.3758 0,17 0.3358,2.7281 0.996,5.4412 2,8 2.7791,7.0828 6.2728,14.0383 11,20 5.5726,7.0279 12.6324,12.8851 20,18 7.1034,4.9315 15.0651,8.5627 23,12 6.4812,2.8076 13.1675,5.2094 20,7 14.7375,3.8623 29.8421,6.4671 45,8 12.9383,1.3085 26.01,1.6096 39,1 16.7678,-0.7869 50,-6 50,-6 0,0 13.0403,17.5779 21,25 6.6318,6.184 14.1559,11.45115 22,16 3.693,2.14159 11.6823,5.2483 11.6823,5.2483 0,0 -4.5642,-6.76336 -6.6823,-10.2483 -4.574,-7.52557 -9.3159,-15.0011 -13,-23 -1.6322,-3.5438 -3.0085,-7.2265 -4,-11 -1.0306,-3.922 -2,-12 -2,-12 0,0 15.6497,-6.7344 23,-11 4.5585,-2.6454 8.8812,-5.7117 13,-9 4.2406,-3.3855 8.4401,-6.9047 12,-11 4.246,-4.8847 8.2031,-10.1634 11,-16 3.0078,-6.2767 4.9893,-13.1136 6,-20 0.6293,-4.2874 0.5295,-8.6991 0,-13 -0.6717,-5.4563 -1.8501,-10.9403 -4,-16 -2.4595,-5.7885 -5.987,-11.1574 -10,-16 -3.7629,-4.5408 -8.3656,-8.3531 -13,-12 -3.7779,-2.9729 -7.8166,-5.6314 -12,-8 -6.0983,-3.4528 -12.4585,-6.486 -19,-9 -9.7454,-3.7453 -19.8306,-6.6371 -30,-9 -7.8999,-1.8356 -15.9173,-3.3311 -24,-4 -20.5962,-1.7046 -41.3892,-1.5184 -62,0 z"
       fill="#ffffff"
       stroke="#000000"
       stroke-width="4.8"
       stroke-linejoin="miter"
       stroke-linecap="butt"
       stroke-miterlimit="10"
       sodipodi:nodetypes="aaaaaaaaaaaaaaaaacaacaaacaaaaaaaaaaaaaa" />
    <text
       id="bubble-text"
       x="933"
       y="213"
       text-anchor="middle"
       dominant-baseline="middle"
       direction="rtl"
       unicode-bidi="plaintext"
       font-family="'Noto Sans Hebrew', Arial, sans-serif"
       font-size="38px"
       font-weight="400"
       fill="#000000"
       stroke="none"
       xml:space="preserve"
       style="font-weight:400;font-family:'Noto Sans Hebrew', Arial, sans-serif;direction:rtl;dominant-baseline:middle;text-anchor:middle;fill:#000000;stroke:none"><tspan
   x="933"
   y="213"
   id="tspan1">על מה אתה עובד?</tspan></text>
  </g>
</svg>
