<?xml version="1.0" encoding="UTF-8"?>
<svg xmlns:inkscape="http://www.inkscape.org/namespaces/inkscape"
     xmlns:sodipodi="http://sodipodi.sourceforge.net/DTD/sodipodi-0.dtd" xmlns="http://www.w3.org/2000/svg"
     xmlns:xlink="http://www.w3.org/1999/xlink"
     version="1.1"
     width="1448"
     height="1086"
     viewBox="0 0 1448 1086"
     preserveAspectRatio="xMidYMid meet">
  <image id="raster-base"
         x="0"
         y="0"
         width="1448"
         height="1086"
         preserveAspectRatio="none"
         href="panel23.webp"
         xlink:href="panel23.jpg" />
  <g id="text-bubble-layer" inkscape:groupmode="layer" inkscape:label="Text bubble">
    <path id="speech-bubble-outline"
          d="M 626,271 C 642.6462,270.1088 659.3619,270.9689 676,272 C 692.0558,272.995 708.1797,274.0853 724,277 C 739.2672,279.8128 754.6245,283.1395 769,289 C 782.8213,294.6346 796.3315,301.6928 808,311 C 815.7479,317.18 822.4769,324.771 828,333 C 832.3207,339.4376 835.8048,346.5641 838,354 C 840.1891,361.4152 841.331,369.2755 841,377 C 840.5325,387.9089 838.1375,398.8954 834,409 C 829.9699,418.8422 824.0047,427.9972 817,436 C 811.856,441.877 799,451 799,451 C 799,451 800.7187,458.8349 803,462 C 810.2141,472.009 832,485 832,485 C 832,485 810.9092,482.5477 801,479 C 792.4342,475.9333 777,466 777,466 C 777,466 747.9427,475.7433 733,479 C 719.1822,482.0115 705.1135,484.1012 691,485 C 668.3767,486.4407 645.4993,486.7692 623,484 C 601.2527,481.3234 579.541,476.6276 559,469 C 542.7869,462.9795 526.9426,455.233 513,445 C 504.6393,438.8637 496.957,431.4894 491,423 C 484.2334,413.3568 478.8105,402.4402 476,391 C 474.1692,383.5477 474.2281,375.635 475,368 C 475.553,362.5304 477.0441,357.1378 479,352 C 481.8114,344.6149 485.472,337.4763 490,331 C 495.6789,322.8776 502.3612,315.3144 510,309 C 520.8394,300.0399 533.1669,292.7523 546,287 C 556.4885,282.2986 567.76,279.4028 579,277 C 594.4448,273.6983 610.2288,271.8444 626,271 Z"
          fill="#ffffff"
          stroke="#000000"
          stroke-width="4.8"
          stroke-linejoin="miter"
          stroke-linecap="butt"
          stroke-miterlimit="10"
          sodipodi:nodetypes="aaaaaaaaaacacacaaaaaaaaaaaaa"
          />
  <text id="bubble-text"
        x="666.48" y="388.93"
        text-anchor="middle"
        dominant-baseline="middle"
        direction="rtl"
        unicode-bidi="plaintext"
        font-family="Noto Sans Hebrew, Arial, sans-serif"
        font-size="36.73"
        font-weight="400"
        fill="#000000"
        stroke="none"
        xml:space="preserve">
<tspan x="666.48" y="361.39">לפרופסור ספרול,</tspan>
<tspan x="666.48" y="416.47">נשיא האוניברסיטה.</tspan>
</text>
  </g>
</svg>
