<?xml version="1.0" encoding="UTF-8" standalone="no"?>
<svg
   version="1.1"
   width="1448"
   height="1086"
   viewBox="0 0 1448 1086"
   preserveAspectRatio="xMidYMid meet"
   id="svg3"
   sodipodi:docname="panel02.svg"
   inkscape:version="1.4 (86a8ad7, 2024-10-11)"
   xmlns:inkscape="http://www.inkscape.org/namespaces/inkscape"
   xmlns:sodipodi="http://sodipodi.sourceforge.net/DTD/sodipodi-0.dtd"
   xmlns:xlink="http://www.w3.org/1999/xlink"
   xmlns="http://www.w3.org/2000/svg"
   xmlns:svg="http://www.w3.org/2000/svg">
  <defs
     id="defs3" />
  <sodipodi:namedview
     id="namedview3"
     pagecolor="#ffffff"
     bordercolor="#000000"
     borderopacity="0.25"
     inkscape:showpageshadow="2"
     inkscape:pageopacity="0.0"
     inkscape:pagecheckerboard="0"
     inkscape:deskcolor="#d1d1d1"
     inkscape:zoom="1"
     inkscape:cx="290.5"
     inkscape:cy="226.5"
     inkscape:window-width="1920"
     inkscape:window-height="1017"
     inkscape:window-x="1432"
     inkscape:window-y="879"
     inkscape:window-maximized="1"
     inkscape:current-layer="text-bubble-layer" />
  <image
     id="raster-base"
     x="0"
     y="0"
     width="1448"
     height="1086"
     preserveAspectRatio="none"
     href="panel02.png"
     xlink:href="panel02.png" />
  <g
     id="text-bubble-layer"
     inkscape:groupmode="layer"
     inkscape:label="Text bubble">
    <path
       id="speech-bubble-outline"
       d="m 41,167 c -2.594,11.3942 -3.6171,23.4267 -2,35 1.1233,8.0391 3.8382,16.0309 8,23 5.5642,9.3176 13.2985,17.5145 22,24 10.3993,7.7509 22.6722,12.9693 35,17 14.169,4.6327 29.1531,6.6613 44,8 13.6114,1.2273 27.3998,1.3467 41,0 15.2226,-1.5073 30.7194,-3.5168 45,-9 11.5809,-4.4466 32,-19 32,-19 l 39,1 -27.31834,-16.01522 c 0,0 15.95884,-28.2864 17.31834,-43.98478 1.14498,-13.2212 -1.9646,-27.1811 -8,-39 -4.9356,-9.6653 -13.2936,-17.521 -22,-24 -9.2093,-6.8532 -20.0794,-11.462 -31,-15 -14.4936,-4.6955 -29.8103,-6.823 -45,-8 -15.6234,-1.2106 -31.4234,-0.7099 -47,1 -11.8267,1.2982 -23.7643,3.0867 -35,7 -15.2046,5.2956 -30.3992,11.9779 -43,22 -6.4801,5.154 -11.7058,11.9208 -16,19 -3.1783,5.2396 -5.6397,11.0246 -7,17 z"
       sodipodi:nodetypes="aaaaaaaacccaaaaaaaaaa"
       fill="#ffffff"
       stroke="#000000"
       stroke-width="4.8"
       stroke-linejoin="miter"
       stroke-linecap="butt"
       stroke-miterlimit="10" />
    <text
       id="bubble-text"
       x="166.11517"
       y="190"
       text-anchor="middle"
       dominant-baseline="middle"
       direction="rtl"
       unicode-bidi="plaintext"
       font-family="'Noto Sans Hebrew', Arial, sans-serif"
       font-size="33px"
       font-weight="400"
       fill="#000000"
       stroke="none"
       xml:space="preserve"><tspan
         x="166.11517"
         y="143.14"
         id="tspan1">אלברט,</tspan><tspan
         x="166.11517"
         y="190"
         id="tspan2">אנחנו צריכים</tspan><tspan
         x="166.11517"
         y="236.86"
         id="tspan3">לדבר...</tspan></text>
  </g>
</svg>
