<?xml version="1.0" encoding="UTF-8" standalone="no"?>
<svg
   version="1.1"
   width="1448"
   height="1086"
   viewBox="0 0 1448 1086"
   preserveAspectRatio="xMidYMid meet"
   id="svg1"
   sodipodi:docname="panel71.svg"
   inkscape:version="1.4 (86a8ad7, 2024-10-11)"
   xmlns:inkscape="http://www.inkscape.org/namespaces/inkscape"
   xmlns:sodipodi="http://sodipodi.sourceforge.net/DTD/sodipodi-0.dtd"
   xmlns:xlink="http://www.w3.org/1999/xlink"
   xmlns="http://www.w3.org/2000/svg"
   xmlns:svg="http://www.w3.org/2000/svg">
  <defs
     id="defs1" />
  <sodipodi:namedview
     id="namedview1"
     pagecolor="#ffffff"
     bordercolor="#000000"
     borderopacity="0.25"
     inkscape:showpageshadow="2"
     inkscape:pageopacity="0.0"
     inkscape:pagecheckerboard="0"
     inkscape:deskcolor="#d1d1d1"
     inkscape:zoom="1"
     inkscape:cx="1111.5"
     inkscape:cy="315.5"
     inkscape:window-width="1920"
     inkscape:window-height="1017"
     inkscape:window-x="1432"
     inkscape:window-y="879"
     inkscape:window-maximized="1"
     inkscape:current-layer="text-bubble-layer" />
  <image
     id="raster-base"
     x="0"
     y="0"
     width="1448"
     height="1086"
     preserveAspectRatio="none"
     href="panel71.webp"
     xlink:href="panel71.webp" />
  <g
     id="text-bubble-layer"
     inkscape:groupmode="layer"
     inkscape:label="Text bubble">
    <path
       id="speech-bubble-outline"
       d="m 1337,88 c -149.1028,-16.3948 -302.9153,-27.4369 -450,2 -6.0091,1.2026 -11.7208,3.8878 -17,7 -7.3546,4.3357 -14.3086,9.6363 -20,16 -4.9936,5.5835 -8.8562,12.2009 -12,19 -2.3451,5.0718 -4.138,10.4792 -5,16 -7.4567,47.7558 -1,145 -1,145 -30.30859,19.56254 -62.53436,38.19074 -91.61698,59.53248 0,0 17.70866,-5.80314 26.61698,-8.53248 21.58306,-6.61263 65,-19 65,-19 0,0 1.5021,14.3263 4,21 3.2466,8.674 7.7597,17.1563 14,24 7.7281,8.4754 17.4938,15.3984 28,20 7.4853,3.2785 15.8694,4.1804 24,5 148.5818,14.9778 301.7823,28.3526 448,-2 7.4568,-1.5479 14.5635,-4.9292 21,-9 6.387,-4.0394 12.142,-9.2111 17,-15 4.5202,-5.3863 8.1501,-11.5717 11,-18 2.3939,-5.3998 4.1882,-11.1494 5,-17 8.8879,-64.0564 11.7509,-130.8087 -2,-194 -1.3961,-6.4158 -4.4535,-12.4743 -8,-18 -4.0819,-6.3599 -9.1914,-12.1656 -15,-17 -5.9757,-4.9735 -12.7856,-9.1022 -20,-12 -6.9784,-2.803 -14.5247,-4.178 -22,-5 z"
       fill="#ffffff"
       stroke="#000000"
       stroke-width="4.8"
       stroke-linejoin="miter"
       stroke-linecap="butt"
       stroke-miterlimit="10"
       sodipodi:nodetypes="aaaaaaccacaaaaaaaaaaaaaa" />
    <text
       id="bubble-text"
       x="1120.5"
       y="141"
       text-anchor="middle"
       dominant-baseline="middle"
       direction="rtl"
       unicode-bidi="plaintext"
       font-family="'Noto Sans Hebrew', Arial, sans-serif"
       font-size="35px"
       font-weight="400"
       fill="#000000"
       stroke="none"
       xml:space="preserve"
       style="font-weight:400;font-family:'Noto Sans Hebrew', Arial, sans-serif;direction:rtl;dominant-baseline:middle;text-anchor:middle;fill:#000000;stroke:none"><tspan
         x="1120.5"
         y="141"
         id="tspan1">את תצטרכי לבנות מכונה שעושה את</tspan><tspan
         x="1120.5"
         y="180"
         id="tspan2">זה במקום הבן אדם. זאת תהיה מכונת</tspan><tspan
         x="1120.5"
         y="219"
         id="tspan3">חישוב שתוכל לעשות כל חישוב. נקרא</tspan><tspan
         x="1120.5"
         y="258"
         id="tspan4">לה מחשב אלקטרוני. אולי פעם היא</tspan><tspan
         x="1120.5"
         y="297"
         id="tspan5">תחליף את המחשבים, ואז יקראו לה</tspan><tspan
         x="1120.5"
         y="336"
         id="tspan6">מחשב.</tspan></text>
  </g>
</svg>
