<?xml version="1.0" encoding="UTF-8" standalone="no"?>
<svg
   version="1.1"
   width="1448"
   height="1086"
   viewBox="0 0 1448 1086"
   preserveAspectRatio="xMidYMid meet"
   id="svg1"
   sodipodi:docname="panel76.svg"
   inkscape:version="1.4 (86a8ad7, 2024-10-11)"
   xmlns:inkscape="http://www.inkscape.org/namespaces/inkscape"
   xmlns:sodipodi="http://sodipodi.sourceforge.net/DTD/sodipodi-0.dtd"
   xmlns:xlink="http://www.w3.org/1999/xlink"
   xmlns="http://www.w3.org/2000/svg"
   xmlns:svg="http://www.w3.org/2000/svg">
  <defs
     id="defs1" />
  <sodipodi:namedview
     id="namedview1"
     pagecolor="#ffffff"
     bordercolor="#000000"
     borderopacity="0.25"
     inkscape:showpageshadow="2"
     inkscape:pageopacity="0.0"
     inkscape:pagecheckerboard="0"
     inkscape:deskcolor="#d1d1d1"
     inkscape:zoom="1"
     inkscape:cx="767.5"
     inkscape:cy="660.5"
     inkscape:window-width="1920"
     inkscape:window-height="1017"
     inkscape:window-x="1432"
     inkscape:window-y="879"
     inkscape:window-maximized="1"
     inkscape:current-layer="text-bubble-layer" />
  <image
     id="raster-base"
     x="0"
     y="0"
     width="1448"
     height="1086"
     preserveAspectRatio="none"
     href="panel76.webp"
     xlink:href="panel76.jpg" />
  <g
     id="text-bubble-layer"
     inkscape:groupmode="layer"
     inkscape:label="Text bubble">
    <path
       id="speech-bubble-outline"
       d="m 643,567 c -4.0922,0.50377 -8.4121,0.9686 -12,3 -2.0511,1.1613 -3.7025,3.0323 -5,5 -0.9882,1.4986 -1.6454,3.2403 -2,5 -3.8202,18.9551 -3.9327,38.8875 -1,58 0.4796,3.1257 1.3375,6.31 3,9 0.9913,1.604 2.4386,2.9429 4,4 2.1021,1.4232 4.5261,2.4306 7,3 6.8294,1.572 13.99583,0.77031 21,1 28.45125,0.93301 56.92585,0.92437 85.38584,1.53541 C 749.59106,656.66864 762,657 762,657 c 0,0 -0.2347,9.3845 -1,14 -1.0713,6.4607 -2.9701,12.7736 -5,19 -2.5519,7.8272 -5.95844,15.34973 -9,23 -1.96918,4.95297 -5.98809,14.82662 -5.98809,14.82662 C 762.93298,708.56521 778.14264,680.91393 795,657 c 0,0 91.2778,6.4263 136,-1 3.1196,-0.518 6.31,-1.3375 9,-3 2.005,-1.2392 3.6786,-3.0482 5,-5 1.4232,-2.1021 2.4896,-4.5133 3,-7 4.0883,-19.9181 3.8452,-41.0336 0,-61 -0.3395,-1.7627 -1.0118,-3.5014 -2,-5 -1.038,-1.5742 -2.4095,-2.9871 -4,-4 -3.2909,-2.0958 -7.15761,-3.32307 -11,-4 -46.06721,-8.1159 -97.34719,-2.69767 -146.03312,-2.68485 C 737.63613,564.3276 691.85453,560.98573 643,567 Z"
       fill="#ffffff"
       stroke="#000000"
       stroke-width="4.8"
       stroke-linejoin="miter"
       stroke-linecap="butt"
       stroke-miterlimit="10"
       sodipodi:nodetypes="saaaaaaaaacaaaccaaaaaaasas" />
    <text
       id="bubble-text"
       x="786"
       y="614"
       text-anchor="middle"
       dominant-baseline="middle"
       direction="rtl"
       unicode-bidi="plaintext"
       font-family="'Noto Sans Hebrew', Arial, sans-serif"
       font-size="34px"
       font-weight="400"
       fill="#000000"
       stroke="none"
       xml:space="preserve"
       style="font-weight:400;font-family:'Noto Sans Hebrew', Arial, sans-serif;direction:rtl;dominant-baseline:middle;text-anchor:middle;fill:#000000;stroke:none"><tspan
   x="786"
   y="614"
   id="tspan1">יש לי שתי כניסות.</tspan></text>
  </g>
</svg>
