<?xml version="1.0" encoding="UTF-8" standalone="no"?>
<svg
   version="1.1"
   width="1448"
   height="1086"
   viewBox="0 0 1448 1086"
   preserveAspectRatio="xMidYMid meet"
   id="svg5"
   sodipodi:docname="panel04.svg"
   inkscape:version="1.4 (86a8ad7, 2024-10-11)"
   xmlns:inkscape="http://www.inkscape.org/namespaces/inkscape"
   xmlns:sodipodi="http://sodipodi.sourceforge.net/DTD/sodipodi-0.dtd"
   xmlns:xlink="http://www.w3.org/1999/xlink"
   xmlns="http://www.w3.org/2000/svg"
   xmlns:svg="http://www.w3.org/2000/svg">
  <defs
     id="defs5" />
  <sodipodi:namedview
     id="namedview5"
     pagecolor="#ffffff"
     bordercolor="#000000"
     borderopacity="0.25"
     inkscape:showpageshadow="2"
     inkscape:pageopacity="0.0"
     inkscape:pagecheckerboard="0"
     inkscape:deskcolor="#d1d1d1"
     inkscape:zoom="1.4142136"
     inkscape:cx="254.91199"
     inkscape:cy="102.17693"
     inkscape:window-width="1920"
     inkscape:window-height="1017"
     inkscape:window-x="1432"
     inkscape:window-y="879"
     inkscape:window-maximized="1"
     inkscape:current-layer="text-bubble-layer" />
  <image
     id="raster-base"
     x="0"
     y="0"
     width="1448"
     height="1086"
     preserveAspectRatio="none"
     href="panel04.jpg"
     xlink:href="panel04.jpg" />
  <g
     id="text-bubble-layer"
     inkscape:groupmode="layer"
     inkscape:label="Text bubble">
    <path
       id="speech-bubble-outline"
       d="m 63,136 c -4.5208,9.3099 -6.4656,19.7649 -8,30 -1.3353,8.9066 -1.8844,18.0374 -1,27 1.4133,14.3218 3.9582,28.9383 10,42 5.2061,11.255 12.8522,21.6277 22,30 10.9223,9.9963 24.241,17.5307 38,23 16.1609,6.4241 33.6947,9.2764 51,11 23.8841,2.3788 48.1985,2.098 72,-1 19.0802,-2.4835 38.3219,-6.4035 56,-14 7.9862,-3.4317 15.4334,-8.3048 22,-14 4.6433,-4.0271 12,-14 12,-14 l 48,-2 -37.75215,-15.66214 c 0,0 10.41632,-22.35361 12.75215,-34.33786 2.1691,-11.12882 2.4239,-22.7515 1,-34 -1.9608,-15.4898 -5.5841,-31.2602 -13,-45 -5.8387,-10.8176 -14.3994,-20.3228 -24,-28 -10.0152,-8.0088 -21.8244,-13.9752 -34,-18 -23.0517,-7.62 -47.7266,-10.503 -72,-11 -27.1605,-0.5562 -54.9135,1.4173 -81,9 -16.7488,4.8684 -33.5613,11.8814 -47,23 -11.5572,9.5619 -20.4478,22.5067 -27,36 z"
       sodipodi:nodetypes="aaaaaaaaaacccaaaaaaaaa"
       fill="#ffffff"
       stroke="#000000"
       stroke-width="4.8"
       stroke-linejoin="miter"
       stroke-linecap="butt"
       stroke-miterlimit="10" />
    <text
       id="bubble-text"
       x="205"
       y="181"
       text-anchor="middle"
       dominant-baseline="middle"
       direction="rtl"
       unicode-bidi="plaintext"
       font-family="'Noto Sans Hebrew', Arial, sans-serif"
       font-size="31px"
       font-weight="400"
       fill="#000000"
       stroke="none"
       xml:space="preserve"><tspan
         x="205"
         y="105.36"
         id="tspan1">אתה זוכר</tspan><tspan
         x="205"
         y="143.17999"
         id="tspan2">שאמרת לי</tspan><tspan
         x="205"
         y="181"
         id="tspan3">לא לכתוב, לא לדבר</tspan><tspan
         x="205"
         y="218.82001"
         id="tspan4">ואפילו לא לחשוב,</tspan><tspan
         x="205"
         y="256.64001"
         id="tspan5">על העניין ההוא?</tspan></text>
  </g>
</svg>
