<?xml version="1.0" encoding="UTF-8" standalone="no"?>
<svg
   version="1.1"
   width="1448"
   height="1086"
   viewBox="0 0 1448 1086"
   preserveAspectRatio="xMidYMid meet"
   id="svg1"
   sodipodi:docname="panel78.svg"
   inkscape:version="1.4 (86a8ad7, 2024-10-11)"
   xmlns:inkscape="http://www.inkscape.org/namespaces/inkscape"
   xmlns:sodipodi="http://sodipodi.sourceforge.net/DTD/sodipodi-0.dtd"
   xmlns:xlink="http://www.w3.org/1999/xlink"
   xmlns="http://www.w3.org/2000/svg"
   xmlns:svg="http://www.w3.org/2000/svg">
  <defs
     id="defs1" />
  <sodipodi:namedview
     id="namedview1"
     pagecolor="#ffffff"
     bordercolor="#000000"
     borderopacity="0.25"
     inkscape:showpageshadow="2"
     inkscape:pageopacity="0.0"
     inkscape:pagecheckerboard="0"
     inkscape:deskcolor="#d1d1d1"
     inkscape:zoom="1"
     inkscape:cx="909"
     inkscape:cy="585.5"
     inkscape:window-width="1920"
     inkscape:window-height="1017"
     inkscape:window-x="1432"
     inkscape:window-y="879"
     inkscape:window-maximized="1"
     inkscape:current-layer="text-bubble-layer" />
  <image
     id="raster-base"
     x="0"
     y="0"
     width="1448"
     height="1086"
     preserveAspectRatio="none"
     href="panel78.webp"
     xlink:href="panel78.webp" />
  <g
     id="text-bubble-layer"
     inkscape:groupmode="layer"
     inkscape:label="Text bubble">
    <path
       id="speech-bubble-outline"
       d="m 855,477 c -41.6917,0.8335 -84.3896,-4.4702 -125,5 -3.1972,0.7456 -6.2938,2.1414 -9,4 -3.1087,2.135 -6.1252,4.7278 -8,8 -3.9389,6.8748 -4.9918,15.1412 -6,23 -2.6722,20.8293 -1.8317,42.08 0,63 1.0038,11.4646 1.717,23.3182 6,34 1.7891,4.4621 4.396,8.8184 8,12 2.7939,2.4664 6.3904,4.0728 10,5 15.67752,4.02684 53,4 53,4 0,0 -19.99801,42.04024 -29,56 -3.9577,6.34564 -12.63643,18.53904 -12.63643,18.53904 0,0 12.68244,-8.69053 18.63643,-13.53904 23.41999,-19.07161 67,-61 67,-61 0.1868,-0.20002 140.00971,8.6048 209.961,5.67568 23.1345,-0.96873 46.5791,-2.04552 69.039,-7.67568 3.4824,-0.87295 6.9461,-2.1126 10,-4 3.4144,-2.1102 6.5019,-4.8582 9,-8 2.5994,-3.2692 4.5167,-7.0956 6,-11 1.5794,-4.1573 2.4355,-8.5888 3,-13 3.0478,-23.815 3.2573,-48.0237 2,-72 -0.2641,-5.0373 -0.821,-10.0955 -2,-15 -1.4046,-5.8428 -2.796,-11.9161 -6,-17 -2.2621,-3.5893 -5.362,-6.8172 -9,-9 -6.8718,-4.1231 -15.0734,-5.8205 -23,-7 -79.7881,-11.8728 -161.3494,-1.6124 -242,0 z"
       fill="#ffffff"
       stroke="#000000"
       stroke-width="4.8"
       stroke-linejoin="miter"
       stroke-linecap="butt"
       stroke-miterlimit="10"
       sodipodi:nodetypes="aaaaaaaaacacacaaaaaaaaaaaa" />
    <text
       id="bubble-text"
       x="918"
       y="533"
       text-anchor="middle"
       dominant-baseline="middle"
       direction="rtl"
       unicode-bidi="plaintext"
       font-family="'Noto Sans Hebrew', Arial, sans-serif"
       font-size="34px"
       font-weight="400"
       fill="#000000"
       stroke="none"
       xml:space="preserve"
       style="font-weight:400;font-family:'Noto Sans Hebrew', Arial, sans-serif;direction:rtl;dominant-baseline:middle;text-anchor:middle;fill:#000000;stroke:none"><tspan
   x="918"
   y="533"
   id="tspan1">טוב, האמת היא שאני גם</tspan><tspan
   x="918"
   y="575"
   id="tspan2">צריך חיבור קבוע למקור מתח.</tspan></text>
  </g>
</svg>
