<?xml version="1.0" encoding="UTF-8" standalone="no"?>
<svg
   version="1.1"
   width="1448"
   height="1086"
   viewBox="0 0 1448 1086"
   preserveAspectRatio="xMidYMid meet"
   id="svg1"
   sodipodi:docname="panel64.svg"
   inkscape:version="1.4 (86a8ad7, 2024-10-11)"
   xmlns:inkscape="http://www.inkscape.org/namespaces/inkscape"
   xmlns:sodipodi="http://sodipodi.sourceforge.net/DTD/sodipodi-0.dtd"
   xmlns:xlink="http://www.w3.org/1999/xlink"
   xmlns="http://www.w3.org/2000/svg"
   xmlns:svg="http://www.w3.org/2000/svg">
  <defs
     id="defs1" />
  <sodipodi:namedview
     id="namedview1"
     pagecolor="#ffffff"
     bordercolor="#000000"
     borderopacity="0.25"
     inkscape:showpageshadow="2"
     inkscape:pageopacity="0.0"
     inkscape:pagecheckerboard="0"
     inkscape:deskcolor="#d1d1d1"
     inkscape:zoom="1"
     inkscape:cx="1272.5"
     inkscape:cy="107.5"
     inkscape:window-width="1920"
     inkscape:window-height="1017"
     inkscape:window-x="1432"
     inkscape:window-y="879"
     inkscape:window-maximized="1"
     inkscape:current-layer="text-bubble-layer" />
  <image
     id="raster-base"
     x="0"
     y="0"
     width="1448"
     height="1086"
     preserveAspectRatio="none"
     href="panel64.webp"
     xlink:href="panel64.jpg" />
  <g
     id="text-bubble-layer"
     inkscape:groupmode="layer"
     inkscape:label="Text bubble">
    <path
       id="speech-bubble-outline"
       d="m 998,59 c -8.7106,0.4856 -17.4655,1.1909 -26,3 -5.4662,1.1587 -10.9146,2.6845 -16,5 -4.6307,2.1085 -9.1417,4.683 -13,8 -4.3045,3.7005 -8.0503,8.1501 -11,13 -3.1845,5.2359 -5.3189,11.1068 -7,17 -1.6686,5.8494 -2.5367,11.9349 -3,18 -2.006,26.2589 -2.7219,52.9289 1,79 0.8801,6.1647 2.407,12.3383 5,18 3.0027,6.5562 12,18 12,18 0,0 -46.08555,43.32019 -70,64 -6.96701,6.02466 -21.39292,17.48897 -21.39292,17.48897 0,0 18.80287,-8.62445 28.39292,-12.48897 37.80426,-15.23407 107.98943,-48.8511 107.98943,-48.8511 0,0 188.26927,6.86748 282.01057,-0.1489 13.4449,-1.00633 27.1449,-1.935 40,-6 4.9747,-1.5731 9.696,-4.0508 14,-7 4.0878,-2.801 7.9124,-6.1242 11,-10 3.8128,-4.7861 6.6433,-10.3528 9,-16 1.8692,-4.479 3.2661,-9.2024 4,-14 3.9835,-26.0388 4.0762,-52.7402 2,-79 -0.7214,-9.1245 -1.9775,-18.3604 -5,-27 -1.8712,-5.3488 -4.6265,-10.4469 -8,-15 -3.0871,-4.1664 -6.8336,-7.9129 -11,-11 -4.5531,-3.3735 -9.6724,-6.0693 -15,-8 -7.6828,-2.7842 -15.8728,-4.148 -24,-5 -94.8144,-9.9391 -190.8139,-6.3064 -286,-1 z"
       fill="#ffffff"
       stroke="#000000"
       stroke-width="4.8"
       stroke-linejoin="miter"
       stroke-linecap="butt"
       stroke-miterlimit="10"
       sodipodi:nodetypes="aaaaaaaaacacscaaaaaaaaaaaaa" />
    <text
       id="bubble-text"
       x="1128"
       y="135"
       text-anchor="middle"
       dominant-baseline="middle"
       direction="rtl"
       unicode-bidi="plaintext"
       font-family="'Noto Sans Hebrew', Arial, sans-serif"
       font-size="38px"
       font-weight="400"
       fill="#000000"
       stroke="none"
       xml:space="preserve"
       style="font-weight:400;font-family:'Noto Sans Hebrew', Arial, sans-serif;direction:rtl;dominant-baseline:middle;text-anchor:middle;fill:#000000;stroke:none"> <tspan
   x="1128"
   y="135"
   id="tspan1">מה עם</tspan> <tspan
   x="1128"
   y="178"
   id="tspan2">החישוב שביקשתי?</tspan></text>
  </g>
</svg>
