<?xml version="1.0" encoding="UTF-8" standalone="no"?>
<svg
   version="1.1"
   width="1448"
   height="1086"
   viewBox="0 0 1448 1086"
   preserveAspectRatio="xMidYMid meet"
   id="svg1"
   sodipodi:docname="panel73a_ch4_intro.svg"
   inkscape:version="1.4 (86a8ad7, 2024-10-11)"
   xmlns:inkscape="http://www.inkscape.org/namespaces/inkscape"
   xmlns:sodipodi="http://sodipodi.sourceforge.net/DTD/sodipodi-0.dtd"
   xmlns:xlink="http://www.w3.org/1999/xlink"
   xmlns="http://www.w3.org/2000/svg"
   xmlns:svg="http://www.w3.org/2000/svg">
  <defs
     id="defs1" />
  <sodipodi:namedview
     id="namedview1"
     pagecolor="#ffffff"
     bordercolor="#000000"
     borderopacity="0.25"
     inkscape:showpageshadow="2"
     inkscape:pageopacity="0.0"
     inkscape:pagecheckerboard="0"
     inkscape:deskcolor="#d1d1d1"
     inkscape:zoom="1"
     inkscape:cx="482"
     inkscape:cy="111.5"
     inkscape:window-width="1920"
     inkscape:window-height="1017"
     inkscape:window-x="1432"
     inkscape:window-y="879"
     inkscape:window-maximized="1"
     inkscape:current-layer="text-bubble-layer" />
  <image
     id="raster-base"
     x="0"
     y="0"
     width="1448"
     height="1086"
     preserveAspectRatio="none"
     href="panel73a_ch4_intro.webp"
     xlink:href="panel73a_ch4_intro.jpg" />
  <g
     id="text-bubble-layer"
     inkscape:groupmode="layer"
     inkscape:label="Text bubble">
    <path
       id="speech-bubble-outline"
       d="m 568,28 c -8.7098,0.5008 -17.5421,0.8611 -26,3 -3.4805,0.8802 -6.8703,2.2411 -10,4 -5.8118,3.2662 -11.4186,7.157 -16,12 -5.7815,6.1116 -10.6794,13.2701 -14,21 -2.9683,6.9098 -4.1096,14.5326 -5,22 -2.842,23.8335 -1,72 -1,72 0,0 -13.58761,14.19161 -22,19 -13.5477,7.74366 -28.95062,11.55525 -44.34568,15 19.73534,3.0798 41.85057,2.0798 66.34568,-3 0,0 1.643,14.9289 4,22 2.1213,6.364 4.9097,12.6831 9,18 4.6079,5.9898 10.4154,11.2914 17,15 9.7372,5.4841 20.9918,8.0744 32,10 22.6774,3.9667 45.9837,2.4999 69,3 63.9849,1.3903 128.0054,0.831 192,0 25.6732,-0.3334 51.3936,-0.1198 77,-2 11.0508,-0.8114 22.4111,-0.7362 33,-4 10.4004,-3.2057 20.515,-8.1847 29,-15 4.0595,-3.2606 7.2497,-7.5788 10,-12 3.4681,-5.5752 5.9679,-11.7565 8,-18 1.4771,-4.5383 2.3817,-9.2676 3,-14 1.7727,-13.5676 1.8397,-27.318 2,-41 0.3086,-26.34 2.7417,-53.0885 -2,-79 -1.2714,-6.9478 -3.4304,-13.9052 -7,-20 -3.8193,-6.5211 -9.0806,-12.3019 -15,-17 -3.855,-3.0596 -8.3983,-5.2547 -13,-7 -5.4431,-2.0644 -11.2174,-3.3289 -17,-4 C 808.1313,14.2038 687.4693,21.1303 568,28 Z"
       fill="#ffffff"
       stroke="#000000"
       stroke-width="4.8"
       stroke-linejoin="miter"
       stroke-linecap="butt"
       stroke-miterlimit="10"
       sodipodi:nodetypes="aaaaaacaccaaaaaaaaaaaaaaaaaaa" />
    <text
       id="bubble-text"
       x="731.60028"
       y="75.293045"
       text-anchor="middle"
       dominant-baseline="middle"
       direction="rtl"
       unicode-bidi="plaintext"
       font-family="'Noto Sans Hebrew', Arial, sans-serif"
       font-size="38.8322px"
       font-weight="400"
       fill="#000000"
       stroke="none"
       xml:space="preserve"
       style="font-weight:400;font-family:'Noto Sans Hebrew', Arial, sans-serif;direction:rtl;dominant-baseline:middle;text-anchor:middle;fill:#000000;stroke:none;stroke-width:1.07867"><tspan
   x="731.60028"
   y="75.293045"
   id="tspan1"
   style="stroke-width:1.07867">מצוין. זה המחסן שלנו.</tspan><tspan
   x="731.60028"
   y="120.59734"
   id="tspan2"
   style="stroke-width:1.07867">תתחיל להכיר את הציוד.</tspan><tspan
   x="731.60028"
   y="165.90163"
   id="tspan3"
   style="stroke-width:1.07867">אני צריך לרוץ לפגישה</tspan><tspan
   x="731.60028"
   y="211.20592"
   id="tspan4"
   style="stroke-width:1.07867">עם רוברט.</tspan></text>
  </g>
</svg>
