<?xml version="1.0" encoding="UTF-8" standalone="no"?>
<svg
   version="1.1"
   width="1448"
   height="1086"
   viewBox="0 0 1448 1086"
   preserveAspectRatio="xMidYMid meet"
   id="svg3"
   sodipodi:docname="panel06.svg"
   inkscape:version="1.4 (86a8ad7, 2024-10-11)"
   xmlns:inkscape="http://www.inkscape.org/namespaces/inkscape"
   xmlns:sodipodi="http://sodipodi.sourceforge.net/DTD/sodipodi-0.dtd"
   xmlns:xlink="http://www.w3.org/1999/xlink"
   xmlns="http://www.w3.org/2000/svg"
   xmlns:svg="http://www.w3.org/2000/svg">
  <defs
     id="defs3" />
  <sodipodi:namedview
     id="namedview3"
     pagecolor="#ffffff"
     bordercolor="#000000"
     borderopacity="0.25"
     inkscape:showpageshadow="2"
     inkscape:pageopacity="0.0"
     inkscape:pagecheckerboard="0"
     inkscape:deskcolor="#d1d1d1"
     inkscape:zoom="0.89502762"
     inkscape:cx="251.94753"
     inkscape:cy="543.55864"
     inkscape:window-width="1920"
     inkscape:window-height="1017"
     inkscape:window-x="1432"
     inkscape:window-y="879"
     inkscape:window-maximized="1"
     inkscape:current-layer="text-bubble-layer" />
  <image
     id="raster-base"
     x="0"
     y="0"
     width="1448"
     height="1086"
     preserveAspectRatio="none"
     href="panel06.jpg"
     xlink:href="panel06.jpg" />
  <g
     id="text-bubble-layer"
     inkscape:groupmode="layer"
     inkscape:label="Text bubble">
    <path
       id="speech-bubble-outline"
       d="M 62,146 C 56.9235,158.4903 55.1897,172.5419 56,186 C 56.6027,196.0096 59.4011,206.089 64,215 C 69.3243,225.3165 77.0785,234.5714 86,242 C 95.0565,249.5411 105.9455,254.9151 117,259 C 130.7361,264.0759 145.4154,266.6837 160,268 C 172.6198,269.1389 185.4512,268.7556 198,267 C 209.93,265.331 222.0182,262.951 233,258 C 244.3782,252.8703 264,237 264,237 L 311,239 L 281,221 C 281,221 287.8165,200.606 289,190 C 290.2205,179.0628 290.0079,167.8203 288,157 C 286.7113,150.0554 284.5258,143.1203 281,137 C 274.8637,126.3484 266.5951,116.6841 257,109 C 247.5722,101.4498 236.3862,96.0302 225,92 C 213.4758,87.921 201.2076,85.6479 189,85 C 169.6222,83.9715 149.6308,84.5732 131,90 C 114.3953,94.8367 98.0678,102.6711 85,114 C 75.0745,122.6047 66.9461,133.8307 62,146 Z"
       sodipodi:nodetypes="aaaaaaaacccaaaaaaaaa"
       fill="#ffffff"
       stroke="#000000"
       stroke-width="4.8"
       stroke-linejoin="miter"
       stroke-linecap="butt"
       stroke-miterlimit="10" />
    <text
       id="bubble-text"
       x="167"
       y="179"
       text-anchor="middle"
       dominant-baseline="middle"
       direction="rtl"
       unicode-bidi="plaintext"
       font-family="'Noto Sans Hebrew', Arial, sans-serif"
       font-size="35px"
       font-weight="400"
       fill="#000000"
       stroke="none"
       xml:space="preserve"><tspan
         x="167"
         y="128.25"
         id="tspan1">אז אנחנו</tspan><tspan
         x="167"
         y="179"
         id="tspan2">צריכים לדבר</tspan><tspan
         x="167"
         y="229.75"
         id="tspan3">על זה.</tspan></text>
  </g>
</svg>
