<?xml version="1.0" encoding="UTF-8" standalone="no"?>
<svg
   version="1.1"
   width="1448"
   height="1086"
   viewBox="0 0 1448 1086"
   preserveAspectRatio="xMidYMid meet"
   id="svg1"
   sodipodi:docname="panel42.svg"
   inkscape:version="1.4 (86a8ad7, 2024-10-11)"
   xmlns:inkscape="http://www.inkscape.org/namespaces/inkscape"
   xmlns:sodipodi="http://sodipodi.sourceforge.net/DTD/sodipodi-0.dtd"
   xmlns:xlink="http://www.w3.org/1999/xlink"
   xmlns="http://www.w3.org/2000/svg"
   xmlns:svg="http://www.w3.org/2000/svg">
  <defs
     id="defs1" />
  <sodipodi:namedview
     id="namedview1"
     pagecolor="#ffffff"
     bordercolor="#000000"
     borderopacity="0.25"
     inkscape:showpageshadow="2"
     inkscape:pageopacity="0.0"
     inkscape:pagecheckerboard="0"
     inkscape:deskcolor="#d1d1d1"
     inkscape:zoom="3.5582806"
     inkscape:cx="1217.3014"
     inkscape:cy="278.64582"
     inkscape:window-width="1920"
     inkscape:window-height="1017"
     inkscape:window-x="1432"
     inkscape:window-y="879"
     inkscape:window-maximized="1"
     inkscape:current-layer="text-bubble-layer" />
  <image
     id="raster-base"
     x="0"
     y="0"
     width="1448"
     height="1086"
     preserveAspectRatio="none"
     href="panel42.png"
     xlink:href="panel42.png" />
  <g
     id="text-bubble-layer"
     inkscape:groupmode="layer"
     inkscape:label="Text bubble">
    <path
       id="speech-bubble-outline"
       d="m 1135,207 c -7.6441,-0.88869 -15.4361,0.5824 -23,2 -8.1907,1.5351 -16.2778,3.8677 -24,7 -5.9416,2.4101 -11.7609,5.3037 -17,9 -4.4338,3.1282 -8.5449,6.8159 -12,11 -3.2398,3.9234 -5.9767,8.3315 -8,13 -1.5113,3.4872 -2.4955,7.233 -3,11 -0.3982,2.9735 -0.3982,6.0265 0,9 0.5045,3.767 1.4887,7.5128 3,11 2.0233,4.6685 4.8462,9.0072 8,13 2.3375,2.9594 5.0275,5.6791 8,8 6.128,4.7846 12.8493,8.9486 20,12 10.4868,4.4751 21.72,7.3381 33,9 12.5357,1.8469 38,1 38,1 l 2,23 9.0586,-22.39828 c 24.9754,-0.19594 44.7923,-9.11338 59.2673,-30.15 17.3378,-25.19715 4.3379,-43.34987 -8.2876,-58.43927 C 1200.8868,212.1234 1164.6448,210.44644 1135,207 Z"
       fill="#ffffff"
       stroke="#000000"
       stroke-width="4.8"
       stroke-linejoin="miter"
       stroke-linecap="butt"
       stroke-miterlimit="10"
       sodipodi:nodetypes="aaaaaaaaaaaaacccsaa" />
    <text
       id="bubble-text"
       x="1144.719"
       y="268.12897"
       text-anchor="middle"
       dominant-baseline="middle"
       direction="rtl"
       unicode-bidi="plaintext"
       font-family="'Noto Sans Hebrew', Arial, sans-serif"
       font-size="44px"
       font-weight="400"
       fill="#000000"
       stroke="none"
       xml:space="preserve"><tspan
   x="1144.719"
   y="268.12897"
   id="tspan1">בסדר.</tspan></text>
  </g>
</svg>
