<?xml version="1.0" encoding="UTF-8" standalone="no"?>
<svg
   version="1.1"
   width="1448"
   height="1086"
   viewBox="0 0 1448 1086"
   preserveAspectRatio="xMidYMid meet"
   id="svg3"
   sodipodi:docname="panel28.svg"
   inkscape:version="1.4 (86a8ad7, 2024-10-11)"
   xmlns:inkscape="http://www.inkscape.org/namespaces/inkscape"
   xmlns:sodipodi="http://sodipodi.sourceforge.net/DTD/sodipodi-0.dtd"
   xmlns:xlink="http://www.w3.org/1999/xlink"
   xmlns="http://www.w3.org/2000/svg"
   xmlns:svg="http://www.w3.org/2000/svg">
  <defs
     id="defs3" />
  <sodipodi:namedview
     id="namedview3"
     pagecolor="#ffffff"
     bordercolor="#000000"
     borderopacity="0.25"
     inkscape:showpageshadow="2"
     inkscape:pageopacity="0.0"
     inkscape:pagecheckerboard="0"
     inkscape:deskcolor="#d1d1d1"
     inkscape:zoom="0.89502762"
     inkscape:cx="724.55865"
     inkscape:cy="542.44136"
     inkscape:window-width="1920"
     inkscape:window-height="1017"
     inkscape:window-x="1432"
     inkscape:window-y="879"
     inkscape:window-maximized="1"
     inkscape:current-layer="text-bubble-layer" />
  <image
     id="raster-base"
     x="0"
     y="0"
     width="1448"
     height="1086"
     preserveAspectRatio="none"
     href="panel28.webp"
     xlink:href="panel28.jpg" />
  <g
     id="text-bubble-layer"
     inkscape:groupmode="layer"
     inkscape:label="Text bubble">
    <path
       id="speech-bubble-outline"
       d="M 809,91 C 825.4032,91.7 841.7721,93.5081 858,96 C 869.437,97.7562 880.825,99.9985 892,103 C 900.1441,105.1874 908.2373,107.7059 916,111 C 923.9603,114.378 931.6835,118.3905 939,123 C 943.2304,125.6652 947.3662,128.5655 951,132 C 957.0175,137.6873 962.8004,143.8642 967,151 C 970.7993,157.4557 973.6443,164.633 975,172 C 976.3272,179.2122 975.896,186.7216 975,194 C 974.3283,199.4563 973.0724,204.9081 971,210 C 967.5086,218.5783 957,234 957,234 L 957,239 C 957,239 963.7216,249.5122 968,254 C 974.2144,260.5186 989,271 989,271 C 989,271 974.1024,270.0816 967,268 C 957.1251,265.1058 939,255 939,255 L 933,255 C 933,255 906.934,269.1283 893,274 C 883.3067,277.389 873.1207,279.2633 863,281 C 851.1001,283.042 839.0637,284.5045 827,285 C 803.6768,285.9579 780.2129,285.4595 757,283 C 735.0898,280.6785 713.1413,277.204 692,271 C 676.7947,266.538 661.5484,261.219 648,253 C 638.2935,247.1116 629.0152,239.9261 622,231 C 615.0915,222.2096 610.4575,211.6323 607,201 C 605.746,197.1436 605.1662,193.0518 605,189 C 604.6709,180.979 604.8325,172.7296 607,165 C 609.0125,157.8233 612.6418,151.0466 617,145 C 622.2371,137.734 628.8415,131.3832 636,126 C 644.8238,119.3645 654.8165,114.2644 665,110 C 676.8683,105.0301 689.4433,101.8079 702,99 C 717.136,95.6154 732.5444,93.2967 748,92 C 768.2649,90.2998 788.6824,90.133 809,91 Z"
       fill="#ffffff"
       stroke="#000000"
       stroke-width="4.8"
       stroke-linejoin="miter"
       stroke-linecap="butt"
       stroke-miterlimit="10"
       sodipodi:nodetypes="aaaaaaaaaaccacaccaaaaaaaaaaaaaaa" />
    <text
       id="bubble-text"
       x="785.85999"
       y="187.31"
       text-anchor="middle"
       dominant-baseline="middle"
       direction="rtl"
       unicode-bidi="plaintext"
       font-family="'Noto Sans Hebrew', Arial, sans-serif"
       font-size="35.4px"
       font-weight="400"
       fill="#000000"
       stroke="none"
       xml:space="preserve"><tspan
         x="785.85999"
         y="145.71001"
         id="tspan1">פרופסור אופנהיימר,</tspan><tspan
         x="785.85999"
         y="187.31"
         id="tspan2">נשיא ארה״ב רוצה</tspan><tspan
         x="785.85999"
         y="228.89999"
         id="tspan3">לדבר איתך.</tspan></text>
  </g>
</svg>
