<?xml version="1.0" encoding="UTF-8" standalone="no"?>
<svg
   version="1.1"
   width="1448"
   height="1086"
   viewBox="0 0 1448 1086"
   preserveAspectRatio="xMidYMid meet"
   id="svg1"
   sodipodi:docname="panel48.svg"
   inkscape:version="1.4 (86a8ad7, 2024-10-11)"
   xmlns:inkscape="http://www.inkscape.org/namespaces/inkscape"
   xmlns:sodipodi="http://sodipodi.sourceforge.net/DTD/sodipodi-0.dtd"
   xmlns:xlink="http://www.w3.org/1999/xlink"
   xmlns="http://www.w3.org/2000/svg"
   xmlns:svg="http://www.w3.org/2000/svg">
  <defs
     id="defs1" />
  <sodipodi:namedview
     id="namedview1"
     pagecolor="#ffffff"
     bordercolor="#000000"
     borderopacity="0.25"
     inkscape:showpageshadow="2"
     inkscape:pageopacity="0.0"
     inkscape:pagecheckerboard="0"
     inkscape:deskcolor="#d1d1d1"
     inkscape:zoom="0.89502762"
     inkscape:cx="725.11729"
     inkscape:cy="543.55864"
     inkscape:window-width="1920"
     inkscape:window-height="1017"
     inkscape:window-x="1432"
     inkscape:window-y="879"
     inkscape:window-maximized="1"
     inkscape:current-layer="text-bubble-layer" />
  <image
     id="raster-base"
     x="0"
     y="0"
     width="1448"
     height="1086"
     preserveAspectRatio="none"
     href="panel48.jpg"
     xlink:href="panel48.jpg" />
  <g
     id="text-bubble-layer"
     inkscape:groupmode="layer"
     inkscape:label="Text bubble">
    <path
       id="speech-bubble-outline"
       d="m 935,239 c -4.37155,0.33431 -8.80667,0.72008 -13,2 -5.98995,1.8283 -12.03024,4.189 -17,8 -4.5045,3.45423 -8.21896,8.05146 -11,13 -1.54928,2.75676 -2.58026,5.8657 -3,9 -0.79763,5.95608 -0.72864,12.24475 1,18 1.33212,4.43508 3.99354,8.47784 7,12 3.07576,3.60335 6.89396,6.63676 11,9 4.93672,2.84135 10.39668,4.97663 16,6 130.1804,23.7756 397,1 397,1 0,0 29.6568,25.64395 44,39 8.2676,7.69858 24.2284,23.69753 24.2284,23.69753 0,0 -28.2541,-30.49049 -34.2284,-49.69753 -1.1881,-3.81949 0,-12 0,-12 0,0 13.5693,-1.7936 20,-4 4.9351,-1.6933 9.849,-3.83906 14,-7 3.5679,-2.71689 6.7434,-6.12456 9,-10 2.652,-4.55462 4.4617,-9.7571 5,-15 0.5828,-5.67591 0.056,-11.67765 -2,-17 -2.0668,-5.34952 -5.7862,-10.10987 -10,-14 -4.2844,-3.95529 -9.5282,-6.98534 -15,-9 -5.7082,-2.10167 -11.938,-2.49829 -18,-3 -141.184,-11.68474 -283.7458,-10.80217 -425,0 z"
       fill="#ffffff"
       stroke="#000000"
       stroke-width="4.8"
       stroke-linejoin="miter"
       stroke-linecap="butt"
       stroke-miterlimit="10"
       sodipodi:nodetypes="aaaaaaaaacacacaaaaaaaaa" />
    <text
       id="bubble-text"
       x="1148.5"
       y="278.38"
       text-anchor="middle"
       dominant-baseline="middle"
       direction="rtl"
       unicode-bidi="plaintext"
       font-family="'Noto Sans Hebrew', Arial, sans-serif"
       font-size="32px"
       font-weight="400"
       fill="#000000"
       stroke="none"
       xml:space="preserve"><tspan
   x="1148.5"
   y="278.38"
   id="tspan1">פרופסור אופנהיימר, הכל בסדר?</tspan></text>
  </g>
</svg>
