<?xml version="1.0" encoding="UTF-8" standalone="no"?>
<svg
   version="1.1"
   width="1448"
   height="1086"
   viewBox="0 0 1448 1086"
   preserveAspectRatio="xMidYMid meet"
   id="svg1"
   sodipodi:docname="panel86_simple_gates_04.svg"
   inkscape:version="1.4 (86a8ad7, 2024-10-11)"
   xmlns:inkscape="http://www.inkscape.org/namespaces/inkscape"
   xmlns:sodipodi="http://sodipodi.sourceforge.net/DTD/sodipodi-0.dtd"
   xmlns:xlink="http://www.w3.org/1999/xlink"
   xmlns="http://www.w3.org/2000/svg"
   xmlns:svg="http://www.w3.org/2000/svg">
  <defs
     id="defs1" />
  <sodipodi:namedview
     id="namedview1"
     pagecolor="#ffffff"
     bordercolor="#000000"
     borderopacity="0.25"
     inkscape:showpageshadow="2"
     inkscape:pageopacity="0.0"
     inkscape:pagecheckerboard="0"
     inkscape:deskcolor="#d1d1d1"
     inkscape:zoom="0.89502762"
     inkscape:cx="838.52161"
     inkscape:cy="275.4105"
     inkscape:window-width="1920"
     inkscape:window-height="1017"
     inkscape:window-x="1432"
     inkscape:window-y="879"
     inkscape:window-maximized="1"
     inkscape:current-layer="text-bubble-layer" />
  <image
     id="raster-base"
     x="0"
     y="0"
     width="1448"
     height="1086"
     preserveAspectRatio="none"
     href="panel86_simple_gates_04.webp"
     xlink:href="panel86_simple_gates_04.jpg" />
  <g
     id="text-bubble-layer"
     inkscape:groupmode="layer"
     inkscape:label="Text bubble">
    <path
       id="speech-bubble-outline"
       d="m 757,56 c -13.03,0.4687 -26.3078,0.0153 -39,3 -12.9549,3.0465 -25.6682,8.0213 -37,15 -6.0342,3.7162 -11.3933,8.6148 -16,14 -4.8693,5.6922 -9.0544,12.1127 -12,19 -3.7831,8.8455 -5.5834,18.4843 -7,28 -3.8825,26.0797 -4,79 -4,79 0,0 -21.83093,14.47571 -34,19 -21.40464,7.95795 -67.11111,13.76543 -67.11111,13.76543 0,0 43.4196,5.82249 65.11111,4.23457 14.27961,-1.04534 42,-9 42,-9 0,0 0.6836,27.675 4,41 2.9602,11.8937 7.2013,23.802 14,34 5.2298,7.8446 12.129,14.8099 20,20 8.9915,5.929 19.4263,9.9513 30,12 144.3163,27.9625 294.1627,7.9216 441,1 10.3701,-0.4888 20.9429,-0.4247 31,-3 9.837,-2.5189 19.7624,-6.0626 28,-12 6.5124,-4.6939 11.7529,-11.1877 16,-18 4.1918,-6.7236 7.2776,-14.2662 9,-22 5.8043,-26.0615 3.3331,-53.3084 4,-80 0.5911,-23.6593 1.5337,-47.3831 0,-71 -0.5011,-7.7154 -1.1162,-15.5014 -3,-23 -2.519,-10.0271 -5.6784,-20.1361 -11,-29 -3.6477,-6.0759 -8.478,-11.5582 -14,-16 -5.9285,-4.7688 -12.906,-8.2498 -20,-11 -9.2719,-3.5946 -19.1282,-5.8011 -29,-7 C 1031.9977,41.4826 893.9131,51.0755 757,56 Z"
       fill="#ffffff"
       stroke="#000000"
       stroke-width="4.8"
       stroke-linejoin="miter"
       stroke-linecap="butt"
       stroke-miterlimit="10"
       sodipodi:nodetypes="aaaaaacacacaaaaaaaaaaaaaaaaa" />
    <text
       id="bubble-text"
       x="944.35602"
       y="124.6086"
       text-anchor="middle"
       dominant-baseline="middle"
       direction="rtl"
       unicode-bidi="plaintext"
       font-family="'Noto Sans Hebrew', Arial, sans-serif"
       font-size="32.333px"
       font-weight="400"
       fill="#000000"
       stroke="none"
       xml:space="preserve"
       style="font-weight:400;font-family:'Noto Sans Hebrew', Arial, sans-serif;direction:rtl;dominant-baseline:middle;text-anchor:middle;fill:#000000;stroke:none;stroke-width:1.043"><tspan
         x="944.35602"
         y="124.6086"
         id="tspan1"
         style="stroke-width:1.043">אני רץ לפגישה עם אד טלר, הפסיכי הזה</tspan><tspan
         x="944.35602"
         y="164.24266"
         id="tspan2"
         style="stroke-width:1.043">חושב שהפצצה שאנחנו בונים לא מספיק חזקה,</tspan><tspan
         x="944.35602"
         y="203.87672"
         id="tspan3"
         style="stroke-width:1.043">ורוצה לפתח פצצה חזקה יותר.</tspan><tspan
         x="944.35602"
         y="243.51079"
         id="tspan4"
         style="stroke-width:1.043">אופס... תשכח מהמשפט האחרון שאמרתי.</tspan><tspan
         x="944.35602"
         y="283.14484"
         id="tspan5"
         style="stroke-width:1.043">אתה לא אמור לשמוע את זה.</tspan></text>
  </g>
</svg>
