<?xml version="1.0" encoding="UTF-8" standalone="no"?>
<svg
   version="1.1"
   width="1448"
   height="1086"
   viewBox="0 0 1448 1086"
   preserveAspectRatio="xMidYMid meet"
   id="svg1"
   sodipodi:docname="panel62.svg"
   inkscape:version="1.4 (86a8ad7, 2024-10-11)"
   xmlns:inkscape="http://www.inkscape.org/namespaces/inkscape"
   xmlns:sodipodi="http://sodipodi.sourceforge.net/DTD/sodipodi-0.dtd"
   xmlns:xlink="http://www.w3.org/1999/xlink"
   xmlns="http://www.w3.org/2000/svg"
   xmlns:svg="http://www.w3.org/2000/svg">
  <defs
     id="defs1" />
  <sodipodi:namedview
     id="namedview1"
     pagecolor="#ffffff"
     bordercolor="#000000"
     borderopacity="0.25"
     inkscape:showpageshadow="2"
     inkscape:pageopacity="0.0"
     inkscape:pagecheckerboard="0"
     inkscape:deskcolor="#d1d1d1"
     inkscape:zoom="1"
     inkscape:cx="376"
     inkscape:cy="326.5"
     inkscape:window-width="1920"
     inkscape:window-height="1017"
     inkscape:window-x="1432"
     inkscape:window-y="879"
     inkscape:window-maximized="1"
     inkscape:current-layer="text-bubble-layer" />
  <image
     id="raster-base"
     x="0"
     y="0"
     width="1448"
     height="1086"
     preserveAspectRatio="none"
     href="panel62.webp"
     xlink:href="panel62.webp" />
  <g
     id="text-bubble-layer"
     inkscape:groupmode="layer"
     inkscape:label="Text bubble">
    <path
       id="speech-bubble-outline"
       d="m 472,171 c -15.3316,-0.7063 -30.7981,-0.1113 -46,2 -12.8933,1.7907 -25.6539,4.8746 -38,9 -5.5213,1.8449 -10.9087,4.1773 -16,7 -6.7114,3.721 -13.2131,7.9601 -19,13 -3.7368,3.2545 -7.3046,6.8418 -10,11 -3.1664,4.8849 -5.8081,10.3019 -7,16 -1.365,6.5254 -1.3839,13.4786 0,20 1.363,6.4229 4.4264,12.4918 8,18 2.4408,3.7621 5.6905,6.9737 9,10 3.6898,3.3742 7.6881,6.4686 12,9 8.4934,4.9863 27,12 27,12 0,0 -3.38911,14.8613 -6,22 -3.67676,10.053 -13.53267,29.12215 -13.53267,29.12215 0,0 18.34299,-10.50977 26.53267,-17.12215 5.50165,-4.44205 10.367,-9.6581 15,-15 3.276,-3.7773 9,-12 9,-12 0,0 10.6355,1.666 16,2 13.6403,0.8492 27.3542,0.7558 41,0 6.0277,-0.3338 12.0447,-1.0104 18,-2 9.0948,-1.5113 18.2249,-3.1719 27,-6 9.6648,-3.1149 19.3792,-6.6341 28,-12 7.8271,-4.872 15.1267,-10.8933 21,-18 3.424,-4.1431 6.3865,-8.8731 8,-14 2.2105,-7.0239 2.8489,-14.6855 2,-22 -0.7291,-6.2824 -2.8839,-12.4964 -6,-18 -3.0283,-5.3486 -7.4661,-9.8501 -12,-14 -4.2303,-3.8721 -9.052,-7.1006 -14,-10 -5.4034,-3.1663 -11.1676,-5.7186 -17,-8 -6.1853,-2.4194 -12.5195,-4.546 -19,-6 -14.4434,-3.2405 -29.2133,-5.3188 -44,-6 z"
       fill="#ffffff"
       stroke="#000000"
       stroke-width="4.8"
       stroke-linejoin="miter"
       stroke-linecap="butt"
       stroke-miterlimit="10"
       sodipodi:nodetypes="aaaaaaaaaaacacaacaaaaaaaaaaaaaa" />
    <text
       id="bubble-text"
       x="459.5"
       y="242"
       text-anchor="middle"
       dominant-baseline="middle"
       direction="rtl"
       unicode-bidi="plaintext"
       font-family="'Noto Sans Hebrew', Arial, sans-serif"
       font-size="34px"
       font-weight="400"
       fill="#000000"
       stroke="none"
       xml:space="preserve"
       style="font-weight:400;font-family:'Noto Sans Hebrew', Arial, sans-serif;direction:rtl;dominant-baseline:middle;text-anchor:middle;fill:#000000;stroke:none"><tspan
   x="459.5"
   y="242"
   id="tspan1">מה שתגיד.</tspan></text>
  </g>
</svg>
