<?xml version="1.0" encoding="UTF-8" standalone="no"?>
<svg
   version="1.1"
   width="1448"
   height="1086"
   viewBox="0 0 1448 1086"
   preserveAspectRatio="xMidYMid meet"
   id="svg3"
   sodipodi:docname="panel33.svg"
   inkscape:version="1.4 (86a8ad7, 2024-10-11)"
   xmlns:inkscape="http://www.inkscape.org/namespaces/inkscape"
   xmlns:sodipodi="http://sodipodi.sourceforge.net/DTD/sodipodi-0.dtd"
   xmlns:xlink="http://www.w3.org/1999/xlink"
   xmlns="http://www.w3.org/2000/svg"
   xmlns:svg="http://www.w3.org/2000/svg">
  <defs
     id="defs3" />
  <sodipodi:namedview
     id="namedview3"
     pagecolor="#ffffff"
     bordercolor="#000000"
     borderopacity="0.25"
     inkscape:showpageshadow="2"
     inkscape:pageopacity="0.0"
     inkscape:pagecheckerboard="0"
     inkscape:deskcolor="#d1d1d1"
     inkscape:zoom="0.75046041"
     inkscape:cx="724.22209"
     inkscape:cy="543"
     inkscape:window-width="1920"
     inkscape:window-height="1017"
     inkscape:window-x="1432"
     inkscape:window-y="879"
     inkscape:window-maximized="1"
     inkscape:current-layer="text-bubble-layer" />
  <image
     id="raster-base"
     x="0"
     y="0"
     width="1448"
     height="1086"
     preserveAspectRatio="none"
     href="panel33.webp"
     xlink:href="panel33.jpg" />
  <g
     id="text-bubble-layer"
     inkscape:groupmode="layer"
     inkscape:label="Text bubble">
    <path
       id="speech-bubble-outline"
       d="M 446,541 C 434.2962,541.3644 422.5743,542.226 411,544 C 398.8492,545.8624 386.6584,548.1022 375,552 C 359.7206,557.1084 344.5842,563.3383 331,572 C 320.635,578.609 311.2745,586.9091 303,596 C 298.3311,601.1296 294.1302,606.8103 291,613 C 284.8159,625.2285 278,652 278,652 L 41,666 L 280,673 C 280,673 285.4358,691.5573 290,700 C 294.5338,708.3865 300.5062,716.0201 307,723 C 313.2799,729.75 320.5027,735.6344 328,741 C 334.9268,745.9573 342.2324,750.5044 350,754 C 369.8025,762.9116 390.6917,769.8152 412,774 C 437.9142,779.0893 464.6004,780.7116 491,780 C 514.1864,779.375 537.4501,776.4315 560,771 C 569.6352,768.6792 578.9886,765.1251 588,761 C 598.451,756.216 608.6635,750.7039 618,744 C 624.9032,739.0433 631.3021,733.3052 637,727 C 643.0796,720.2724 648.7653,713.0181 653,705 C 657.6284,696.2364 661.1137,686.7295 663,677 C 664.5874,668.8125 664.9415,660.2867 664,652 C 663.1419,644.4474 660.9599,637.0012 658,630 C 654.6831,622.1544 650.1103,614.8147 645,608 C 640.6141,602.1512 635.4921,596.8251 630,592 C 622.2856,585.2226 613.884,579.1497 605,574 C 594.5462,567.9404 583.3555,563.1295 572,559 C 560.2955,554.7436 548.1823,551.5889 536,549 C 520.5065,545.7074 504.7815,543.3534 489,542 C 474.7152,540.7749 460.3303,540.5538 446,541 Z"
       fill="#ffffff"
       stroke="#000000"
       stroke-width="4.8"
       stroke-linejoin="miter"
       stroke-linecap="butt"
       stroke-miterlimit="10"
       sodipodi:nodetypes="aaaaaacccaaaaaaaaaaaaaaaaaaaa" />
    <text
       id="bubble-text"
       x="460"
       y="664"
       text-anchor="middle"
       dominant-baseline="middle"
       direction="rtl"
       unicode-bidi="plaintext"
       font-family="'Noto Sans Hebrew', Arial, sans-serif"
       font-size="38px"
       font-weight="400"
       fill="#000000"
       stroke="none"
       xml:space="preserve"> <tspan
   x="460"
   y="618"
   id="tspan1">מדברים מהבית הלבן.</tspan> <tspan
   x="460"
   y="663"
   id="tspan2">האם אתה יכול</tspan> <tspan
   x="460"
   y="708"
   id="tspan3">לדבר עם הנשיא?</tspan></text>
  </g>
</svg>
