<?xml version="1.0" encoding="UTF-8" standalone="no"?>
<svg
   version="1.1"
   width="1448"
   height="1086"
   viewBox="0 0 1448 1086"
   preserveAspectRatio="xMidYMid meet"
   id="svg1"
   sodipodi:docname="panel65.svg"
   inkscape:version="1.4 (86a8ad7, 2024-10-11)"
   xmlns:inkscape="http://www.inkscape.org/namespaces/inkscape"
   xmlns:sodipodi="http://sodipodi.sourceforge.net/DTD/sodipodi-0.dtd"
   xmlns:xlink="http://www.w3.org/1999/xlink"
   xmlns="http://www.w3.org/2000/svg"
   xmlns:svg="http://www.w3.org/2000/svg">
  <defs
     id="defs1" />
  <sodipodi:namedview
     id="namedview1"
     pagecolor="#ffffff"
     bordercolor="#000000"
     borderopacity="0.25"
     inkscape:showpageshadow="2"
     inkscape:pageopacity="0.0"
     inkscape:pagecheckerboard="0"
     inkscape:deskcolor="#d1d1d1"
     inkscape:zoom="1"
     inkscape:cx="1251.5"
     inkscape:cy="141.5"
     inkscape:window-width="1920"
     inkscape:window-height="1017"
     inkscape:window-x="1432"
     inkscape:window-y="879"
     inkscape:window-maximized="1"
     inkscape:current-layer="text-bubble-layer" />
  <image
     id="raster-base"
     x="0"
     y="0"
     width="1448"
     height="1086"
     preserveAspectRatio="none"
     href="panel65.png"
     xlink:href="panel65.png" />
  <g
     id="text-bubble-layer"
     inkscape:groupmode="layer"
     inkscape:label="Text bubble">
    <path
       id="speech-bubble-outline"
       d="m 1061,65 c -6.3596,0.3338 -12.7655,0.7013 -19,2 -6.502,1.3545 -12.9442,3.2727 -19,6 -3.5444,1.5963 -7.0173,3.5071 -10,6 -5.4376,4.5448 -10.2674,9.9759 -14,16 -3.2278,5.2093 -5.2241,11.1347 -7,17 -1.4776,4.8802 -2.4976,9.9258 -3,15 -2.7262,27.532 -3.1896,55.5178 0,83 0.6711,5.7826 1.9547,11.5497 4,17 2.42147,6.45275 9,21 9,21 0,0 -53.3867,46.60582 -80,70 -6.27689,5.51764 -18.79281,16.59589 -18.79281,16.59589 0,0 14.59722,-6.24561 21.79281,-9.59589 39.05665,-18.18486 116,-57 116,-57 0,0 14.644,1.6663 22,2 71.2601,3.2324 142.8045,4.4325 214,0 8.0467,-0.501 16.2117,-0.9161 24,-3 6.6383,-1.7762 13.2974,-4.1656 19,-8 7.0415,-4.7347 13.2165,-10.9915 18,-18 3.2818,-4.8082 5.2524,-10.4471 7,-16 2.041,-6.4851 3.3301,-13.2344 4,-20 2.5291,-25.5418 2.2388,-51.4312 0,-77 -0.5019,-5.7323 -1.2425,-11.5207 -3,-17 -2.5956,-8.0923 -5.8474,-16.2418 -11,-23 -4.0116,-5.2616 -9.296,-9.647 -15,-13 -6.7269,-3.9544 -14.3967,-6.2452 -22,-8 -6.2052,-1.4321 -12.6404,-1.6662 -19,-2 -72.5668,-3.8088 -145.4332,-3.8088 -218,0 z"
       fill="#ffffff"
       stroke="#000000"
       stroke-width="4.8"
       stroke-linejoin="miter"
       stroke-linecap="butt"
       stroke-miterlimit="10"
       sodipodi:nodetypes="aaaaaaaaacacacaaaaaaaaaaaaaa" />
    <text
       id="bubble-text"
       x="1158.5"
       y="143"
       text-anchor="middle"
       dominant-baseline="middle"
       direction="rtl"
       unicode-bidi="plaintext"
       font-family="'Noto Sans Hebrew', Arial, sans-serif"
       font-size="42px"
       font-weight="400"
       fill="#000000"
       stroke="none"
       xml:space="preserve"
       style="font-weight:400;font-family:'Noto Sans Hebrew', Arial, sans-serif;direction:rtl;dominant-baseline:middle;text-anchor:middle;fill:#000000;stroke:none"> <tspan
   x="1158.5"
   y="143"
   id="tspan1">כמה זמן</tspan> <tspan
   x="1158.5"
   y="190"
   id="tspan2">אתם צריכים?</tspan></text>
  </g>
</svg>
