<?xml version="1.0" encoding="UTF-8" standalone="no"?>
<svg
   version="1.1"
   width="1450"
   height="1085"
   viewBox="0 0 1450 1085"
   preserveAspectRatio="xMidYMid meet"
   id="svg4"
   sodipodi:docname="panel37.svg"
   inkscape:version="1.4 (86a8ad7, 2024-10-11)"
   xmlns:inkscape="http://www.inkscape.org/namespaces/inkscape"
   xmlns:sodipodi="http://sodipodi.sourceforge.net/DTD/sodipodi-0.dtd"
   xmlns:xlink="http://www.w3.org/1999/xlink"
   xmlns="http://www.w3.org/2000/svg"
   xmlns:svg="http://www.w3.org/2000/svg">
  <defs
     id="defs4" />
  <sodipodi:namedview
     id="namedview4"
     pagecolor="#ffffff"
     bordercolor="#000000"
     borderopacity="0.25"
     inkscape:showpageshadow="2"
     inkscape:pageopacity="0.0"
     inkscape:pagecheckerboard="0"
     inkscape:deskcolor="#d1d1d1"
     inkscape:zoom="3.4627456"
     inkscape:cx="524.15055"
     inkscape:cy="169.95184"
     inkscape:window-width="1440"
     inkscape:window-height="2497"
     inkscape:window-x="-8"
     inkscape:window-y="-8"
     inkscape:window-maximized="1"
     inkscape:current-layer="text-bubble-layer" />
  <image
     id="raster-base"
     x="0"
     y="0"
     width="1450"
     height="1085"
     preserveAspectRatio="none"
     href="panel37.jpg"
     xlink:href="panel37.jpg" />
  <g
     id="text-bubble-layer"
     inkscape:groupmode="layer"
     inkscape:label="Text bubble">
    <path
       id="speech-bubble-outline"
       d="m 625,41 v 16 c 0,0 -40.0451,-1.3422 -60,0 -12.4174,0.8352 -24.8185,2.4506 -37,5 -7.1257,1.4913 -13.7903,4.9902 -21,6 -4.2914,0.601 -14,4 -14,4 0,0 -19.0715,7.1634 -28,12 -7.3973,4.0071 -14.4939,8.6663 -21,14 -7.6557,6.2762 -14.9748,13.1452 -21,21 -6.0897,7.9389 -10.9834,16.836 -15,26 -2.2431,5.1177 -4.0735,10.4897 -5,16 -1.8249,10.8527 -2.4547,22.0915 -1,33 1.0593,7.9436 3.772,15.665 7,23 3.431,7.7964 7.7121,15.3222 13,22 7.1713,9.0563 25,24 25,24 0,0 2.02179,11.90672 0.28879,17.46546 C 441.61238,298.67294 414,327 414,327 c 0,0 21.46067,-8.61417 31,-15 12.31516,-8.24403 33.15515,-29.62061 33.15515,-29.62061 0,0 7.88099,3.12094 11.84485,4.62061 9.9619,3.76894 19.7475,8.1137 30,11 11.4525,3.2241 23.179,5.6511 35,7 22.1992,2.5332 44.7078,3.5104 67,2 14.1606,-0.9595 28.3469,-3.1222 42,-7 15.2436,-4.3295 29.9539,-10.664 44,-18 5.9827,-3.1246 11.6517,-6.8828 17,-11 7.8533,-6.0455 15.6806,-12.3654 22,-20 7.7279,-9.3364 14.1237,-19.9045 19,-31 2.9291,-6.6649 4.8463,-13.8119 6,-21 1.3216,-8.2346 1.6558,-16.6858 1,-25 -0.5346,-6.7776 -2.0373,-13.4908 -4,-20 -2.2874,-7.5859 -5.2047,-15.0449 -9,-22 -3.898,-7.1434 -8.5191,-13.9848 -14,-20 C 736.2838,101.3366 725.1832,91.7254 713,84 702.7956,77.5293 691.4636,72.8191 680,69 663.8096,63.6061 630,58 630,58 l -1,-17 z"
       fill="#ffffff"
       stroke="#000000"
       stroke-width="4.8"
       stroke-linejoin="miter"
       stroke-linecap="butt"
       stroke-miterlimit="10"
       sodipodi:nodetypes="ccaaacaaaaaaaacacacaaaaaaaaaaaaaaaaccc" />
    <text
       id="bubble-text"
       x="586.50"
       y="121.00"
       text-anchor="middle"
       dominant-baseline="middle"
       direction="rtl"
       unicode-bidi="plaintext"
       font-family="Noto Sans Hebrew, Arial, sans-serif"
       font-size="34"
       font-weight="400"
       fill="#000000"
       stroke="none"
       xml:space="preserve">
<tspan
   x="586.50"
   y="121.00"
   id="tspan1">המולדת צריכה</tspan>
<tspan
   x="586.50"
   y="163.00"
   id="tspan2">שתנהל עבורה פרויקט</tspan>
<tspan
   x="586.50"
   y="205.00"
   id="tspan3">לאומי בעל חשיבות</tspan>
<tspan
   x="586.50"
   y="247.00"
   id="tspan4">עליונה.</tspan>
</text>
  </g>
</svg>
