<?xml version="1.0" encoding="UTF-8" standalone="no"?>
<svg
   version="1.1"
   width="1448"
   height="1086"
   viewBox="0 0 1448 1086"
   preserveAspectRatio="xMidYMid meet"
   id="svg2"
   sodipodi:docname="panel01.svg"
   inkscape:version="1.4 (86a8ad7, 2024-10-11)"
   xmlns:inkscape="http://www.inkscape.org/namespaces/inkscape"
   xmlns:sodipodi="http://sodipodi.sourceforge.net/DTD/sodipodi-0.dtd"
   xmlns:xlink="http://www.w3.org/1999/xlink"
   xmlns="http://www.w3.org/2000/svg"
   xmlns:svg="http://www.w3.org/2000/svg">
  <defs
     id="defs2" />
  <sodipodi:namedview
     id="namedview2"
     pagecolor="#ffffff"
     bordercolor="#000000"
     borderopacity="0.25"
     inkscape:showpageshadow="2"
     inkscape:pageopacity="0.0"
     inkscape:pagecheckerboard="0"
     inkscape:deskcolor="#d1d1d1"
     inkscape:zoom="0.75046041"
     inkscape:cx="723.55583"
     inkscape:cy="543"
     inkscape:window-width="1920"
     inkscape:window-height="1017"
     inkscape:window-x="1432"
     inkscape:window-y="879"
     inkscape:window-maximized="1"
     inkscape:current-layer="text-bubble-layer" />
  <image
     id="raster-base"
     x="0"
     y="0"
     width="1448"
     height="1086"
     preserveAspectRatio="none"
     href="panel01.jpg"
     xlink:href="panel01.jpg" />
  <g
     id="text-bubble-layer"
     inkscape:groupmode="layer"
     inkscape:label="Text bubble">
    <path
       id="speech-bubble-outline"
       d="M 926,201 C 920.4151,207.2118 916.3236,214.9764 914,223 C 911.1196,232.9461 910.6714,243.7308 912,254 C 912.8115,260.2723 914.8344,266.5247 918,272 C 922.018,278.9498 927.5347,285.2414 934,290 C 946.3753,299.1084 961.0737,305.3507 976,309 C 999.6726,314.7877 1049,313 1049,313 L 1071,342 L 1066,311 C 1066,311 1098.7714,301.8877 1113,293 C 1118.8008,289.3766 1123.9588,284.5178 1128,279 C 1132.5811,272.7451 1136.1696,265.534 1138,258 C 1140.4408,247.9535 1140.831,237.1753 1139,227 C 1137.5968,219.202 1134.5509,211.4859 1130,205 C 1124.578,197.2726 1116.9722,191.0552 1109,186 C 1101.6808,181.3589 1093.344,178.3427 1085,176 C 1072.3367,172.4446 1059.1362,170.6638 1046,170 C 1026.6655,169.0231 1007.1078,169.8906 988,173 C 975.7073,175.0003 963.2774,177.715 952,183 C 942.4552,187.4731 933.0475,193.1614 926,201 Z"
       sodipodi:nodetypes="aaaaaacccaaaaaaaaaaa"
       fill="#ffffff"
       stroke="#000000"
       stroke-width="4.8"
       stroke-linejoin="miter"
       stroke-linecap="butt"
       stroke-miterlimit="10" />
    <text
       id="bubble-text"
       x="1024"
       y="235"
       text-anchor="middle"
       dominant-baseline="middle"
       direction="rtl"
       unicode-bidi="plaintext"
       font-family="'Noto Sans Hebrew', Arial, sans-serif"
       font-size="32px"
       font-weight="400"
       fill="#000000"
       stroke="none"
       xml:space="preserve"><tspan
   x="1024"
   y="213.39999"
   id="tspan1">ליאו,</tspan><tspan
   x="1024"
   y="256.60001"
   id="tspan2">טוב ראות אותך.</tspan></text>
    <text
       id="bubble-text-0"
       x="1013.5734"
       y="429.34067"
       text-anchor="middle"
       dominant-baseline="middle"
       direction="rtl"
       unicode-bidi="plaintext"
       font-family="'Noto Sans Hebrew', Arial, sans-serif"
       font-size="32px"
       font-weight="400"
       fill="#000000"
       stroke="none"
       xml:space="preserve" />
  </g>
</svg>
