<?xml version="1.0" encoding="UTF-8" standalone="no"?>
<svg
   version="1.1"
   width="1448"
   height="1086"
   viewBox="0 0 1448 1086"
   preserveAspectRatio="xMidYMid meet"
   id="svg2"
   sodipodi:docname="panel19.svg"
   inkscape:version="1.4 (86a8ad7, 2024-10-11)"
   xmlns:inkscape="http://www.inkscape.org/namespaces/inkscape"
   xmlns:sodipodi="http://sodipodi.sourceforge.net/DTD/sodipodi-0.dtd"
   xmlns:xlink="http://www.w3.org/1999/xlink"
   xmlns="http://www.w3.org/2000/svg"
   xmlns:svg="http://www.w3.org/2000/svg">
  <defs
     id="defs2" />
  <sodipodi:namedview
     id="namedview2"
     pagecolor="#ffffff"
     bordercolor="#000000"
     borderopacity="0.25"
     inkscape:showpageshadow="2"
     inkscape:pageopacity="0.0"
     inkscape:pagecheckerboard="0"
     inkscape:deskcolor="#d1d1d1"
     inkscape:zoom="0.89502762"
     inkscape:cx="724.55865"
     inkscape:cy="543.55864"
     inkscape:window-width="1920"
     inkscape:window-height="1017"
     inkscape:window-x="1432"
     inkscape:window-y="879"
     inkscape:window-maximized="1"
     inkscape:current-layer="text-bubble-layer" />
  <image
     id="raster-base"
     x="0"
     y="0"
     width="1448"
     height="1086"
     preserveAspectRatio="none"
     href="panel19.webp"
     xlink:href="panel19.webp" />
  <g
     id="text-bubble-layer"
     inkscape:groupmode="layer"
     inkscape:label="Text bubble">
    <path
       id="speech-bubble-outline"
       d="M 650,270 C 672.9409,268.3192 696.1077,268.7515 719,271 C 739.236,272.9876 759.3065,276.9392 779,282 C 788.1883,284.3612 797.2838,287.2546 806,291 C 816.4127,295.4744 826.6835,300.5465 836,307 C 845.1251,313.3209 853.6194,320.7085 861,329 C 864.5043,332.9367 867.5055,337.3572 870,342 C 874.2479,349.9064 877.9524,358.2614 880,367 C 881.9073,375.1395 882.9063,383.6893 882,392 C 880.1483,408.9808 867,441 867,441 C 867,441 879.509,455.8902 887,462 C 891.8738,465.9751 903,472 903,472 C 903,472 887.5633,472.2983 880,471 C 867.6332,468.8772 844,460 844,460 C 844,460 830.4252,470.6565 823,475 C 812.8316,480.9482 802.01,485.8098 791,490 C 778.9746,494.5767 766.5654,498.2311 754,501 C 738.2096,504.4796 722.1355,506.9563 706,508 C 684.7086,509.3772 663.2294,509.1295 642,507 C 622.0943,505.0033 602.2028,501.6103 583,496 C 566.7797,491.2611 550.9867,484.8074 536,477 C 528.9483,473.3264 522.1782,469.0052 516,464 C 508.6742,458.0652 501.6903,451.5173 496,444 C 490.2355,436.3847 485.67,427.8178 482,419 C 480.1351,414.5192 478.7559,409.7942 478,405 C 476.4935,395.4456 476.1104,385.6314 477,376 C 477.5653,369.8797 478.8561,363.7603 481,358 C 484.4334,348.775 489.2377,339.9802 495,332 C 499.8314,325.309 505.7208,319.3557 512,314 C 518.753,308.2402 526.175,303.189 534,299 C 547.3154,291.8718 561.4547,286.0676 576,282 C 600.0656,275.2701 625.0779,271.8259 650,270 Z"
       fill="#ffffff"
       stroke="#000000"
       stroke-width="4.8"
       stroke-linejoin="miter"
       stroke-linecap="butt"
       stroke-miterlimit="10"
       sodipodi:nodetypes="aaaaaaaaacacacaaaaaaaaaaaaaaaaa" />
    <text
       id="bubble-text"
       x="671.18677"
       y="381.76486"
       text-anchor="middle"
       dominant-baseline="middle"
       direction="rtl"
       unicode-bidi="plaintext"
       font-family="'Noto Sans Hebrew', Arial, sans-serif"
       font-size="46.156px"
       font-weight="400"
       fill="#000000"
       stroke="none"
       xml:space="preserve"
       style="stroke-width:1.16732"><tspan
         x="671.18677"
         y="353.20047"
         id="tspan1"
         style="stroke-width:1.16732">המחלקה לפיזיקה,</tspan><tspan
         x="671.18677"
         y="410.34094"
         id="tspan2"
         style="stroke-width:1.16732">אוניברסיטת ברקלי.</tspan></text>
  </g>
</svg>
